<ttFont>
<head>
    <!-- Most of this table will be recalculated by the compiler -->
    <tableVersion value="1.0"/>
    <fontRevision value="5.0"/>
    <checkSumAdjustment value="0xe555be62"/>
    <magicNumber value="0x5f0f3cf5"/>
    <flags value="00000000 00001011"/>
    <unitsPerEm value="2048"/>
    <created value="Sun May 15 08:57:39 2005"/>
    <modified value="Thu Apr 14 11:32:00 2011"/>
    <xMin value="-3342"/>
    <yMin value="-1161"/>
    <xMax value="7807"/>
    <yMax value="2340"/>
    <macStyle value="00000000 00000000"/>
    <lowestRecPPEM value="8"/>
    <fontDirectionHint value="2"/>
    <indexToLocFormat value="1"/>
    <glyphDataFormat value="0"/>
  </head>
    <TTGlyph name=".notdef" xMin="142" yMin="226" xMax="842" yMax="1588">
      <contour>
        <pt x="142" y="226" on="1"/>
        <pt x="142" y="1588" on="1"/>
        <pt x="842" y="1588" on="1"/>
        <pt x="842" y="226" on="1"/>
      </contour>
      <contour>
        <pt x="284" y="368" on="1"/>
        <pt x="700" y="368" on="1"/>
        <pt x="700" y="1447" on="1"/>
        <pt x="284" y="1447" on="1"/>
      </contour>
    </TTGlyph>
    <TTGlyph name=".null" xMin="142" yMin="226" xMax="842" yMax="1588">
      <contour>
        <pt x="142" y="226" on="1"/>
        <pt x="142" y="1588" on="1"/>
        <pt x="842" y="1588" on="1"/>
        <pt x="842" y="226" on="1"/>
      </contour>
      <contour>
        <pt x="284" y="368" on="1"/>
        <pt x="700" y="368" on="1"/>
        <pt x="700" y="1447" on="1"/>
        <pt x="284" y="1447" on="1"/>
      </contour>
    </TTGlyph>
    <TTGlyph name="afii57381" xMin="142" yMin="226" xMax="842" yMax="1588">
      <contour>
        <pt x="142" y="226" on="1"/>
        <pt x="142" y="1588" on="1"/>
        <pt x="842" y="1588" on="1"/>
        <pt x="842" y="226" on="1"/>
      </contour>
      <contour>
        <pt x="284" y="368" on="1"/>
        <pt x="700" y="368" on="1"/>
        <pt x="700" y="1447" on="1"/>
        <pt x="284" y="1447" on="1"/>
      </contour>
    </TTGlyph>
    <TTGlyph name="afii57388" xMin="142" yMin="226" xMax="842" yMax="1588">
      <contour>
        <pt x="142" y="226" on="1"/>
        <pt x="142" y="1588" on="1"/>
        <pt x="842" y="1588" on="1"/>
        <pt x="842" y="226" on="1"/>
      </contour>
      <contour>
        <pt x="284" y="368" on="1"/>
        <pt x="700" y="368" on="1"/>
        <pt x="700" y="1447" on="1"/>
        <pt x="284" y="1447" on="1"/>
      </contour>
    </TTGlyph>
    <TTGlyph name="afii57396" xMin="142" yMin="226" xMax="842" yMax="1588">
      <contour>
        <pt x="142" y="226" on="1"/>
        <pt x="142" y="1588" on="1"/>
        <pt x="842" y="1588" on="1"/>
        <pt x="842" y="226" on="1"/>
      </contour>
      <contour>
        <pt x="284" y="368" on="1"/>
        <pt x="700" y="368" on="1"/>
        <pt x="700" y="1447" on="1"/>
        <pt x="284" y="1447" on="1"/>
      </contour>
    </TTGlyph>
    <TTGlyph name="afii57397" xMin="142" yMin="226" xMax="842" yMax="1588">
      <contour>
        <pt x="142" y="226" on="1"/>
        <pt x="142" y="1588" on="1"/>
        <pt x="842" y="1588" on="1"/>
        <pt x="842" y="226" on="1"/>
      </contour>
      <contour>
        <pt x="284" y="368" on="1"/>
        <pt x="700" y="368" on="1"/>
        <pt x="700" y="1447" on="1"/>
        <pt x="284" y="1447" on="1"/>
      </contour>
    </TTGlyph>
    <TTGlyph name="afii57398" xMin="142" yMin="226" xMax="842" yMax="1588">
      <contour>
        <pt x="142" y="226" on="1"/>
        <pt x="142" y="1588" on="1"/>
        <pt x="842" y="1588" on="1"/>
        <pt x="842" y="226" on="1"/>
      </contour>
      <contour>
        <pt x="284" y="368" on="1"/>
        <pt x="700" y="368" on="1"/>
        <pt x="700" y="1447" on="1"/>
        <pt x="284" y="1447" on="1"/>
      </contour>
    </TTGlyph>
    <TTGlyph name="afii57403" xMin="142" yMin="226" xMax="842" yMax="1588">
      <contour>
        <pt x="142" y="226" on="1"/>
        <pt x="142" y="1588" on="1"/>
        <pt x="842" y="1588" on="1"/>
        <pt x="842" y="226" on="1"/>
      </contour>
      <contour>
        <pt x="284" y="368" on="1"/>
        <pt x="700" y="368" on="1"/>
        <pt x="700" y="1447" on="1"/>
        <pt x="284" y="1447" on="1"/>
      </contour>
    </TTGlyph>
    <TTGlyph name="afii57407" xMin="142" yMin="226" xMax="842" yMax="1588">
      <contour>
        <pt x="142" y="226" on="1"/>
        <pt x="142" y="1588" on="1"/>
        <pt x="842" y="1588" on="1"/>
        <pt x="842" y="226" on="1"/>
      </contour>
      <contour>
        <pt x="284" y="368" on="1"/>
        <pt x="700" y="368" on="1"/>
        <pt x="700" y="1447" on="1"/>
        <pt x="284" y="1447" on="1"/>
      </contour>
    </TTGlyph>
    <TTGlyph name="afii57440" xMin="142" yMin="226" xMax="842" yMax="1588">
      <contour>
        <pt x="142" y="226" on="1"/>
        <pt x="142" y="1588" on="1"/>
        <pt x="842" y="1588" on="1"/>
        <pt x="842" y="226" on="1"/>
      </contour>
      <contour>
        <pt x="284" y="368" on="1"/>
        <pt x="700" y="368" on="1"/>
        <pt x="700" y="1447" on="1"/>
        <pt x="284" y="1447" on="1"/>
      </contour>
    </TTGlyph>
    <TTGlyph name="afii57451" xMin="142" yMin="226" xMax="842" yMax="1588">
      <contour>
        <pt x="142" y="226" on="1"/>
        <pt x="142" y="1588" on="1"/>
        <pt x="842" y="1588" on="1"/>
        <pt x="842" y="226" on="1"/>
      </contour>
      <contour>
        <pt x="284" y="368" on="1"/>
        <pt x="700" y="368" on="1"/>
        <pt x="700" y="1447" on="1"/>
        <pt x="284" y="1447" on="1"/>
      </contour>
    </TTGlyph>
    <TTGlyph name="afii57452" xMin="142" yMin="226" xMax="842" yMax="1588">
      <contour>
        <pt x="142" y="226" on="1"/>
        <pt x="142" y="1588" on="1"/>
        <pt x="842" y="1588" on="1"/>
        <pt x="842" y="226" on="1"/>
      </contour>
      <contour>
        <pt x="284" y="368" on="1"/>
        <pt x="700" y="368" on="1"/>
        <pt x="700" y="1447" on="1"/>
        <pt x="284" y="1447" on="1"/>
      </contour>
    </TTGlyph>
    <TTGlyph name="afii57453" xMin="142" yMin="226" xMax="842" yMax="1588">
      <contour>
        <pt x="142" y="226" on="1"/>
        <pt x="142" y="1588" on="1"/>
        <pt x="842" y="1588" on="1"/>
        <pt x="842" y="226" on="1"/>
      </contour>
      <contour>
        <pt x="284" y="368" on="1"/>
        <pt x="700" y="368" on="1"/>
        <pt x="700" y="1447" on="1"/>
        <pt x="284" y="1447" on="1"/>
      </contour>
    </TTGlyph>
    <TTGlyph name="afii57454" xMin="142" yMin="226" xMax="842" yMax="1588">
      <contour>
        <pt x="142" y="226" on="1"/>
        <pt x="142" y="1588" on="1"/>
        <pt x="842" y="1588" on="1"/>
        <pt x="842" y="226" on="1"/>
      </contour>
      <contour>
        <pt x="284" y="368" on="1"/>
        <pt x="700" y="368" on="1"/>
        <pt x="700" y="1447" on="1"/>
        <pt x="284" y="1447" on="1"/>
      </contour>
    </TTGlyph>
    <TTGlyph name="afii57455" xMin="142" yMin="226" xMax="842" yMax="1588">
      <contour>
        <pt x="142" y="226" on="1"/>
        <pt x="142" y="1588" on="1"/>
        <pt x="842" y="1588" on="1"/>
        <pt x="842" y="226" on="1"/>
      </contour>
      <contour>
        <pt x="284" y="368" on="1"/>
        <pt x="700" y="368" on="1"/>
        <pt x="700" y="1447" on="1"/>
        <pt x="284" y="1447" on="1"/>
      </contour>
    </TTGlyph>
    <TTGlyph name="afii57456" xMin="142" yMin="226" xMax="842" yMax="1588">
      <contour>
        <pt x="142" y="226" on="1"/>
        <pt x="142" y="1588" on="1"/>
        <pt x="842" y="1588" on="1"/>
        <pt x="842" y="226" on="1"/>
      </contour>
      <contour>
        <pt x="284" y="368" on="1"/>
        <pt x="700" y="368" on="1"/>
        <pt x="700" y="1447" on="1"/>
        <pt x="284" y="1447" on="1"/>
      </contour>
    </TTGlyph>
    <TTGlyph name="afii57457" xMin="142" yMin="226" xMax="842" yMax="1588">
      <contour>
        <pt x="142" y="226" on="1"/>
        <pt x="142" y="1588" on="1"/>
        <pt x="842" y="1588" on="1"/>
        <pt x="842" y="226" on="1"/>
      </contour>
      <contour>
        <pt x="284" y="368" on="1"/>
        <pt x="700" y="368" on="1"/>
        <pt x="700" y="1447" on="1"/>
        <pt x="284" y="1447" on="1"/>
      </contour>
    </TTGlyph>
    <TTGlyph name="afii57458" xMin="142" yMin="226" xMax="842" yMax="1588">
      <contour>
        <pt x="142" y="226" on="1"/>
        <pt x="142" y="1588" on="1"/>
        <pt x="842" y="1588" on="1"/>
        <pt x="842" y="226" on="1"/>
      </contour>
      <contour>
        <pt x="284" y="368" on="1"/>
        <pt x="700" y="368" on="1"/>
        <pt x="700" y="1447" on="1"/>
        <pt x="284" y="1447" on="1"/>
      </contour>
    </TTGlyph>
    <TTGlyph name="afii57505" xMin="142" yMin="226" xMax="842" yMax="1588">
      <contour>
        <pt x="142" y="226" on="1"/>
        <pt x="142" y="1588" on="1"/>
        <pt x="842" y="1588" on="1"/>
        <pt x="842" y="226" on="1"/>
      </contour>
      <contour>
        <pt x="284" y="368" on="1"/>
        <pt x="700" y="368" on="1"/>
        <pt x="700" y="1447" on="1"/>
        <pt x="284" y="1447" on="1"/>
      </contour>
    </TTGlyph>
    <TTGlyph name="afii57506" xMin="142" yMin="226" xMax="842" yMax="1588">
      <contour>
        <pt x="142" y="226" on="1"/>
        <pt x="142" y="1588" on="1"/>
        <pt x="842" y="1588" on="1"/>
        <pt x="842" y="226" on="1"/>
      </contour>
      <contour>
        <pt x="284" y="368" on="1"/>
        <pt x="700" y="368" on="1"/>
        <pt x="700" y="1447" on="1"/>
        <pt x="284" y="1447" on="1"/>
      </contour>
    </TTGlyph>
    <TTGlyph name="afii57507" xMin="142" yMin="226" xMax="842" yMax="1588">
      <contour>
        <pt x="142" y="226" on="1"/>
        <pt x="142" y="1588" on="1"/>
        <pt x="842" y="1588" on="1"/>
        <pt x="842" y="226" on="1"/>
      </contour>
      <contour>
        <pt x="284" y="368" on="1"/>
        <pt x="700" y="368" on="1"/>
        <pt x="700" y="1447" on="1"/>
        <pt x="284" y="1447" on="1"/>
      </contour>
    </TTGlyph>
    <TTGlyph name="afii57508" xMin="142" yMin="226" xMax="842" yMax="1588">
      <contour>
        <pt x="142" y="226" on="1"/>
        <pt x="142" y="1588" on="1"/>
        <pt x="842" y="1588" on="1"/>
        <pt x="842" y="226" on="1"/>
      </contour>
      <contour>
        <pt x="284" y="368" on="1"/>
        <pt x="700" y="368" on="1"/>
        <pt x="700" y="1447" on="1"/>
        <pt x="284" y="1447" on="1"/>
      </contour>
    </TTGlyph>
    <TTGlyph name="afii57509" xMin="142" yMin="226" xMax="842" yMax="1588">
      <contour>
        <pt x="142" y="226" on="1"/>
        <pt x="142" y="1588" on="1"/>
        <pt x="842" y="1588" on="1"/>
        <pt x="842" y="226" on="1"/>
      </contour>
      <contour>
        <pt x="284" y="368" on="1"/>
        <pt x="700" y="368" on="1"/>
        <pt x="700" y="1447" on="1"/>
        <pt x="284" y="1447" on="1"/>
      </contour>
    </TTGlyph>
    <TTGlyph name="afii57511" xMin="142" yMin="226" xMax="842" yMax="1588">
      <contour>
        <pt x="142" y="226" on="1"/>
        <pt x="142" y="1588" on="1"/>
        <pt x="842" y="1588" on="1"/>
        <pt x="842" y="226" on="1"/>
      </contour>
      <contour>
        <pt x="284" y="368" on="1"/>
        <pt x="700" y="368" on="1"/>
        <pt x="700" y="1447" on="1"/>
        <pt x="284" y="1447" on="1"/>
      </contour>
    </TTGlyph>
    <TTGlyph name="afii57512" xMin="142" yMin="226" xMax="842" yMax="1588">
      <contour>
        <pt x="142" y="226" on="1"/>
        <pt x="142" y="1588" on="1"/>
        <pt x="842" y="1588" on="1"/>
        <pt x="842" y="226" on="1"/>
      </contour>
      <contour>
        <pt x="284" y="368" on="1"/>
        <pt x="700" y="368" on="1"/>
        <pt x="700" y="1447" on="1"/>
        <pt x="284" y="1447" on="1"/>
      </contour>
    </TTGlyph>
    <TTGlyph name="afii57513" xMin="142" yMin="226" xMax="842" yMax="1588">
      <contour>
        <pt x="142" y="226" on="1"/>
        <pt x="142" y="1588" on="1"/>
        <pt x="842" y="1588" on="1"/>
        <pt x="842" y="226" on="1"/>
      </contour>
      <contour>
        <pt x="284" y="368" on="1"/>
        <pt x="700" y="368" on="1"/>
        <pt x="700" y="1447" on="1"/>
        <pt x="284" y="1447" on="1"/>
      </contour>
    </TTGlyph>
    <TTGlyph name="afii57514" xMin="142" yMin="226" xMax="842" yMax="1588">
      <contour>
        <pt x="142" y="226" on="1"/>
        <pt x="142" y="1588" on="1"/>
        <pt x="842" y="1588" on="1"/>
        <pt x="842" y="226" on="1"/>
      </contour>
      <contour>
        <pt x="284" y="368" on="1"/>
        <pt x="700" y="368" on="1"/>
        <pt x="700" y="1447" on="1"/>
        <pt x="284" y="1447" on="1"/>
      </contour>
    </TTGlyph>
    <TTGlyph name="afii57519" xMin="142" yMin="226" xMax="842" yMax="1588">
      <contour>
        <pt x="142" y="226" on="1"/>
        <pt x="142" y="1588" on="1"/>
        <pt x="842" y="1588" on="1"/>
        <pt x="842" y="226" on="1"/>
      </contour>
      <contour>
        <pt x="284" y="368" on="1"/>
        <pt x="700" y="368" on="1"/>
        <pt x="700" y="1447" on="1"/>
        <pt x="284" y="1447" on="1"/>
      </contour>
    </TTGlyph>
    <TTGlyph name="afii57534" xMin="142" yMin="226" xMax="842" yMax="1588">
      <contour>
        <pt x="142" y="226" on="1"/>
        <pt x="142" y="1588" on="1"/>
        <pt x="842" y="1588" on="1"/>
        <pt x="842" y="226" on="1"/>
      </contour>
      <contour>
        <pt x="284" y="368" on="1"/>
        <pt x="700" y="368" on="1"/>
        <pt x="700" y="1447" on="1"/>
        <pt x="284" y="1447" on="1"/>
      </contour>
    </TTGlyph>
    <TTGlyph name="afii63167" xMin="142" yMin="226" xMax="842" yMax="1588">
      <contour>
        <pt x="142" y="226" on="1"/>
        <pt x="142" y="1588" on="1"/>
        <pt x="842" y="1588" on="1"/>
        <pt x="842" y="226" on="1"/>
      </contour>
      <contour>
        <pt x="284" y="368" on="1"/>
        <pt x="700" y="368" on="1"/>
        <pt x="700" y="1447" on="1"/>
        <pt x="284" y="1447" on="1"/>
      </contour>
    </TTGlyph>
    <TTGlyph name="alefmaksurainitial" xMin="142" yMin="226" xMax="842" yMax="1588">
      <contour>
        <pt x="142" y="226" on="1"/>
        <pt x="142" y="1588" on="1"/>
        <pt x="842" y="1588" on="1"/>
        <pt x="842" y="226" on="1"/>
      </contour>
      <contour>
        <pt x="284" y="368" on="1"/>
        <pt x="700" y="368" on="1"/>
        <pt x="700" y="1447" on="1"/>
        <pt x="284" y="1447" on="1"/>
      </contour>
    </TTGlyph>
    <TTGlyph name="alefwaslafinalarabic" xMin="142" yMin="226" xMax="842" yMax="1588">
      <contour>
        <pt x="142" y="226" on="1"/>
        <pt x="142" y="1588" on="1"/>
        <pt x="842" y="1588" on="1"/>
        <pt x="842" y="226" on="1"/>
      </contour>
      <contour>
        <pt x="284" y="368" on="1"/>
        <pt x="700" y="368" on="1"/>
        <pt x="700" y="1447" on="1"/>
        <pt x="284" y="1447" on="1"/>
      </contour>
    </TTGlyph>
    <TTGlyph name="ampersand" xMin="142" yMin="226" xMax="842" yMax="1588">
      <contour>
        <pt x="142" y="226" on="1"/>
        <pt x="142" y="1588" on="1"/>
        <pt x="842" y="1588" on="1"/>
        <pt x="842" y="226" on="1"/>
      </contour>
      <contour>
        <pt x="284" y="368" on="1"/>
        <pt x="700" y="368" on="1"/>
        <pt x="700" y="1447" on="1"/>
        <pt x="284" y="1447" on="1"/>
      </contour>
    </TTGlyph>
    <TTGlyph name="asterisk" xMin="142" yMin="226" xMax="842" yMax="1588">
      <contour>
        <pt x="142" y="226" on="1"/>
        <pt x="142" y="1588" on="1"/>
        <pt x="842" y="1588" on="1"/>
        <pt x="842" y="226" on="1"/>
      </contour>
      <contour>
        <pt x="284" y="368" on="1"/>
        <pt x="700" y="368" on="1"/>
        <pt x="700" y="1447" on="1"/>
        <pt x="284" y="1447" on="1"/>
      </contour>
    </TTGlyph>
    <TTGlyph name="behmeemisolatedarabic" xMin="142" yMin="226" xMax="842" yMax="1588">
      <contour>
        <pt x="142" y="226" on="1"/>
        <pt x="142" y="1588" on="1"/>
        <pt x="842" y="1588" on="1"/>
        <pt x="842" y="226" on="1"/>
      </contour>
      <contour>
        <pt x="284" y="368" on="1"/>
        <pt x="700" y="368" on="1"/>
        <pt x="700" y="1447" on="1"/>
        <pt x="284" y="1447" on="1"/>
      </contour>
    </TTGlyph>
    <TTGlyph name="behnoonfinalarabic" xMin="142" yMin="226" xMax="842" yMax="1588">
      <contour>
        <pt x="142" y="226" on="1"/>
        <pt x="142" y="1588" on="1"/>
        <pt x="842" y="1588" on="1"/>
        <pt x="842" y="226" on="1"/>
      </contour>
      <contour>
        <pt x="284" y="368" on="1"/>
        <pt x="700" y="368" on="1"/>
        <pt x="700" y="1447" on="1"/>
        <pt x="284" y="1447" on="1"/>
      </contour>
    </TTGlyph>
    <TTGlyph name="colon" xMin="142" yMin="226" xMax="842" yMax="1588">
      <contour>
        <pt x="142" y="226" on="1"/>
        <pt x="142" y="1588" on="1"/>
        <pt x="842" y="1588" on="1"/>
        <pt x="842" y="226" on="1"/>
      </contour>
      <contour>
        <pt x="284" y="368" on="1"/>
        <pt x="700" y="368" on="1"/>
        <pt x="700" y="1447" on="1"/>
        <pt x="284" y="1447" on="1"/>
      </contour>
    </TTGlyph>
    <TTGlyph name="dagger" xMin="142" yMin="226" xMax="842" yMax="1588">
      <contour>
        <pt x="142" y="226" on="1"/>
        <pt x="142" y="1588" on="1"/>
        <pt x="842" y="1588" on="1"/>
        <pt x="842" y="226" on="1"/>
      </contour>
      <contour>
        <pt x="284" y="368" on="1"/>
        <pt x="700" y="368" on="1"/>
        <pt x="700" y="1447" on="1"/>
        <pt x="284" y="1447" on="1"/>
      </contour>
    </TTGlyph>
    <TTGlyph name="dalringfinal" xMin="142" yMin="226" xMax="842" yMax="1588">
      <contour>
        <pt x="142" y="226" on="1"/>
        <pt x="142" y="1588" on="1"/>
        <pt x="842" y="1588" on="1"/>
        <pt x="842" y="226" on="1"/>
      </contour>
      <contour>
        <pt x="284" y="368" on="1"/>
        <pt x="700" y="368" on="1"/>
        <pt x="700" y="1447" on="1"/>
        <pt x="284" y="1447" on="1"/>
      </contour>
    </TTGlyph>
    <TTGlyph name="ddalfinalarabic" xMin="142" yMin="226" xMax="842" yMax="1588">
      <contour>
        <pt x="142" y="226" on="1"/>
        <pt x="142" y="1588" on="1"/>
        <pt x="842" y="1588" on="1"/>
        <pt x="842" y="226" on="1"/>
      </contour>
      <contour>
        <pt x="284" y="368" on="1"/>
        <pt x="700" y="368" on="1"/>
        <pt x="700" y="1447" on="1"/>
        <pt x="284" y="1447" on="1"/>
      </contour>
    </TTGlyph>
    <TTGlyph name="divide" xMin="142" yMin="226" xMax="842" yMax="1588">
      <contour>
        <pt x="142" y="226" on="1"/>
        <pt x="142" y="1588" on="1"/>
        <pt x="842" y="1588" on="1"/>
        <pt x="842" y="226" on="1"/>
      </contour>
      <contour>
        <pt x="284" y="368" on="1"/>
        <pt x="700" y="368" on="1"/>
        <pt x="700" y="1447" on="1"/>
        <pt x="284" y="1447" on="1"/>
      </contour>
    </TTGlyph>
    <TTGlyph name="dollar" xMin="142" yMin="226" xMax="842" yMax="1588">
      <contour>
        <pt x="142" y="226" on="1"/>
        <pt x="142" y="1588" on="1"/>
        <pt x="842" y="1588" on="1"/>
        <pt x="842" y="226" on="1"/>
      </contour>
      <contour>
        <pt x="284" y="368" on="1"/>
        <pt x="700" y="368" on="1"/>
        <pt x="700" y="1447" on="1"/>
        <pt x="284" y="1447" on="1"/>
      </contour>
    </TTGlyph>
    <TTGlyph name="dotlessyehfinalarabic" xMin="142" yMin="226" xMax="842" yMax="1588">
      <contour>
        <pt x="142" y="226" on="1"/>
        <pt x="142" y="1588" on="1"/>
        <pt x="842" y="1588" on="1"/>
        <pt x="842" y="226" on="1"/>
      </contour>
      <contour>
        <pt x="284" y="368" on="1"/>
        <pt x="700" y="368" on="1"/>
        <pt x="700" y="1447" on="1"/>
        <pt x="284" y="1447" on="1"/>
      </contour>
    </TTGlyph>
    <TTGlyph name="dotlessyehinitialarabic" xMin="142" yMin="226" xMax="842" yMax="1588">
      <contour>
        <pt x="142" y="226" on="1"/>
        <pt x="142" y="1588" on="1"/>
        <pt x="842" y="1588" on="1"/>
        <pt x="842" y="226" on="1"/>
      </contour>
      <contour>
        <pt x="284" y="368" on="1"/>
        <pt x="700" y="368" on="1"/>
        <pt x="700" y="1447" on="1"/>
        <pt x="284" y="1447" on="1"/>
      </contour>
    </TTGlyph>
    <TTGlyph name="dotlessyehmedialarabic" xMin="142" yMin="226" xMax="842" yMax="1588">
      <contour>
        <pt x="142" y="226" on="1"/>
        <pt x="142" y="1588" on="1"/>
        <pt x="842" y="1588" on="1"/>
        <pt x="842" y="226" on="1"/>
      </contour>
      <contour>
        <pt x="284" y="368" on="1"/>
        <pt x="700" y="368" on="1"/>
        <pt x="700" y="1447" on="1"/>
        <pt x="284" y="1447" on="1"/>
      </contour>
    </TTGlyph>
    <TTGlyph name="elefmaksuramedial" xMin="142" yMin="226" xMax="842" yMax="1588">
      <contour>
        <pt x="142" y="226" on="1"/>
        <pt x="142" y="1588" on="1"/>
        <pt x="842" y="1588" on="1"/>
        <pt x="842" y="226" on="1"/>
      </contour>
      <contour>
        <pt x="284" y="368" on="1"/>
        <pt x="700" y="368" on="1"/>
        <pt x="700" y="1447" on="1"/>
        <pt x="284" y="1447" on="1"/>
      </contour>
    </TTGlyph>
    <TTGlyph name="ellipsis" xMin="142" yMin="226" xMax="842" yMax="1588">
      <contour>
        <pt x="142" y="226" on="1"/>
        <pt x="142" y="1588" on="1"/>
        <pt x="842" y="1588" on="1"/>
        <pt x="842" y="226" on="1"/>
      </contour>
      <contour>
        <pt x="284" y="368" on="1"/>
        <pt x="700" y="368" on="1"/>
        <pt x="700" y="1447" on="1"/>
        <pt x="284" y="1447" on="1"/>
      </contour>
    </TTGlyph>
    <TTGlyph name="emdash" xMin="298" yMin="-1056" xMax="2346" yMax="1759">
      <contour>
        <pt x="1802" y="-258" on="1"/>
        <pt x="1802" y="-311" on="0"/>
        <pt x="1769" y="-336" on="1"/>
        <pt x="1684" y="-402" on="0"/>
        <pt x="1427" y="-565" on="0"/>
        <pt x="1412" y="-564" on="1"/>
        <pt x="1362" y="-564" on="1"/>
        <pt x="1362" y="-510" on="1"/>
        <pt x="1362" y="-474" on="0"/>
        <pt x="1492" y="-392" on="1"/>
        <pt x="1574" y="-342" on="0"/>
        <pt x="1655" y="-293" on="1"/>
        <pt x="1742" y="-227" on="0"/>
        <pt x="1761" y="-227" on="1"/>
        <pt x="1793" y="-227" on="1"/>
        <pt x="1802" y="-240" on="0"/>
      </contour>
      <contour>
        <pt x="1227" y="-335" on="1"/>
        <pt x="1227" y="-365" on="0"/>
        <pt x="1187" y="-406" on="1"/>
        <pt x="1150" y="-442" on="0"/>
        <pt x="1137" y="-442" on="1"/>
        <pt x="1124" y="-442" on="0"/>
        <pt x="1084" y="-401" on="0"/>
        <pt x="1074" y="-401" on="1"/>
        <pt x="1064" y="-401" on="0"/>
        <pt x="1005" y="-462" on="0"/>
        <pt x="995" y="-462" on="1"/>
        <pt x="964" y="-462" on="0"/>
        <pt x="937" y="-430" on="1"/>
        <pt x="913" y="-400" on="0"/>
        <pt x="913" y="-376" on="1"/>
        <pt x="913" y="-335" on="0"/>
        <pt x="937" y="-300" on="1"/>
        <pt x="960" y="-268" on="0"/>
        <pt x="983" y="-268" on="1"/>
        <pt x="992" y="-268" on="0"/>
        <pt x="1037" y="-299" on="0"/>
        <pt x="1047" y="-299" on="1"/>
        <pt x="1056" y="-299" on="0"/>
        <pt x="1119" y="-227" on="0"/>
        <pt x="1130" y="-227" on="1"/>
        <pt x="1144" y="-227" on="0"/>
        <pt x="1227" y="-316" on="0"/>
      </contour>
      <contour>
        <pt x="2346" y="1385" on="1"/>
        <pt x="2346" y="1367" on="0"/>
        <pt x="2318" y="1329" on="0"/>
        <pt x="2303" y="1329" on="1"/>
        <pt x="2294" y="1329" on="0"/>
        <pt x="2234" y="1370" on="0"/>
        <pt x="2224" y="1370" on="1"/>
        <pt x="2231" y="1370" on="0"/>
        <pt x="1944" y="1103" on="0"/>
        <pt x="1893" y="1103" on="1"/>
        <pt x="1868" y="1103" on="0"/>
        <pt x="1858" y="1117" on="1"/>
        <pt x="1858" y="1125" on="0"/>
        <pt x="1861" y="1142" on="1"/>
        <pt x="1954" y="1228" on="0"/>
        <pt x="2141" y="1416" on="1"/>
        <pt x="2137" y="1425" on="0"/>
        <pt x="2098" y="1480" on="1"/>
        <pt x="2071" y="1518" on="0"/>
        <pt x="2071" y="1538" on="1"/>
        <pt x="2071" y="1577" on="0"/>
        <pt x="2117" y="1661" on="1"/>
        <pt x="2170" y="1759" on="0"/>
        <pt x="2217" y="1759" on="1"/>
        <pt x="2280" y="1759" on="0"/>
        <pt x="2280" y="1625" on="1"/>
        <pt x="2280" y="1556" on="0"/>
        <pt x="2269" y="1511" on="1"/>
        <pt x="2294" y="1479" on="0"/>
        <pt x="2318" y="1448" on="1"/>
        <pt x="2346" y="1413" on="0"/>
      </contour>
      <contour>
        <pt x="2322" y="1083" on="1"/>
        <pt x="2322" y="996" on="0"/>
        <pt x="2251" y="913" on="1"/>
        <pt x="2241" y="902" on="0"/>
        <pt x="2209" y="891" on="1"/>
        <pt x="2169" y="878" on="0"/>
        <pt x="2163" y="875" on="1"/>
        <pt x="2095" y="837" on="0"/>
        <pt x="2091" y="837" on="1"/>
        <pt x="2066" y="837" on="0"/>
        <pt x="2031" y="886" on="0"/>
        <pt x="2031" y="919" on="1"/>
        <pt x="2031" y="938" on="0"/>
        <pt x="2072" y="1072" on="1"/>
        <pt x="2076" y="1072" on="0"/>
        <pt x="2096" y="1082" on="0"/>
        <pt x="2100" y="1082" on="1"/>
        <pt x="2115" y="1049" on="0"/>
        <pt x="2102" y="997" on="1"/>
        <pt x="2114" y="981" on="0"/>
        <pt x="2126" y="981" on="1"/>
        <pt x="2146" y="981" on="0"/>
        <pt x="2161" y="1036" on="1"/>
        <pt x="2168" y="1067" on="0"/>
        <pt x="2176" y="1098" on="1"/>
        <pt x="2180" y="1101" on="0"/>
        <pt x="2191" y="1113" on="1"/>
        <pt x="2214" y="1113" on="0"/>
        <pt x="2222" y="1082" on="1"/>
        <pt x="2228" y="1057" on="0"/>
        <pt x="2234" y="1031" on="1"/>
        <pt x="2255" y="1037" on="0"/>
        <pt x="2264" y="1081" on="1"/>
        <pt x="2276" y="1139" on="0"/>
        <pt x="2287" y="1154" on="1"/>
        <pt x="2322" y="1128" on="0"/>
      </contour>
      <contour>
        <pt x="1677" y="914" on="1"/>
        <pt x="1677" y="878" on="0"/>
        <pt x="1643" y="840" on="1"/>
        <pt x="1614" y="807" on="0"/>
        <pt x="1598" y="807" on="1"/>
        <pt x="1591" y="807" on="0"/>
        <pt x="1549" y="837" on="0"/>
        <pt x="1539" y="837" on="1"/>
        <pt x="1529" y="837" on="0"/>
        <pt x="1466" y="776" on="0"/>
        <pt x="1457" y="776" on="1"/>
        <pt x="1435" y="776" on="0"/>
        <pt x="1370" y="838" on="0"/>
        <pt x="1370" y="863" on="1"/>
        <pt x="1370" y="889" on="0"/>
        <pt x="1404" y="931" on="1"/>
        <pt x="1436" y="971" on="0"/>
        <pt x="1448" y="971" on="1"/>
        <pt x="1458" y="971" on="0"/>
        <pt x="1506" y="930" on="0"/>
        <pt x="1515" y="930" on="1"/>
        <pt x="1525" y="930" on="0"/>
        <pt x="1584" y="1001" on="0"/>
        <pt x="1594" y="1001" on="1"/>
        <pt x="1613" y="1001" on="0"/>
        <pt x="1643" y="974" on="1"/>
        <pt x="1677" y="945" on="0"/>
      </contour>
      <contour>
        <pt x="928" y="1037" on="1"/>
        <pt x="928" y="995" on="0"/>
        <pt x="902" y="960" on="1"/>
        <pt x="894" y="963" on="0"/>
        <pt x="862" y="985" on="1"/>
        <pt x="837" y="1001" on="0"/>
        <pt x="826" y="1001" on="1"/>
        <pt x="830" y="1001" on="0"/>
        <pt x="718" y="888" on="1"/>
        <pt x="600" y="768" on="0"/>
        <pt x="513" y="745" on="1"/>
        <pt x="495" y="769" on="0"/>
        <pt x="495" y="781" on="1"/>
        <pt x="495" y="795" on="0"/>
        <pt x="588" y="891" on="1"/>
        <pt x="703" y="1011" on="0"/>
        <pt x="739" y="1058" on="1"/>
        <pt x="730" y="1094" on="0"/>
        <pt x="707" y="1108" on="1"/>
        <pt x="692" y="1118" on="0"/>
        <pt x="692" y="1170" on="1"/>
        <pt x="692" y="1220" on="0"/>
        <pt x="730" y="1294" on="1"/>
        <pt x="775" y="1380" on="0"/>
        <pt x="826" y="1380" on="1"/>
        <pt x="883" y="1380" on="0"/>
        <pt x="883" y="1253" on="1"/>
        <pt x="883" y="1218" on="0"/>
        <pt x="879" y="1173" on="1"/>
        <pt x="875" y="1131" on="0"/>
        <pt x="875" y="1131" on="1"/>
        <pt x="928" y="1055" on="0"/>
      </contour>
      <contour>
        <pt x="684" y="1067" on="1"/>
        <pt x="684" y="1036" on="0"/>
        <pt x="650" y="991" on="1"/>
        <pt x="603" y="1022" on="0"/>
        <pt x="590" y="1022" on="1"/>
        <pt x="597" y="1022" on="0"/>
        <pt x="380" y="786" on="0"/>
        <pt x="334" y="786" on="1"/>
        <pt x="310" y="786" on="0"/>
        <pt x="298" y="800" on="1"/>
        <pt x="314" y="845" on="0"/>
        <pt x="390" y="921" on="1"/>
        <pt x="482" y="1016" on="0"/>
        <pt x="511" y="1058" on="1"/>
        <pt x="456" y="1142" on="0"/>
        <pt x="456" y="1185" on="1"/>
        <pt x="456" y="1237" on="0"/>
        <pt x="490" y="1306" on="1"/>
        <pt x="530" y="1390" on="0"/>
        <pt x="586" y="1390" on="1"/>
        <pt x="650" y="1390" on="0"/>
        <pt x="650" y="1262" on="1"/>
        <pt x="650" y="1259" on="0"/>
        <pt x="631" y="1161" on="1"/>
        <pt x="684" y="1085" on="0"/>
      </contour>
      <contour>
        <pt x="2322" y="182" on="1"/>
        <pt x="2322" y="145" on="0"/>
        <pt x="2274" y="59" on="0"/>
        <pt x="2255" y="59" on="1"/>
        <pt x="2201" y="59" on="1"/>
        <pt x="2152" y="59" on="0"/>
        <pt x="2028" y="152" on="1"/>
        <pt x="1938" y="-32" on="0"/>
        <pt x="1814" y="-32" on="1"/>
        <pt x="1751" y="-32" on="1"/>
        <pt x="1673" y="-32" on="0"/>
        <pt x="1577" y="1" on="1"/>
        <pt x="1567" y="4" on="0"/>
        <pt x="1525" y="29" on="1"/>
        <pt x="1490" y="49" on="0"/>
        <pt x="1476" y="49" on="1"/>
        <pt x="1466" y="49" on="0"/>
        <pt x="1250" y="-12" on="0"/>
        <pt x="1240" y="-12" on="1"/>
        <pt x="1157" y="-12" on="0"/>
        <pt x="1106" y="41" on="1"/>
        <pt x="1078" y="69" on="0"/>
        <pt x="1042" y="139" on="1"/>
        <pt x="1015" y="193" on="0"/>
        <pt x="995" y="193" on="1"/>
        <pt x="943" y="193" on="0"/>
        <pt x="753" y="97" on="1"/>
        <pt x="732" y="87" on="0"/>
        <pt x="716" y="65" on="1"/>
        <pt x="766" y="18" on="0"/>
        <pt x="880" y="-63" on="1"/>
        <pt x="883" y="-72" on="0"/>
        <pt x="883" y="-86" on="1"/>
        <pt x="883" y="-131" on="0"/>
        <pt x="863" y="-176" on="1"/>
        <pt x="840" y="-227" on="0"/>
        <pt x="810" y="-227" on="1"/>
        <pt x="800" y="-227" on="0"/>
        <pt x="722" y="-217" on="0"/>
        <pt x="712" y="-217" on="1"/>
        <pt x="693" y="-217" on="0"/>
        <pt x="641" y="-231" on="1"/>
        <pt x="574" y="-249" on="0"/>
        <pt x="504" y="-297" on="1"/>
        <pt x="503" y="-303" on="0"/>
        <pt x="503" y="-349" on="1"/>
        <pt x="566" y="-949" on="1"/>
        <pt x="557" y="-987" on="0"/>
        <pt x="532" y="-1056" on="1"/>
        <pt x="496" y="-1037" on="0"/>
        <pt x="490" y="-991" on="1"/>
        <pt x="470" y="-860" on="0"/>
        <pt x="446" y="-635" on="1"/>
        <pt x="424" y="-430" on="0"/>
        <pt x="424" y="-406" on="1"/>
        <pt x="424" y="-290" on="0"/>
        <pt x="463" y="-216" on="1"/>
        <pt x="495" y="-157" on="0"/>
        <pt x="582" y="-78" on="1"/>
        <pt x="576" y="-72" on="0"/>
        <pt x="556" y="-82" on="1"/>
        <pt x="523" y="-99" on="0"/>
        <pt x="513" y="-103" on="1"/>
        <pt x="513" y="-99" on="0"/>
        <pt x="503" y="-83" on="0"/>
        <pt x="503" y="-68" on="1"/>
        <pt x="503" y="31" on="0"/>
        <pt x="710" y="218" on="1"/>
        <pt x="760" y="263" on="0"/>
        <pt x="980" y="356" on="0"/>
        <pt x="1039" y="356" on="1"/>
        <pt x="1079" y="356" on="0"/>
        <pt x="1105" y="331" on="1"/>
        <pt x="1114" y="304" on="0"/>
        <pt x="1134" y="251" on="1"/>
        <pt x="1174" y="161" on="0"/>
        <pt x="1263" y="161" on="1"/>
        <pt x="1297" y="161" on="0"/>
        <pt x="1342" y="172" on="1"/>
        <pt x="1393" y="184" on="0"/>
        <pt x="1398" y="198" on="1"/>
        <pt x="1394" y="318" on="0"/>
        <pt x="1448" y="451" on="1"/>
        <pt x="1510" y="602" on="0"/>
        <pt x="1594" y="602" on="1"/>
        <pt x="1658" y="602" on="0"/>
        <pt x="1691" y="505" on="1"/>
        <pt x="1716" y="432" on="0"/>
        <pt x="1716" y="336" on="1"/>
        <pt x="1716" y="297" on="0"/>
        <pt x="1702" y="268" on="1"/>
        <pt x="1681" y="227" on="0"/>
        <pt x="1661" y="186" on="1"/>
        <pt x="1667" y="141" on="0"/>
        <pt x="1791" y="141" on="1"/>
        <pt x="1879" y="141" on="0"/>
        <pt x="1975" y="217" on="0"/>
        <pt x="2018" y="323" on="1"/>
        <pt x="2034" y="363" on="0"/>
        <pt x="2081" y="437" on="1"/>
        <pt x="2141" y="530" on="0"/>
        <pt x="2169" y="530" on="1"/>
        <pt x="2185" y="530" on="0"/>
        <pt x="2231" y="488" on="1"/>
        <pt x="2241" y="479" on="0"/>
        <pt x="2281" y="349" on="1"/>
        <pt x="2322" y="215" on="0"/>
      </contour>
      <contour>
        <pt x="2212" y="1591" on="1"/>
        <pt x="2204" y="1602" on="0"/>
        <pt x="2203" y="1615" on="1"/>
        <pt x="2175" y="1615" on="1"/>
        <pt x="2158" y="1593" on="0"/>
        <pt x="2158" y="1577" on="1"/>
        <pt x="2175" y="1565" on="0"/>
        <pt x="2201" y="1544" on="1"/>
      </contour>
      <contour>
        <pt x="2180" y="271" on="1"/>
        <pt x="2165" y="338" on="0"/>
        <pt x="2137" y="356" on="1"/>
        <pt x="2110" y="321" on="0"/>
        <pt x="2110" y="310" on="1"/>
        <pt x="2110" y="271" on="0"/>
      </contour>
      <contour>
        <pt x="1621" y="306" on="1"/>
        <pt x="1621" y="344" on="0"/>
        <pt x="1609" y="381" on="1"/>
        <pt x="1594" y="428" on="0"/>
        <pt x="1570" y="428" on="1"/>
        <pt x="1538" y="428" on="0"/>
        <pt x="1507" y="374" on="1"/>
        <pt x="1480" y="325" on="0"/>
        <pt x="1480" y="289" on="1"/>
        <pt x="1480" y="271" on="0"/>
        <pt x="1511" y="243" on="0"/>
        <pt x="1527" y="243" on="1"/>
        <pt x="1537" y="243" on="0"/>
        <pt x="1570" y="269" on="1"/>
        <pt x="1612" y="301" on="0"/>
      </contour>
      <contour>
        <pt x="826" y="1198" on="1"/>
        <pt x="812" y="1235" on="0"/>
        <pt x="788" y="1235" on="1"/>
        <pt x="788" y="1186" on="1"/>
      </contour>
      <contour>
        <pt x="580" y="1197" on="1"/>
        <pt x="580" y="1215" on="0"/>
        <pt x="573" y="1253" on="0"/>
        <pt x="573" y="1256" on="1"/>
        <pt x="564" y="1256" on="0"/>
        <pt x="539" y="1245" on="0"/>
        <pt x="536" y="1245" on="1"/>
        <pt x="536" y="1240" on="0"/>
        <pt x="543" y="1203" on="0"/>
        <pt x="543" y="1197" on="1"/>
      </contour>
    </TTGlyph>
    <TTGlyph name="endash" xMin="298" yMin="-1056" xMax="1322" yMax="1759">
      <contour>
        <pt x="1050" y="-258" on="1"/>
        <pt x="1050" y="-311" on="0"/>
        <pt x="1033" y="-336" on="1"/>
        <pt x="991" y="-402" on="0"/>
        <pt x="862" y="-565" on="0"/>
        <pt x="855" y="-564" on="1"/>
        <pt x="830" y="-564" on="1"/>
        <pt x="830" y="-510" on="1"/>
        <pt x="830" y="-474" on="0"/>
        <pt x="895" y="-392" on="1"/>
        <pt x="936" y="-342" on="0"/>
        <pt x="977" y="-293" on="1"/>
        <pt x="1020" y="-227" on="0"/>
        <pt x="1029" y="-227" on="1"/>
        <pt x="1045" y="-227" on="1"/>
        <pt x="1050" y="-240" on="0"/>
      </contour>
      <contour>
        <pt x="763" y="-335" on="1"/>
        <pt x="763" y="-365" on="0"/>
        <pt x="742" y="-406" on="1"/>
        <pt x="724" y="-442" on="0"/>
        <pt x="717" y="-442" on="1"/>
        <pt x="711" y="-442" on="0"/>
        <pt x="691" y="-401" on="0"/>
        <pt x="686" y="-401" on="1"/>
        <pt x="681" y="-401" on="0"/>
        <pt x="652" y="-462" on="0"/>
        <pt x="647" y="-462" on="1"/>
        <pt x="631" y="-462" on="0"/>
        <pt x="618" y="-430" on="1"/>
        <pt x="605" y="-400" on="0"/>
        <pt x="605" y="-376" on="1"/>
        <pt x="605" y="-335" on="0"/>
        <pt x="618" y="-300" on="1"/>
        <pt x="629" y="-268" on="0"/>
        <pt x="641" y="-268" on="1"/>
        <pt x="645" y="-268" on="0"/>
        <pt x="667" y="-299" on="0"/>
        <pt x="672" y="-299" on="1"/>
        <pt x="677" y="-299" on="0"/>
        <pt x="708" y="-227" on="0"/>
        <pt x="714" y="-227" on="1"/>
        <pt x="721" y="-227" on="0"/>
        <pt x="763" y="-316" on="0"/>
      </contour>
      <contour>
        <pt x="1322" y="1385" on="1"/>
        <pt x="1322" y="1367" on="0"/>
        <pt x="1308" y="1329" on="0"/>
        <pt x="1300" y="1329" on="1"/>
        <pt x="1296" y="1329" on="0"/>
        <pt x="1266" y="1370" on="0"/>
        <pt x="1261" y="1370" on="1"/>
        <pt x="1265" y="1370" on="0"/>
        <pt x="1121" y="1103" on="0"/>
        <pt x="1095" y="1103" on="1"/>
        <pt x="1083" y="1103" on="0"/>
        <pt x="1078" y="1117" on="1"/>
        <pt x="1078" y="1125" on="0"/>
        <pt x="1079" y="1142" on="1"/>
        <pt x="1126" y="1228" on="0"/>
        <pt x="1220" y="1416" on="1"/>
        <pt x="1217" y="1425" on="0"/>
        <pt x="1198" y="1480" on="1"/>
        <pt x="1184" y="1518" on="0"/>
        <pt x="1184" y="1538" on="1"/>
        <pt x="1184" y="1577" on="0"/>
        <pt x="1207" y="1661" on="1"/>
        <pt x="1234" y="1759" on="0"/>
        <pt x="1257" y="1759" on="1"/>
        <pt x="1289" y="1759" on="0"/>
        <pt x="1289" y="1625" on="1"/>
        <pt x="1289" y="1556" on="0"/>
        <pt x="1284" y="1511" on="1"/>
        <pt x="1296" y="1479" on="0"/>
        <pt x="1308" y="1448" on="1"/>
        <pt x="1322" y="1413" on="0"/>
      </contour>
      <contour>
        <pt x="1310" y="1083" on="1"/>
        <pt x="1310" y="996" on="0"/>
        <pt x="1274" y="913" on="1"/>
        <pt x="1269" y="902" on="0"/>
        <pt x="1254" y="891" on="1"/>
        <pt x="1234" y="878" on="0"/>
        <pt x="1230" y="875" on="1"/>
        <pt x="1197" y="837" on="0"/>
        <pt x="1194" y="837" on="1"/>
        <pt x="1182" y="837" on="0"/>
        <pt x="1165" y="886" on="0"/>
        <pt x="1165" y="919" on="1"/>
        <pt x="1165" y="938" on="0"/>
        <pt x="1185" y="1072" on="1"/>
        <pt x="1187" y="1072" on="0"/>
        <pt x="1197" y="1082" on="0"/>
        <pt x="1199" y="1082" on="1"/>
        <pt x="1207" y="1049" on="0"/>
        <pt x="1200" y="997" on="1"/>
        <pt x="1206" y="981" on="0"/>
        <pt x="1212" y="981" on="1"/>
        <pt x="1222" y="981" on="0"/>
        <pt x="1230" y="1036" on="1"/>
        <pt x="1233" y="1067" on="0"/>
        <pt x="1237" y="1098" on="1"/>
        <pt x="1239" y="1101" on="0"/>
        <pt x="1245" y="1113" on="1"/>
        <pt x="1256" y="1113" on="0"/>
        <pt x="1260" y="1082" on="1"/>
        <pt x="1263" y="1057" on="0"/>
        <pt x="1266" y="1031" on="1"/>
        <pt x="1277" y="1037" on="0"/>
        <pt x="1281" y="1081" on="1"/>
        <pt x="1287" y="1139" on="0"/>
        <pt x="1292" y="1154" on="1"/>
        <pt x="1310" y="1128" on="0"/>
      </contour>
      <contour>
        <pt x="987" y="914" on="1"/>
        <pt x="987" y="878" on="0"/>
        <pt x="970" y="840" on="1"/>
        <pt x="956" y="807" on="0"/>
        <pt x="948" y="807" on="1"/>
        <pt x="944" y="807" on="0"/>
        <pt x="923" y="837" on="0"/>
        <pt x="918" y="837" on="1"/>
        <pt x="913" y="837" on="0"/>
        <pt x="882" y="776" on="0"/>
        <pt x="877" y="776" on="1"/>
        <pt x="867" y="776" on="0"/>
        <pt x="834" y="838" on="0"/>
        <pt x="834" y="863" on="1"/>
        <pt x="834" y="889" on="0"/>
        <pt x="851" y="931" on="1"/>
        <pt x="867" y="971" on="0"/>
        <pt x="873" y="971" on="1"/>
        <pt x="878" y="971" on="0"/>
        <pt x="902" y="930" on="0"/>
        <pt x="907" y="930" on="1"/>
        <pt x="912" y="930" on="0"/>
        <pt x="941" y="1001" on="0"/>
        <pt x="946" y="1001" on="1"/>
        <pt x="955" y="1001" on="0"/>
        <pt x="970" y="974" on="1"/>
        <pt x="987" y="945" on="0"/>
      </contour>
      <contour>
        <pt x="613" y="1037" on="1"/>
        <pt x="613" y="995" on="0"/>
        <pt x="600" y="960" on="1"/>
        <pt x="596" y="963" on="0"/>
        <pt x="580" y="985" on="1"/>
        <pt x="568" y="1001" on="0"/>
        <pt x="562" y="1001" on="1"/>
        <pt x="564" y="1001" on="0"/>
        <pt x="508" y="888" on="1"/>
        <pt x="449" y="768" on="0"/>
        <pt x="406" y="745" on="1"/>
        <pt x="396" y="769" on="0"/>
        <pt x="396" y="781" on="1"/>
        <pt x="396" y="795" on="0"/>
        <pt x="443" y="891" on="1"/>
        <pt x="500" y="1011" on="0"/>
        <pt x="518" y="1058" on="1"/>
        <pt x="514" y="1094" on="0"/>
        <pt x="503" y="1108" on="1"/>
        <pt x="495" y="1118" on="0"/>
        <pt x="495" y="1170" on="1"/>
        <pt x="495" y="1220" on="0"/>
        <pt x="514" y="1294" on="1"/>
        <pt x="536" y="1380" on="0"/>
        <pt x="562" y="1380" on="1"/>
        <pt x="591" y="1380" on="0"/>
        <pt x="591" y="1253" on="1"/>
        <pt x="591" y="1218" on="0"/>
        <pt x="588" y="1173" on="1"/>
        <pt x="587" y="1131" on="0"/>
        <pt x="587" y="1131" on="1"/>
        <pt x="613" y="1055" on="0"/>
      </contour>
      <contour>
        <pt x="491" y="1067" on="1"/>
        <pt x="491" y="1036" on="0"/>
        <pt x="474" y="991" on="1"/>
        <pt x="450" y="1022" on="0"/>
        <pt x="444" y="1022" on="1"/>
        <pt x="448" y="1022" on="0"/>
        <pt x="339" y="786" on="0"/>
        <pt x="316" y="786" on="1"/>
        <pt x="304" y="786" on="0"/>
        <pt x="298" y="800" on="1"/>
        <pt x="306" y="845" on="0"/>
        <pt x="344" y="921" on="1"/>
        <pt x="390" y="1016" on="0"/>
        <pt x="405" y="1058" on="1"/>
        <pt x="377" y="1142" on="0"/>
        <pt x="377" y="1185" on="1"/>
        <pt x="377" y="1237" on="0"/>
        <pt x="394" y="1306" on="1"/>
        <pt x="414" y="1390" on="0"/>
        <pt x="442" y="1390" on="1"/>
        <pt x="474" y="1390" on="0"/>
        <pt x="474" y="1262" on="1"/>
        <pt x="474" y="1259" on="0"/>
        <pt x="465" y="1161" on="1"/>
        <pt x="491" y="1085" on="0"/>
      </contour>
      <contour>
        <pt x="1310" y="182" on="1"/>
        <pt x="1310" y="145" on="0"/>
        <pt x="1286" y="59" on="0"/>
        <pt x="1277" y="59" on="1"/>
        <pt x="1249" y="59" on="1"/>
        <pt x="1225" y="59" on="0"/>
        <pt x="1163" y="152" on="1"/>
        <pt x="1118" y="-32" on="0"/>
        <pt x="1056" y="-32" on="1"/>
        <pt x="1025" y="-32" on="1"/>
        <pt x="985" y="-32" on="0"/>
        <pt x="938" y="1" on="1"/>
        <pt x="933" y="4" on="0"/>
        <pt x="912" y="29" on="1"/>
        <pt x="894" y="49" on="0"/>
        <pt x="887" y="49" on="1"/>
        <pt x="882" y="49" on="0"/>
        <pt x="774" y="-12" on="0"/>
        <pt x="769" y="-12" on="1"/>
        <pt x="728" y="-12" on="0"/>
        <pt x="702" y="41" on="1"/>
        <pt x="688" y="69" on="0"/>
        <pt x="670" y="139" on="1"/>
        <pt x="657" y="193" on="0"/>
        <pt x="647" y="193" on="1"/>
        <pt x="620" y="193" on="0"/>
        <pt x="525" y="97" on="1"/>
        <pt x="515" y="87" on="0"/>
        <pt x="507" y="65" on="1"/>
        <pt x="532" y="18" on="0"/>
        <pt x="589" y="-63" on="1"/>
        <pt x="591" y="-72" on="0"/>
        <pt x="591" y="-86" on="1"/>
        <pt x="591" y="-131" on="0"/>
        <pt x="580" y="-176" on="1"/>
        <pt x="569" y="-227" on="0"/>
        <pt x="554" y="-227" on="1"/>
        <pt x="549" y="-227" on="0"/>
        <pt x="510" y="-217" on="0"/>
        <pt x="505" y="-217" on="1"/>
        <pt x="495" y="-217" on="0"/>
        <pt x="470" y="-231" on="1"/>
        <pt x="436" y="-249" on="0"/>
        <pt x="401" y="-297" on="1"/>
        <pt x="400" y="-303" on="0"/>
        <pt x="400" y="-349" on="1"/>
        <pt x="432" y="-949" on="1"/>
        <pt x="428" y="-987" on="0"/>
        <pt x="415" y="-1056" on="1"/>
        <pt x="397" y="-1037" on="0"/>
        <pt x="394" y="-991" on="1"/>
        <pt x="384" y="-860" on="0"/>
        <pt x="372" y="-635" on="1"/>
        <pt x="361" y="-430" on="0"/>
        <pt x="361" y="-406" on="1"/>
        <pt x="361" y="-290" on="0"/>
        <pt x="381" y="-216" on="1"/>
        <pt x="396" y="-157" on="0"/>
        <pt x="440" y="-78" on="1"/>
        <pt x="437" y="-72" on="0"/>
        <pt x="427" y="-82" on="1"/>
        <pt x="410" y="-99" on="0"/>
        <pt x="405" y="-103" on="1"/>
        <pt x="405" y="-99" on="0"/>
        <pt x="400" y="-83" on="0"/>
        <pt x="400" y="-68" on="1"/>
        <pt x="400" y="31" on="0"/>
        <pt x="504" y="218" on="1"/>
        <pt x="529" y="263" on="0"/>
        <pt x="639" y="356" on="0"/>
        <pt x="668" y="356" on="1"/>
        <pt x="688" y="356" on="0"/>
        <pt x="702" y="331" on="1"/>
        <pt x="706" y="304" on="0"/>
        <pt x="716" y="251" on="1"/>
        <pt x="736" y="161" on="0"/>
        <pt x="780" y="161" on="1"/>
        <pt x="797" y="161" on="0"/>
        <pt x="820" y="172" on="1"/>
        <pt x="845" y="184" on="0"/>
        <pt x="848" y="198" on="1"/>
        <pt x="846" y="318" on="0"/>
        <pt x="873" y="451" on="1"/>
        <pt x="904" y="602" on="0"/>
        <pt x="946" y="602" on="1"/>
        <pt x="978" y="602" on="0"/>
        <pt x="994" y="505" on="1"/>
        <pt x="1007" y="432" on="0"/>
        <pt x="1007" y="336" on="1"/>
        <pt x="1007" y="297" on="0"/>
        <pt x="1000" y="268" on="1"/>
        <pt x="990" y="227" on="0"/>
        <pt x="979" y="186" on="1"/>
        <pt x="983" y="141" on="0"/>
        <pt x="1045" y="141" on="1"/>
        <pt x="1089" y="141" on="0"/>
        <pt x="1137" y="217" on="0"/>
        <pt x="1158" y="323" on="1"/>
        <pt x="1166" y="363" on="0"/>
        <pt x="1190" y="437" on="1"/>
        <pt x="1219" y="530" on="0"/>
        <pt x="1234" y="530" on="1"/>
        <pt x="1242" y="530" on="0"/>
        <pt x="1265" y="488" on="1"/>
        <pt x="1270" y="479" on="0"/>
        <pt x="1290" y="349" on="1"/>
        <pt x="1310" y="215" on="0"/>
      </contour>
      <contour>
        <pt x="1255" y="1591" on="1"/>
        <pt x="1251" y="1602" on="0"/>
        <pt x="1250" y="1615" on="1"/>
        <pt x="1237" y="1615" on="1"/>
        <pt x="1228" y="1593" on="0"/>
        <pt x="1228" y="1577" on="1"/>
        <pt x="1237" y="1565" on="0"/>
        <pt x="1250" y="1544" on="1"/>
      </contour>
      <contour>
        <pt x="1239" y="271" on="1"/>
        <pt x="1232" y="338" on="0"/>
        <pt x="1217" y="356" on="1"/>
        <pt x="1204" y="321" on="0"/>
        <pt x="1204" y="310" on="1"/>
        <pt x="1204" y="271" on="0"/>
      </contour>
      <contour>
        <pt x="960" y="306" on="1"/>
        <pt x="960" y="344" on="0"/>
        <pt x="953" y="381" on="1"/>
        <pt x="946" y="428" on="0"/>
        <pt x="934" y="428" on="1"/>
        <pt x="918" y="428" on="0"/>
        <pt x="903" y="374" on="1"/>
        <pt x="889" y="325" on="0"/>
        <pt x="889" y="289" on="1"/>
        <pt x="889" y="271" on="0"/>
        <pt x="905" y="243" on="0"/>
        <pt x="912" y="243" on="1"/>
        <pt x="917" y="243" on="0"/>
        <pt x="934" y="269" on="1"/>
        <pt x="955" y="301" on="0"/>
      </contour>
      <contour>
        <pt x="562" y="1198" on="1"/>
        <pt x="555" y="1235" on="0"/>
        <pt x="543" y="1235" on="1"/>
        <pt x="543" y="1186" on="1"/>
      </contour>
      <contour>
        <pt x="439" y="1197" on="1"/>
        <pt x="439" y="1215" on="0"/>
        <pt x="435" y="1253" on="0"/>
        <pt x="435" y="1256" on="1"/>
        <pt x="431" y="1256" on="0"/>
        <pt x="418" y="1245" on="0"/>
        <pt x="417" y="1245" on="1"/>
        <pt x="417" y="1240" on="0"/>
        <pt x="421" y="1203" on="0"/>
        <pt x="421" y="1197" on="1"/>
      </contour>
    </TTGlyph>
    <TTGlyph name="equal" xMin="142" yMin="226" xMax="842" yMax="1588">
      <contour>
        <pt x="142" y="226" on="1"/>
        <pt x="142" y="1588" on="1"/>
        <pt x="842" y="1588" on="1"/>
        <pt x="842" y="226" on="1"/>
      </contour>
      <contour>
        <pt x="284" y="368" on="1"/>
        <pt x="700" y="368" on="1"/>
        <pt x="700" y="1447" on="1"/>
        <pt x="284" y="1447" on="1"/>
      </contour>
    </TTGlyph>
    <TTGlyph name="exclam" xMin="142" yMin="226" xMax="842" yMax="1588">
      <contour>
        <pt x="142" y="226" on="1"/>
        <pt x="142" y="1588" on="1"/>
        <pt x="842" y="1588" on="1"/>
        <pt x="842" y="226" on="1"/>
      </contour>
      <contour>
        <pt x="284" y="368" on="1"/>
        <pt x="700" y="368" on="1"/>
        <pt x="700" y="1447" on="1"/>
        <pt x="284" y="1447" on="1"/>
      </contour>
    </TTGlyph>
    <TTGlyph name="figuredash" xMin="298" yMin="-1056" xMax="2960" yMax="1759">
      <contour>
        <pt x="2253" y="-258" on="1"/>
        <pt x="2253" y="-311" on="0"/>
        <pt x="2210" y="-336" on="1"/>
        <pt x="2099" y="-402" on="0"/>
        <pt x="1765" y="-565" on="0"/>
        <pt x="1746" y="-564" on="1"/>
        <pt x="1681" y="-564" on="1"/>
        <pt x="1681" y="-510" on="1"/>
        <pt x="1681" y="-474" on="0"/>
        <pt x="1850" y="-392" on="1"/>
        <pt x="1956" y="-342" on="0"/>
        <pt x="2062" y="-293" on="1"/>
        <pt x="2175" y="-227" on="0"/>
        <pt x="2199" y="-227" on="1"/>
        <pt x="2241" y="-227" on="1"/>
        <pt x="2253" y="-240" on="0"/>
      </contour>
      <contour>
        <pt x="1506" y="-335" on="1"/>
        <pt x="1506" y="-365" on="0"/>
        <pt x="1453" y="-406" on="1"/>
        <pt x="1406" y="-442" on="0"/>
        <pt x="1388" y="-442" on="1"/>
        <pt x="1371" y="-442" on="0"/>
        <pt x="1319" y="-401" on="0"/>
        <pt x="1306" y="-401" on="1"/>
        <pt x="1294" y="-401" on="0"/>
        <pt x="1217" y="-462" on="0"/>
        <pt x="1204" y="-462" on="1"/>
        <pt x="1164" y="-462" on="0"/>
        <pt x="1129" y="-430" on="1"/>
        <pt x="1097" y="-400" on="0"/>
        <pt x="1097" y="-376" on="1"/>
        <pt x="1097" y="-335" on="0"/>
        <pt x="1129" y="-300" on="1"/>
        <pt x="1159" y="-268" on="0"/>
        <pt x="1189" y="-268" on="1"/>
        <pt x="1200" y="-268" on="0"/>
        <pt x="1258" y="-299" on="0"/>
        <pt x="1271" y="-299" on="1"/>
        <pt x="1283" y="-299" on="0"/>
        <pt x="1365" y="-227" on="0"/>
        <pt x="1379" y="-227" on="1"/>
        <pt x="1398" y="-227" on="0"/>
        <pt x="1506" y="-316" on="0"/>
      </contour>
      <contour>
        <pt x="2960" y="1385" on="1"/>
        <pt x="2960" y="1367" on="0"/>
        <pt x="2923" y="1329" on="0"/>
        <pt x="2904" y="1329" on="1"/>
        <pt x="2892" y="1329" on="0"/>
        <pt x="2815" y="1370" on="0"/>
        <pt x="2801" y="1370" on="1"/>
        <pt x="2811" y="1370" on="0"/>
        <pt x="2437" y="1103" on="0"/>
        <pt x="2371" y="1103" on="1"/>
        <pt x="2339" y="1103" on="0"/>
        <pt x="2326" y="1117" on="1"/>
        <pt x="2326" y="1125" on="0"/>
        <pt x="2329" y="1142" on="1"/>
        <pt x="2450" y="1228" on="0"/>
        <pt x="2694" y="1416" on="1"/>
        <pt x="2688" y="1425" on="0"/>
        <pt x="2637" y="1480" on="1"/>
        <pt x="2602" y="1518" on="0"/>
        <pt x="2602" y="1538" on="1"/>
        <pt x="2602" y="1577" on="0"/>
        <pt x="2662" y="1661" on="1"/>
        <pt x="2731" y="1759" on="0"/>
        <pt x="2792" y="1759" on="1"/>
        <pt x="2874" y="1759" on="0"/>
        <pt x="2874" y="1625" on="1"/>
        <pt x="2874" y="1556" on="0"/>
        <pt x="2860" y="1511" on="1"/>
        <pt x="2892" y="1479" on="0"/>
        <pt x="2924" y="1448" on="1"/>
        <pt x="2960" y="1413" on="0"/>
      </contour>
      <contour>
        <pt x="2929" y="1083" on="1"/>
        <pt x="2929" y="996" on="0"/>
        <pt x="2836" y="913" on="1"/>
        <pt x="2823" y="902" on="0"/>
        <pt x="2782" y="891" on="1"/>
        <pt x="2730" y="878" on="0"/>
        <pt x="2722" y="875" on="1"/>
        <pt x="2634" y="837" on="0"/>
        <pt x="2628" y="837" on="1"/>
        <pt x="2596" y="837" on="0"/>
        <pt x="2551" y="886" on="0"/>
        <pt x="2551" y="919" on="1"/>
        <pt x="2551" y="938" on="0"/>
        <pt x="2604" y="1072" on="1"/>
        <pt x="2609" y="1072" on="0"/>
        <pt x="2635" y="1082" on="0"/>
        <pt x="2640" y="1082" on="1"/>
        <pt x="2660" y="1049" on="0"/>
        <pt x="2643" y="997" on="1"/>
        <pt x="2659" y="981" on="0"/>
        <pt x="2674" y="981" on="1"/>
        <pt x="2700" y="981" on="0"/>
        <pt x="2720" y="1036" on="1"/>
        <pt x="2729" y="1067" on="0"/>
        <pt x="2739" y="1098" on="1"/>
        <pt x="2744" y="1101" on="0"/>
        <pt x="2759" y="1113" on="1"/>
        <pt x="2789" y="1113" on="0"/>
        <pt x="2799" y="1082" on="1"/>
        <pt x="2806" y="1057" on="0"/>
        <pt x="2814" y="1031" on="1"/>
        <pt x="2842" y="1037" on="0"/>
        <pt x="2854" y="1081" on="1"/>
        <pt x="2869" y="1139" on="0"/>
        <pt x="2883" y="1154" on="1"/>
        <pt x="2929" y="1128" on="0"/>
      </contour>
      <contour>
        <pt x="2090" y="914" on="1"/>
        <pt x="2090" y="878" on="0"/>
        <pt x="2046" y="840" on="1"/>
        <pt x="2008" y="807" on="0"/>
        <pt x="1988" y="807" on="1"/>
        <pt x="1978" y="807" on="0"/>
        <pt x="1924" y="837" on="0"/>
        <pt x="1911" y="837" on="1"/>
        <pt x="1898" y="837" on="0"/>
        <pt x="1816" y="776" on="0"/>
        <pt x="1804" y="776" on="1"/>
        <pt x="1776" y="776" on="0"/>
        <pt x="1691" y="838" on="0"/>
        <pt x="1691" y="863" on="1"/>
        <pt x="1691" y="889" on="0"/>
        <pt x="1735" y="931" on="1"/>
        <pt x="1777" y="971" on="0"/>
        <pt x="1793" y="971" on="1"/>
        <pt x="1806" y="971" on="0"/>
        <pt x="1868" y="930" on="0"/>
        <pt x="1880" y="930" on="1"/>
        <pt x="1893" y="930" on="0"/>
        <pt x="1970" y="1001" on="0"/>
        <pt x="1982" y="1001" on="1"/>
        <pt x="2007" y="1001" on="0"/>
        <pt x="2046" y="974" on="1"/>
        <pt x="2090" y="945" on="0"/>
      </contour>
      <contour>
        <pt x="1117" y="1037" on="1"/>
        <pt x="1117" y="995" on="0"/>
        <pt x="1083" y="960" on="1"/>
        <pt x="1073" y="963" on="0"/>
        <pt x="1031" y="985" on="1"/>
        <pt x="999" y="1001" on="0"/>
        <pt x="984" y="1001" on="1"/>
        <pt x="989" y="1001" on="0"/>
        <pt x="844" y="888" on="1"/>
        <pt x="691" y="768" on="0"/>
        <pt x="578" y="745" on="1"/>
        <pt x="554" y="769" on="0"/>
        <pt x="554" y="781" on="1"/>
        <pt x="554" y="795" on="0"/>
        <pt x="675" y="891" on="1"/>
        <pt x="824" y="1011" on="0"/>
        <pt x="871" y="1058" on="1"/>
        <pt x="859" y="1094" on="0"/>
        <pt x="830" y="1108" on="1"/>
        <pt x="810" y="1118" on="0"/>
        <pt x="810" y="1170" on="1"/>
        <pt x="810" y="1220" on="0"/>
        <pt x="860" y="1294" on="1"/>
        <pt x="918" y="1380" on="0"/>
        <pt x="984" y="1380" on="1"/>
        <pt x="1059" y="1380" on="0"/>
        <pt x="1059" y="1253" on="1"/>
        <pt x="1059" y="1218" on="0"/>
        <pt x="1053" y="1173" on="1"/>
        <pt x="1048" y="1131" on="0"/>
        <pt x="1048" y="1131" on="1"/>
        <pt x="1117" y="1055" on="0"/>
      </contour>
      <contour>
        <pt x="800" y="1067" on="1"/>
        <pt x="800" y="1036" on="0"/>
        <pt x="755" y="991" on="1"/>
        <pt x="694" y="1022" on="0"/>
        <pt x="677" y="1022" on="1"/>
        <pt x="687" y="1022" on="0"/>
        <pt x="404" y="786" on="0"/>
        <pt x="345" y="786" on="1"/>
        <pt x="313" y="786" on="0"/>
        <pt x="298" y="800" on="1"/>
        <pt x="319" y="845" on="0"/>
        <pt x="417" y="921" on="1"/>
        <pt x="537" y="1016" on="0"/>
        <pt x="575" y="1058" on="1"/>
        <pt x="503" y="1142" on="0"/>
        <pt x="503" y="1185" on="1"/>
        <pt x="503" y="1237" on="0"/>
        <pt x="547" y="1306" on="1"/>
        <pt x="600" y="1390" on="0"/>
        <pt x="672" y="1390" on="1"/>
        <pt x="755" y="1390" on="0"/>
        <pt x="755" y="1262" on="1"/>
        <pt x="755" y="1259" on="0"/>
        <pt x="731" y="1161" on="1"/>
        <pt x="800" y="1085" on="0"/>
      </contour>
      <contour>
        <pt x="2929" y="182" on="1"/>
        <pt x="2929" y="145" on="0"/>
        <pt x="2867" y="59" on="0"/>
        <pt x="2842" y="59" on="1"/>
        <pt x="2771" y="59" on="1"/>
        <pt x="2708" y="59" on="0"/>
        <pt x="2547" y="152" on="1"/>
        <pt x="2430" y="-32" on="0"/>
        <pt x="2269" y="-32" on="1"/>
        <pt x="2187" y="-32" on="1"/>
        <pt x="2085" y="-32" on="0"/>
        <pt x="1961" y="1" on="1"/>
        <pt x="1948" y="4" on="0"/>
        <pt x="1893" y="29" on="1"/>
        <pt x="1848" y="49" on="0"/>
        <pt x="1829" y="49" on="1"/>
        <pt x="1816" y="49" on="0"/>
        <pt x="1535" y="-12" on="0"/>
        <pt x="1522" y="-12" on="1"/>
        <pt x="1415" y="-12" on="0"/>
        <pt x="1348" y="41" on="1"/>
        <pt x="1312" y="69" on="0"/>
        <pt x="1265" y="139" on="1"/>
        <pt x="1230" y="193" on="0"/>
        <pt x="1204" y="193" on="1"/>
        <pt x="1136" y="193" on="0"/>
        <pt x="889" y="97" on="1"/>
        <pt x="862" y="87" on="0"/>
        <pt x="841" y="65" on="1"/>
        <pt x="906" y="18" on="0"/>
        <pt x="1055" y="-63" on="1"/>
        <pt x="1059" y="-72" on="0"/>
        <pt x="1059" y="-86" on="1"/>
        <pt x="1059" y="-131" on="0"/>
        <pt x="1032" y="-176" on="1"/>
        <pt x="1003" y="-227" on="0"/>
        <pt x="964" y="-227" on="1"/>
        <pt x="951" y="-227" on="0"/>
        <pt x="849" y="-217" on="0"/>
        <pt x="836" y="-217" on="1"/>
        <pt x="811" y="-217" on="0"/>
        <pt x="744" y="-231" on="1"/>
        <pt x="657" y="-249" on="0"/>
        <pt x="566" y="-297" on="1"/>
        <pt x="564" y="-303" on="0"/>
        <pt x="564" y="-349" on="1"/>
        <pt x="646" y="-949" on="1"/>
        <pt x="635" y="-987" on="0"/>
        <pt x="602" y="-1056" on="1"/>
        <pt x="555" y="-1037" on="0"/>
        <pt x="547" y="-991" on="1"/>
        <pt x="522" y="-860" on="0"/>
        <pt x="491" y="-635" on="1"/>
        <pt x="462" y="-430" on="0"/>
        <pt x="462" y="-406" on="1"/>
        <pt x="462" y="-290" on="0"/>
        <pt x="513" y="-216" on="1"/>
        <pt x="554" y="-157" on="0"/>
        <pt x="667" y="-78" on="1"/>
        <pt x="659" y="-72" on="0"/>
        <pt x="634" y="-82" on="1"/>
        <pt x="590" y="-99" on="0"/>
        <pt x="577" y="-103" on="1"/>
        <pt x="577" y="-99" on="0"/>
        <pt x="564" y="-83" on="0"/>
        <pt x="564" y="-68" on="1"/>
        <pt x="564" y="31" on="0"/>
        <pt x="833" y="218" on="1"/>
        <pt x="898" y="263" on="0"/>
        <pt x="1184" y="356" on="0"/>
        <pt x="1261" y="356" on="1"/>
        <pt x="1313" y="356" on="0"/>
        <pt x="1347" y="331" on="1"/>
        <pt x="1359" y="304" on="0"/>
        <pt x="1385" y="251" on="1"/>
        <pt x="1436" y="161" on="0"/>
        <pt x="1552" y="161" on="1"/>
        <pt x="1596" y="161" on="0"/>
        <pt x="1655" y="172" on="1"/>
        <pt x="1721" y="184" on="0"/>
        <pt x="1728" y="198" on="1"/>
        <pt x="1723" y="318" on="0"/>
        <pt x="1793" y="451" on="1"/>
        <pt x="1873" y="602" on="0"/>
        <pt x="1982" y="602" on="1"/>
        <pt x="2066" y="602" on="0"/>
        <pt x="2108" y="505" on="1"/>
        <pt x="2141" y="432" on="0"/>
        <pt x="2141" y="336" on="1"/>
        <pt x="2141" y="297" on="0"/>
        <pt x="2123" y="268" on="1"/>
        <pt x="2096" y="227" on="0"/>
        <pt x="2069" y="186" on="1"/>
        <pt x="2078" y="141" on="0"/>
        <pt x="2239" y="141" on="1"/>
        <pt x="2353" y="141" on="0"/>
        <pt x="2478" y="217" on="0"/>
        <pt x="2534" y="323" on="1"/>
        <pt x="2555" y="363" on="0"/>
        <pt x="2616" y="437" on="1"/>
        <pt x="2693" y="530" on="0"/>
        <pt x="2730" y="530" on="1"/>
        <pt x="2751" y="530" on="0"/>
        <pt x="2811" y="488" on="1"/>
        <pt x="2824" y="479" on="0"/>
        <pt x="2876" y="349" on="1"/>
        <pt x="2929" y="215" on="0"/>
      </contour>
      <contour>
        <pt x="2786" y="1591" on="1"/>
        <pt x="2776" y="1602" on="0"/>
        <pt x="2774" y="1615" on="1"/>
        <pt x="2738" y="1615" on="1"/>
        <pt x="2715" y="1593" on="0"/>
        <pt x="2715" y="1577" on="1"/>
        <pt x="2738" y="1565" on="0"/>
        <pt x="2772" y="1544" on="1"/>
      </contour>
      <contour>
        <pt x="2744" y="271" on="1"/>
        <pt x="2725" y="338" on="0"/>
        <pt x="2688" y="356" on="1"/>
        <pt x="2653" y="321" on="0"/>
        <pt x="2653" y="310" on="1"/>
        <pt x="2653" y="271" on="0"/>
      </contour>
      <contour>
        <pt x="2018" y="306" on="1"/>
        <pt x="2018" y="344" on="0"/>
        <pt x="2002" y="381" on="1"/>
        <pt x="1983" y="428" on="0"/>
        <pt x="1952" y="428" on="1"/>
        <pt x="1910" y="428" on="0"/>
        <pt x="1870" y="374" on="1"/>
        <pt x="1834" y="325" on="0"/>
        <pt x="1834" y="289" on="1"/>
        <pt x="1834" y="271" on="0"/>
        <pt x="1875" y="243" on="0"/>
        <pt x="1895" y="243" on="1"/>
        <pt x="1908" y="243" on="0"/>
        <pt x="1951" y="269" on="1"/>
        <pt x="2006" y="301" on="0"/>
      </contour>
      <contour>
        <pt x="984" y="1198" on="1"/>
        <pt x="966" y="1235" on="0"/>
        <pt x="935" y="1235" on="1"/>
        <pt x="935" y="1186" on="1"/>
      </contour>
      <contour>
        <pt x="665" y="1197" on="1"/>
        <pt x="665" y="1215" on="0"/>
        <pt x="655" y="1253" on="0"/>
        <pt x="655" y="1256" on="1"/>
        <pt x="644" y="1256" on="0"/>
        <pt x="611" y="1245" on="0"/>
        <pt x="607" y="1245" on="1"/>
        <pt x="607" y="1240" on="0"/>
        <pt x="617" y="1203" on="0"/>
        <pt x="617" y="1197" on="1"/>
      </contour>
    </TTGlyph>
    <TTGlyph name="gaffinalarabic" xMin="142" yMin="226" xMax="842" yMax="1588">
      <contour>
        <pt x="142" y="226" on="1"/>
        <pt x="142" y="1588" on="1"/>
        <pt x="842" y="1588" on="1"/>
        <pt x="842" y="226" on="1"/>
      </contour>
      <contour>
        <pt x="284" y="368" on="1"/>
        <pt x="700" y="368" on="1"/>
        <pt x="700" y="1447" on="1"/>
        <pt x="284" y="1447" on="1"/>
      </contour>
    </TTGlyph>
    <TTGlyph name="gafinitialarabic" xMin="142" yMin="226" xMax="842" yMax="1588">
      <contour>
        <pt x="142" y="226" on="1"/>
        <pt x="142" y="1588" on="1"/>
        <pt x="842" y="1588" on="1"/>
        <pt x="842" y="226" on="1"/>
      </contour>
      <contour>
        <pt x="284" y="368" on="1"/>
        <pt x="700" y="368" on="1"/>
        <pt x="700" y="1447" on="1"/>
        <pt x="284" y="1447" on="1"/>
      </contour>
    </TTGlyph>
    <TTGlyph name="gafmedialarabic" xMin="142" yMin="226" xMax="842" yMax="1588">
      <contour>
        <pt x="142" y="226" on="1"/>
        <pt x="142" y="1588" on="1"/>
        <pt x="842" y="1588" on="1"/>
        <pt x="842" y="226" on="1"/>
      </contour>
      <contour>
        <pt x="284" y="368" on="1"/>
        <pt x="700" y="368" on="1"/>
        <pt x="700" y="1447" on="1"/>
        <pt x="284" y="1447" on="1"/>
      </contour>
    </TTGlyph>
    <TTGlyph name="glyph41" xMin="142" yMin="226" xMax="842" yMax="1588">
      <contour>
        <pt x="142" y="226" on="1"/>
        <pt x="142" y="1588" on="1"/>
        <pt x="842" y="1588" on="1"/>
        <pt x="842" y="226" on="1"/>
      </contour>
      <contour>
        <pt x="284" y="368" on="1"/>
        <pt x="700" y="368" on="1"/>
        <pt x="700" y="1447" on="1"/>
        <pt x="284" y="1447" on="1"/>
      </contour>
    </TTGlyph>
    <TTGlyph name="glyph42" xMin="142" yMin="226" xMax="842" yMax="1588">
      <contour>
        <pt x="142" y="226" on="1"/>
        <pt x="142" y="1588" on="1"/>
        <pt x="842" y="1588" on="1"/>
        <pt x="842" y="226" on="1"/>
      </contour>
      <contour>
        <pt x="284" y="368" on="1"/>
        <pt x="700" y="368" on="1"/>
        <pt x="700" y="1447" on="1"/>
        <pt x="284" y="1447" on="1"/>
      </contour>
    </TTGlyph>
    <TTGlyph name="glyph43" xMin="142" yMin="226" xMax="842" yMax="1588">
      <contour>
        <pt x="142" y="226" on="1"/>
        <pt x="142" y="1588" on="1"/>
        <pt x="842" y="1588" on="1"/>
        <pt x="842" y="226" on="1"/>
      </contour>
      <contour>
        <pt x="284" y="368" on="1"/>
        <pt x="700" y="368" on="1"/>
        <pt x="700" y="1447" on="1"/>
        <pt x="284" y="1447" on="1"/>
      </contour>
    </TTGlyph>
    <TTGlyph name="glyph44" xMin="142" yMin="226" xMax="842" yMax="1588">
      <contour>
        <pt x="142" y="226" on="1"/>
        <pt x="142" y="1588" on="1"/>
        <pt x="842" y="1588" on="1"/>
        <pt x="842" y="226" on="1"/>
      </contour>
      <contour>
        <pt x="284" y="368" on="1"/>
        <pt x="700" y="368" on="1"/>
        <pt x="700" y="1447" on="1"/>
        <pt x="284" y="1447" on="1"/>
      </contour>
    </TTGlyph>
    <TTGlyph name="glyph45" xMin="142" yMin="226" xMax="842" yMax="1588">
      <contour>
        <pt x="142" y="226" on="1"/>
        <pt x="142" y="1588" on="1"/>
        <pt x="842" y="1588" on="1"/>
        <pt x="842" y="226" on="1"/>
      </contour>
      <contour>
        <pt x="284" y="368" on="1"/>
        <pt x="700" y="368" on="1"/>
        <pt x="700" y="1447" on="1"/>
        <pt x="284" y="1447" on="1"/>
      </contour>
    </TTGlyph>
    <TTGlyph name="glyph46" xMin="142" yMin="226" xMax="842" yMax="1588">
      <contour>
        <pt x="142" y="226" on="1"/>
        <pt x="142" y="1588" on="1"/>
        <pt x="842" y="1588" on="1"/>
        <pt x="842" y="226" on="1"/>
      </contour>
      <contour>
        <pt x="284" y="368" on="1"/>
        <pt x="700" y="368" on="1"/>
        <pt x="700" y="1447" on="1"/>
        <pt x="284" y="1447" on="1"/>
      </contour>
    </TTGlyph>
    <TTGlyph name="glyph47" xMin="142" yMin="226" xMax="842" yMax="1588">
      <contour>
        <pt x="142" y="226" on="1"/>
        <pt x="142" y="1588" on="1"/>
        <pt x="842" y="1588" on="1"/>
        <pt x="842" y="226" on="1"/>
      </contour>
      <contour>
        <pt x="284" y="368" on="1"/>
        <pt x="700" y="368" on="1"/>
        <pt x="700" y="1447" on="1"/>
        <pt x="284" y="1447" on="1"/>
      </contour>
    </TTGlyph>
    <TTGlyph name="glyph48" xMin="142" yMin="226" xMax="842" yMax="1588">
      <contour>
        <pt x="142" y="226" on="1"/>
        <pt x="142" y="1588" on="1"/>
        <pt x="842" y="1588" on="1"/>
        <pt x="842" y="226" on="1"/>
      </contour>
      <contour>
        <pt x="284" y="368" on="1"/>
        <pt x="700" y="368" on="1"/>
        <pt x="700" y="1447" on="1"/>
        <pt x="284" y="1447" on="1"/>
      </contour>
    </TTGlyph>
    <TTGlyph name="glyph50" xMin="142" yMin="226" xMax="842" yMax="1588">
      <contour>
        <pt x="142" y="226" on="1"/>
        <pt x="142" y="1588" on="1"/>
        <pt x="842" y="1588" on="1"/>
        <pt x="842" y="226" on="1"/>
      </contour>
      <contour>
        <pt x="284" y="368" on="1"/>
        <pt x="700" y="368" on="1"/>
        <pt x="700" y="1447" on="1"/>
        <pt x="284" y="1447" on="1"/>
      </contour>
    </TTGlyph>
    <TTGlyph name="glyph51" xMin="142" yMin="226" xMax="842" yMax="1588">
      <contour>
        <pt x="142" y="226" on="1"/>
        <pt x="142" y="1588" on="1"/>
        <pt x="842" y="1588" on="1"/>
        <pt x="842" y="226" on="1"/>
      </contour>
      <contour>
        <pt x="284" y="368" on="1"/>
        <pt x="700" y="368" on="1"/>
        <pt x="700" y="1447" on="1"/>
        <pt x="284" y="1447" on="1"/>
      </contour>
    </TTGlyph>
    <TTGlyph name="greater" xMin="142" yMin="226" xMax="842" yMax="1588">
      <contour>
        <pt x="142" y="226" on="1"/>
        <pt x="142" y="1588" on="1"/>
        <pt x="842" y="1588" on="1"/>
        <pt x="842" y="226" on="1"/>
      </contour>
      <contour>
        <pt x="284" y="368" on="1"/>
        <pt x="700" y="368" on="1"/>
        <pt x="700" y="1447" on="1"/>
        <pt x="284" y="1447" on="1"/>
      </contour>
    </TTGlyph>
    <TTGlyph name="hahhamzabovefinal" xMin="142" yMin="226" xMax="842" yMax="1588">
      <contour>
        <pt x="142" y="226" on="1"/>
        <pt x="142" y="1588" on="1"/>
        <pt x="842" y="1588" on="1"/>
        <pt x="842" y="226" on="1"/>
      </contour>
      <contour>
        <pt x="284" y="368" on="1"/>
        <pt x="700" y="368" on="1"/>
        <pt x="700" y="1447" on="1"/>
        <pt x="284" y="1447" on="1"/>
      </contour>
    </TTGlyph>
    <TTGlyph name="hahhamzaboveinitial" xMin="142" yMin="226" xMax="842" yMax="1588">
      <contour>
        <pt x="142" y="226" on="1"/>
        <pt x="142" y="1588" on="1"/>
        <pt x="842" y="1588" on="1"/>
        <pt x="842" y="226" on="1"/>
      </contour>
      <contour>
        <pt x="284" y="368" on="1"/>
        <pt x="700" y="368" on="1"/>
        <pt x="700" y="1447" on="1"/>
        <pt x="284" y="1447" on="1"/>
      </contour>
    </TTGlyph>
    <TTGlyph name="hahhamzabovemedial" xMin="142" yMin="226" xMax="842" yMax="1588">
      <contour>
        <pt x="142" y="226" on="1"/>
        <pt x="142" y="1588" on="1"/>
        <pt x="842" y="1588" on="1"/>
        <pt x="842" y="226" on="1"/>
      </contour>
      <contour>
        <pt x="284" y="368" on="1"/>
        <pt x="700" y="368" on="1"/>
        <pt x="700" y="1447" on="1"/>
        <pt x="284" y="1447" on="1"/>
      </contour>
    </TTGlyph>
    <TTGlyph name="hahthreedotsabovefinal" xMin="142" yMin="226" xMax="842" yMax="1588">
      <contour>
        <pt x="142" y="226" on="1"/>
        <pt x="142" y="1588" on="1"/>
        <pt x="842" y="1588" on="1"/>
        <pt x="842" y="226" on="1"/>
      </contour>
      <contour>
        <pt x="284" y="368" on="1"/>
        <pt x="700" y="368" on="1"/>
        <pt x="700" y="1447" on="1"/>
        <pt x="284" y="1447" on="1"/>
      </contour>
    </TTGlyph>
    <TTGlyph name="hahthreedotsaboveinitial" xMin="142" yMin="226" xMax="842" yMax="1588">
      <contour>
        <pt x="142" y="226" on="1"/>
        <pt x="142" y="1588" on="1"/>
        <pt x="842" y="1588" on="1"/>
        <pt x="842" y="226" on="1"/>
      </contour>
      <contour>
        <pt x="284" y="368" on="1"/>
        <pt x="700" y="368" on="1"/>
        <pt x="700" y="1447" on="1"/>
        <pt x="284" y="1447" on="1"/>
      </contour>
    </TTGlyph>
    <TTGlyph name="hahthreedotsabovemedial" xMin="142" yMin="226" xMax="842" yMax="1588">
      <contour>
        <pt x="142" y="226" on="1"/>
        <pt x="142" y="1588" on="1"/>
        <pt x="842" y="1588" on="1"/>
        <pt x="842" y="226" on="1"/>
      </contour>
      <contour>
        <pt x="284" y="368" on="1"/>
        <pt x="700" y="368" on="1"/>
        <pt x="700" y="1447" on="1"/>
        <pt x="284" y="1447" on="1"/>
      </contour>
    </TTGlyph>
    <TTGlyph name="hehdoachashmeefinalarabic" xMin="142" yMin="226" xMax="842" yMax="1588">
      <contour>
        <pt x="142" y="226" on="1"/>
        <pt x="142" y="1588" on="1"/>
        <pt x="842" y="1588" on="1"/>
        <pt x="842" y="226" on="1"/>
      </contour>
      <contour>
        <pt x="284" y="368" on="1"/>
        <pt x="700" y="368" on="1"/>
        <pt x="700" y="1447" on="1"/>
        <pt x="284" y="1447" on="1"/>
      </contour>
    </TTGlyph>
    <TTGlyph name="hehdoachashmeeinitialarabic" xMin="142" yMin="226" xMax="842" yMax="1588">
      <contour>
        <pt x="142" y="226" on="1"/>
        <pt x="142" y="1588" on="1"/>
        <pt x="842" y="1588" on="1"/>
        <pt x="842" y="226" on="1"/>
      </contour>
      <contour>
        <pt x="284" y="368" on="1"/>
        <pt x="700" y="368" on="1"/>
        <pt x="700" y="1447" on="1"/>
        <pt x="284" y="1447" on="1"/>
      </contour>
    </TTGlyph>
    <TTGlyph name="hehdoachashmeemedialarabic" xMin="142" yMin="226" xMax="842" yMax="1588">
      <contour>
        <pt x="142" y="226" on="1"/>
        <pt x="142" y="1588" on="1"/>
        <pt x="842" y="1588" on="1"/>
        <pt x="842" y="226" on="1"/>
      </contour>
      <contour>
        <pt x="284" y="368" on="1"/>
        <pt x="700" y="368" on="1"/>
        <pt x="700" y="1447" on="1"/>
        <pt x="284" y="1447" on="1"/>
      </contour>
    </TTGlyph>
    <TTGlyph name="hehfinalaltonearabic" xMin="142" yMin="226" xMax="842" yMax="1588">
      <contour>
        <pt x="142" y="226" on="1"/>
        <pt x="142" y="1588" on="1"/>
        <pt x="842" y="1588" on="1"/>
        <pt x="842" y="226" on="1"/>
      </contour>
      <contour>
        <pt x="284" y="368" on="1"/>
        <pt x="700" y="368" on="1"/>
        <pt x="700" y="1447" on="1"/>
        <pt x="284" y="1447" on="1"/>
      </contour>
    </TTGlyph>
    <TTGlyph name="hehhamzaabovefinalarabic" xMin="142" yMin="226" xMax="842" yMax="1588">
      <contour>
        <pt x="142" y="226" on="1"/>
        <pt x="142" y="1588" on="1"/>
        <pt x="842" y="1588" on="1"/>
        <pt x="842" y="226" on="1"/>
      </contour>
      <contour>
        <pt x="284" y="368" on="1"/>
        <pt x="700" y="368" on="1"/>
        <pt x="700" y="1447" on="1"/>
        <pt x="284" y="1447" on="1"/>
      </contour>
    </TTGlyph>
    <TTGlyph name="hehinitialaltonearabic" xMin="142" yMin="226" xMax="842" yMax="1588">
      <contour>
        <pt x="142" y="226" on="1"/>
        <pt x="142" y="1588" on="1"/>
        <pt x="842" y="1588" on="1"/>
        <pt x="842" y="226" on="1"/>
      </contour>
      <contour>
        <pt x="284" y="368" on="1"/>
        <pt x="700" y="368" on="1"/>
        <pt x="700" y="1447" on="1"/>
        <pt x="284" y="1447" on="1"/>
      </contour>
    </TTGlyph>
    <TTGlyph name="hehmedialaltonearabic" xMin="142" yMin="226" xMax="842" yMax="1588">
      <contour>
        <pt x="142" y="226" on="1"/>
        <pt x="142" y="1588" on="1"/>
        <pt x="842" y="1588" on="1"/>
        <pt x="842" y="226" on="1"/>
      </contour>
      <contour>
        <pt x="284" y="368" on="1"/>
        <pt x="700" y="368" on="1"/>
        <pt x="700" y="1447" on="1"/>
        <pt x="284" y="1447" on="1"/>
      </contour>
    </TTGlyph>
    <TTGlyph name="hyphen" xMin="298" yMin="-1056" xMax="2960" yMax="1759">
      <contour>
        <pt x="2253" y="-258" on="1"/>
        <pt x="2253" y="-311" on="0"/>
        <pt x="2210" y="-336" on="1"/>
        <pt x="2099" y="-402" on="0"/>
        <pt x="1765" y="-565" on="0"/>
        <pt x="1746" y="-564" on="1"/>
        <pt x="1681" y="-564" on="1"/>
        <pt x="1681" y="-510" on="1"/>
        <pt x="1681" y="-474" on="0"/>
        <pt x="1850" y="-392" on="1"/>
        <pt x="1956" y="-342" on="0"/>
        <pt x="2062" y="-293" on="1"/>
        <pt x="2175" y="-227" on="0"/>
        <pt x="2199" y="-227" on="1"/>
        <pt x="2241" y="-227" on="1"/>
        <pt x="2253" y="-240" on="0"/>
      </contour>
      <contour>
        <pt x="1506" y="-335" on="1"/>
        <pt x="1506" y="-365" on="0"/>
        <pt x="1453" y="-406" on="1"/>
        <pt x="1406" y="-442" on="0"/>
        <pt x="1388" y="-442" on="1"/>
        <pt x="1371" y="-442" on="0"/>
        <pt x="1319" y="-401" on="0"/>
        <pt x="1306" y="-401" on="1"/>
        <pt x="1294" y="-401" on="0"/>
        <pt x="1217" y="-462" on="0"/>
        <pt x="1204" y="-462" on="1"/>
        <pt x="1164" y="-462" on="0"/>
        <pt x="1129" y="-430" on="1"/>
        <pt x="1097" y="-400" on="0"/>
        <pt x="1097" y="-376" on="1"/>
        <pt x="1097" y="-335" on="0"/>
        <pt x="1129" y="-300" on="1"/>
        <pt x="1159" y="-268" on="0"/>
        <pt x="1189" y="-268" on="1"/>
        <pt x="1200" y="-268" on="0"/>
        <pt x="1258" y="-299" on="0"/>
        <pt x="1271" y="-299" on="1"/>
        <pt x="1283" y="-299" on="0"/>
        <pt x="1365" y="-227" on="0"/>
        <pt x="1379" y="-227" on="1"/>
        <pt x="1398" y="-227" on="0"/>
        <pt x="1506" y="-316" on="0"/>
      </contour>
      <contour>
        <pt x="2960" y="1385" on="1"/>
        <pt x="2960" y="1367" on="0"/>
        <pt x="2923" y="1329" on="0"/>
        <pt x="2904" y="1329" on="1"/>
        <pt x="2892" y="1329" on="0"/>
        <pt x="2815" y="1370" on="0"/>
        <pt x="2801" y="1370" on="1"/>
        <pt x="2811" y="1370" on="0"/>
        <pt x="2437" y="1103" on="0"/>
        <pt x="2371" y="1103" on="1"/>
        <pt x="2339" y="1103" on="0"/>
        <pt x="2326" y="1117" on="1"/>
        <pt x="2326" y="1125" on="0"/>
        <pt x="2329" y="1142" on="1"/>
        <pt x="2450" y="1228" on="0"/>
        <pt x="2694" y="1416" on="1"/>
        <pt x="2688" y="1425" on="0"/>
        <pt x="2637" y="1480" on="1"/>
        <pt x="2602" y="1518" on="0"/>
        <pt x="2602" y="1538" on="1"/>
        <pt x="2602" y="1577" on="0"/>
        <pt x="2662" y="1661" on="1"/>
        <pt x="2731" y="1759" on="0"/>
        <pt x="2792" y="1759" on="1"/>
        <pt x="2874" y="1759" on="0"/>
        <pt x="2874" y="1625" on="1"/>
        <pt x="2874" y="1556" on="0"/>
        <pt x="2860" y="1511" on="1"/>
        <pt x="2892" y="1479" on="0"/>
        <pt x="2924" y="1448" on="1"/>
        <pt x="2960" y="1413" on="0"/>
      </contour>
      <contour>
        <pt x="2929" y="1083" on="1"/>
        <pt x="2929" y="996" on="0"/>
        <pt x="2836" y="913" on="1"/>
        <pt x="2823" y="902" on="0"/>
        <pt x="2782" y="891" on="1"/>
        <pt x="2730" y="878" on="0"/>
        <pt x="2722" y="875" on="1"/>
        <pt x="2634" y="837" on="0"/>
        <pt x="2628" y="837" on="1"/>
        <pt x="2596" y="837" on="0"/>
        <pt x="2551" y="886" on="0"/>
        <pt x="2551" y="919" on="1"/>
        <pt x="2551" y="938" on="0"/>
        <pt x="2604" y="1072" on="1"/>
        <pt x="2609" y="1072" on="0"/>
        <pt x="2635" y="1082" on="0"/>
        <pt x="2640" y="1082" on="1"/>
        <pt x="2660" y="1049" on="0"/>
        <pt x="2643" y="997" on="1"/>
        <pt x="2659" y="981" on="0"/>
        <pt x="2674" y="981" on="1"/>
        <pt x="2700" y="981" on="0"/>
        <pt x="2720" y="1036" on="1"/>
        <pt x="2729" y="1067" on="0"/>
        <pt x="2739" y="1098" on="1"/>
        <pt x="2744" y="1101" on="0"/>
        <pt x="2759" y="1113" on="1"/>
        <pt x="2789" y="1113" on="0"/>
        <pt x="2799" y="1082" on="1"/>
        <pt x="2806" y="1057" on="0"/>
        <pt x="2814" y="1031" on="1"/>
        <pt x="2842" y="1037" on="0"/>
        <pt x="2854" y="1081" on="1"/>
        <pt x="2869" y="1139" on="0"/>
        <pt x="2883" y="1154" on="1"/>
        <pt x="2929" y="1128" on="0"/>
      </contour>
      <contour>
        <pt x="2090" y="914" on="1"/>
        <pt x="2090" y="878" on="0"/>
        <pt x="2046" y="840" on="1"/>
        <pt x="2008" y="807" on="0"/>
        <pt x="1988" y="807" on="1"/>
        <pt x="1978" y="807" on="0"/>
        <pt x="1924" y="837" on="0"/>
        <pt x="1911" y="837" on="1"/>
        <pt x="1898" y="837" on="0"/>
        <pt x="1816" y="776" on="0"/>
        <pt x="1804" y="776" on="1"/>
        <pt x="1776" y="776" on="0"/>
        <pt x="1691" y="838" on="0"/>
        <pt x="1691" y="863" on="1"/>
        <pt x="1691" y="889" on="0"/>
        <pt x="1735" y="931" on="1"/>
        <pt x="1777" y="971" on="0"/>
        <pt x="1793" y="971" on="1"/>
        <pt x="1806" y="971" on="0"/>
        <pt x="1868" y="930" on="0"/>
        <pt x="1880" y="930" on="1"/>
        <pt x="1893" y="930" on="0"/>
        <pt x="1970" y="1001" on="0"/>
        <pt x="1982" y="1001" on="1"/>
        <pt x="2007" y="1001" on="0"/>
        <pt x="2046" y="974" on="1"/>
        <pt x="2090" y="945" on="0"/>
      </contour>
      <contour>
        <pt x="1117" y="1037" on="1"/>
        <pt x="1117" y="995" on="0"/>
        <pt x="1083" y="960" on="1"/>
        <pt x="1073" y="963" on="0"/>
        <pt x="1031" y="985" on="1"/>
        <pt x="999" y="1001" on="0"/>
        <pt x="984" y="1001" on="1"/>
        <pt x="989" y="1001" on="0"/>
        <pt x="844" y="888" on="1"/>
        <pt x="691" y="768" on="0"/>
        <pt x="578" y="745" on="1"/>
        <pt x="554" y="769" on="0"/>
        <pt x="554" y="781" on="1"/>
        <pt x="554" y="795" on="0"/>
        <pt x="675" y="891" on="1"/>
        <pt x="824" y="1011" on="0"/>
        <pt x="871" y="1058" on="1"/>
        <pt x="859" y="1094" on="0"/>
        <pt x="830" y="1108" on="1"/>
        <pt x="810" y="1118" on="0"/>
        <pt x="810" y="1170" on="1"/>
        <pt x="810" y="1220" on="0"/>
        <pt x="860" y="1294" on="1"/>
        <pt x="918" y="1380" on="0"/>
        <pt x="984" y="1380" on="1"/>
        <pt x="1059" y="1380" on="0"/>
        <pt x="1059" y="1253" on="1"/>
        <pt x="1059" y="1218" on="0"/>
        <pt x="1053" y="1173" on="1"/>
        <pt x="1048" y="1131" on="0"/>
        <pt x="1048" y="1131" on="1"/>
        <pt x="1117" y="1055" on="0"/>
      </contour>
      <contour>
        <pt x="800" y="1067" on="1"/>
        <pt x="800" y="1036" on="0"/>
        <pt x="755" y="991" on="1"/>
        <pt x="694" y="1022" on="0"/>
        <pt x="677" y="1022" on="1"/>
        <pt x="687" y="1022" on="0"/>
        <pt x="404" y="786" on="0"/>
        <pt x="345" y="786" on="1"/>
        <pt x="313" y="786" on="0"/>
        <pt x="298" y="800" on="1"/>
        <pt x="319" y="845" on="0"/>
        <pt x="417" y="921" on="1"/>
        <pt x="537" y="1016" on="0"/>
        <pt x="575" y="1058" on="1"/>
        <pt x="503" y="1142" on="0"/>
        <pt x="503" y="1185" on="1"/>
        <pt x="503" y="1237" on="0"/>
        <pt x="547" y="1306" on="1"/>
        <pt x="600" y="1390" on="0"/>
        <pt x="672" y="1390" on="1"/>
        <pt x="755" y="1390" on="0"/>
        <pt x="755" y="1262" on="1"/>
        <pt x="755" y="1259" on="0"/>
        <pt x="731" y="1161" on="1"/>
        <pt x="800" y="1085" on="0"/>
      </contour>
      <contour>
        <pt x="2929" y="182" on="1"/>
        <pt x="2929" y="145" on="0"/>
        <pt x="2867" y="59" on="0"/>
        <pt x="2842" y="59" on="1"/>
        <pt x="2771" y="59" on="1"/>
        <pt x="2708" y="59" on="0"/>
        <pt x="2547" y="152" on="1"/>
        <pt x="2430" y="-32" on="0"/>
        <pt x="2269" y="-32" on="1"/>
        <pt x="2187" y="-32" on="1"/>
        <pt x="2085" y="-32" on="0"/>
        <pt x="1961" y="1" on="1"/>
        <pt x="1948" y="4" on="0"/>
        <pt x="1893" y="29" on="1"/>
        <pt x="1848" y="49" on="0"/>
        <pt x="1829" y="49" on="1"/>
        <pt x="1816" y="49" on="0"/>
        <pt x="1535" y="-12" on="0"/>
        <pt x="1522" y="-12" on="1"/>
        <pt x="1415" y="-12" on="0"/>
        <pt x="1348" y="41" on="1"/>
        <pt x="1312" y="69" on="0"/>
        <pt x="1265" y="139" on="1"/>
        <pt x="1230" y="193" on="0"/>
        <pt x="1204" y="193" on="1"/>
        <pt x="1136" y="193" on="0"/>
        <pt x="889" y="97" on="1"/>
        <pt x="862" y="87" on="0"/>
        <pt x="841" y="65" on="1"/>
        <pt x="906" y="18" on="0"/>
        <pt x="1055" y="-63" on="1"/>
        <pt x="1059" y="-72" on="0"/>
        <pt x="1059" y="-86" on="1"/>
        <pt x="1059" y="-131" on="0"/>
        <pt x="1032" y="-176" on="1"/>
        <pt x="1003" y="-227" on="0"/>
        <pt x="964" y="-227" on="1"/>
        <pt x="951" y="-227" on="0"/>
        <pt x="849" y="-217" on="0"/>
        <pt x="836" y="-217" on="1"/>
        <pt x="811" y="-217" on="0"/>
        <pt x="744" y="-231" on="1"/>
        <pt x="657" y="-249" on="0"/>
        <pt x="566" y="-297" on="1"/>
        <pt x="564" y="-303" on="0"/>
        <pt x="564" y="-349" on="1"/>
        <pt x="646" y="-949" on="1"/>
        <pt x="635" y="-987" on="0"/>
        <pt x="602" y="-1056" on="1"/>
        <pt x="555" y="-1037" on="0"/>
        <pt x="547" y="-991" on="1"/>
        <pt x="522" y="-860" on="0"/>
        <pt x="491" y="-635" on="1"/>
        <pt x="462" y="-430" on="0"/>
        <pt x="462" y="-406" on="1"/>
        <pt x="462" y="-290" on="0"/>
        <pt x="513" y="-216" on="1"/>
        <pt x="554" y="-157" on="0"/>
        <pt x="667" y="-78" on="1"/>
        <pt x="659" y="-72" on="0"/>
        <pt x="634" y="-82" on="1"/>
        <pt x="590" y="-99" on="0"/>
        <pt x="577" y="-103" on="1"/>
        <pt x="577" y="-99" on="0"/>
        <pt x="564" y="-83" on="0"/>
        <pt x="564" y="-68" on="1"/>
        <pt x="564" y="31" on="0"/>
        <pt x="833" y="218" on="1"/>
        <pt x="898" y="263" on="0"/>
        <pt x="1184" y="356" on="0"/>
        <pt x="1261" y="356" on="1"/>
        <pt x="1313" y="356" on="0"/>
        <pt x="1347" y="331" on="1"/>
        <pt x="1359" y="304" on="0"/>
        <pt x="1385" y="251" on="1"/>
        <pt x="1436" y="161" on="0"/>
        <pt x="1552" y="161" on="1"/>
        <pt x="1596" y="161" on="0"/>
        <pt x="1655" y="172" on="1"/>
        <pt x="1721" y="184" on="0"/>
        <pt x="1728" y="198" on="1"/>
        <pt x="1723" y="318" on="0"/>
        <pt x="1793" y="451" on="1"/>
        <pt x="1873" y="602" on="0"/>
        <pt x="1982" y="602" on="1"/>
        <pt x="2066" y="602" on="0"/>
        <pt x="2108" y="505" on="1"/>
        <pt x="2141" y="432" on="0"/>
        <pt x="2141" y="336" on="1"/>
        <pt x="2141" y="297" on="0"/>
        <pt x="2123" y="268" on="1"/>
        <pt x="2096" y="227" on="0"/>
        <pt x="2069" y="186" on="1"/>
        <pt x="2078" y="141" on="0"/>
        <pt x="2239" y="141" on="1"/>
        <pt x="2353" y="141" on="0"/>
        <pt x="2478" y="217" on="0"/>
        <pt x="2534" y="323" on="1"/>
        <pt x="2555" y="363" on="0"/>
        <pt x="2616" y="437" on="1"/>
        <pt x="2693" y="530" on="0"/>
        <pt x="2730" y="530" on="1"/>
        <pt x="2751" y="530" on="0"/>
        <pt x="2811" y="488" on="1"/>
        <pt x="2824" y="479" on="0"/>
        <pt x="2876" y="349" on="1"/>
        <pt x="2929" y="215" on="0"/>
      </contour>
      <contour>
        <pt x="2786" y="1591" on="1"/>
        <pt x="2776" y="1602" on="0"/>
        <pt x="2774" y="1615" on="1"/>
        <pt x="2738" y="1615" on="1"/>
        <pt x="2715" y="1593" on="0"/>
        <pt x="2715" y="1577" on="1"/>
        <pt x="2738" y="1565" on="0"/>
        <pt x="2772" y="1544" on="1"/>
      </contour>
      <contour>
        <pt x="2744" y="271" on="1"/>
        <pt x="2725" y="338" on="0"/>
        <pt x="2688" y="356" on="1"/>
        <pt x="2653" y="321" on="0"/>
        <pt x="2653" y="310" on="1"/>
        <pt x="2653" y="271" on="0"/>
      </contour>
      <contour>
        <pt x="2018" y="306" on="1"/>
        <pt x="2018" y="344" on="0"/>
        <pt x="2002" y="381" on="1"/>
        <pt x="1983" y="428" on="0"/>
        <pt x="1952" y="428" on="1"/>
        <pt x="1910" y="428" on="0"/>
        <pt x="1870" y="374" on="1"/>
        <pt x="1834" y="325" on="0"/>
        <pt x="1834" y="289" on="1"/>
        <pt x="1834" y="271" on="0"/>
        <pt x="1875" y="243" on="0"/>
        <pt x="1895" y="243" on="1"/>
        <pt x="1908" y="243" on="0"/>
        <pt x="1951" y="269" on="1"/>
        <pt x="2006" y="301" on="0"/>
      </contour>
      <contour>
        <pt x="984" y="1198" on="1"/>
        <pt x="966" y="1235" on="0"/>
        <pt x="935" y="1235" on="1"/>
        <pt x="935" y="1186" on="1"/>
      </contour>
      <contour>
        <pt x="665" y="1197" on="1"/>
        <pt x="665" y="1215" on="0"/>
        <pt x="655" y="1253" on="0"/>
        <pt x="655" y="1256" on="1"/>
        <pt x="644" y="1256" on="0"/>
        <pt x="611" y="1245" on="0"/>
        <pt x="607" y="1245" on="1"/>
        <pt x="607" y="1240" on="0"/>
        <pt x="617" y="1203" on="0"/>
        <pt x="617" y="1197" on="1"/>
      </contour>
    </TTGlyph>
    <TTGlyph name="irghizufinal" xMin="142" yMin="226" xMax="842" yMax="1588">
      <contour>
        <pt x="142" y="226" on="1"/>
        <pt x="142" y="1588" on="1"/>
        <pt x="842" y="1588" on="1"/>
        <pt x="842" y="226" on="1"/>
      </contour>
      <contour>
        <pt x="284" y="368" on="1"/>
        <pt x="700" y="368" on="1"/>
        <pt x="700" y="1447" on="1"/>
        <pt x="284" y="1447" on="1"/>
      </contour>
    </TTGlyph>
    <TTGlyph name="jehfinalarabic" xMin="142" yMin="226" xMax="842" yMax="1588">
      <contour>
        <pt x="142" y="226" on="1"/>
        <pt x="142" y="1588" on="1"/>
        <pt x="842" y="1588" on="1"/>
        <pt x="842" y="226" on="1"/>
      </contour>
      <contour>
        <pt x="284" y="368" on="1"/>
        <pt x="700" y="368" on="1"/>
        <pt x="700" y="1447" on="1"/>
        <pt x="284" y="1447" on="1"/>
      </contour>
    </TTGlyph>
    <TTGlyph name="kafringfinal" xMin="142" yMin="226" xMax="842" yMax="1588">
      <contour>
        <pt x="142" y="226" on="1"/>
        <pt x="142" y="1588" on="1"/>
        <pt x="842" y="1588" on="1"/>
        <pt x="842" y="226" on="1"/>
      </contour>
      <contour>
        <pt x="284" y="368" on="1"/>
        <pt x="700" y="368" on="1"/>
        <pt x="700" y="1447" on="1"/>
        <pt x="284" y="1447" on="1"/>
      </contour>
    </TTGlyph>
    <TTGlyph name="kafringinitial" xMin="142" yMin="226" xMax="842" yMax="1588">
      <contour>
        <pt x="142" y="226" on="1"/>
        <pt x="142" y="1588" on="1"/>
        <pt x="842" y="1588" on="1"/>
        <pt x="842" y="226" on="1"/>
      </contour>
      <contour>
        <pt x="284" y="368" on="1"/>
        <pt x="700" y="368" on="1"/>
        <pt x="700" y="1447" on="1"/>
        <pt x="284" y="1447" on="1"/>
      </contour>
    </TTGlyph>
    <TTGlyph name="kafringmedial" xMin="142" yMin="226" xMax="842" yMax="1588">
      <contour>
        <pt x="142" y="226" on="1"/>
        <pt x="142" y="1588" on="1"/>
        <pt x="842" y="1588" on="1"/>
        <pt x="842" y="226" on="1"/>
      </contour>
      <contour>
        <pt x="284" y="368" on="1"/>
        <pt x="700" y="368" on="1"/>
        <pt x="700" y="1447" on="1"/>
        <pt x="284" y="1447" on="1"/>
      </contour>
    </TTGlyph>
    <TTGlyph name="kashidaautoarabic" xMin="142" yMin="226" xMax="842" yMax="1588">
      <contour>
        <pt x="142" y="226" on="1"/>
        <pt x="142" y="1588" on="1"/>
        <pt x="842" y="1588" on="1"/>
        <pt x="842" y="226" on="1"/>
      </contour>
      <contour>
        <pt x="284" y="368" on="1"/>
        <pt x="700" y="368" on="1"/>
        <pt x="700" y="1447" on="1"/>
        <pt x="284" y="1447" on="1"/>
      </contour>
    </TTGlyph>
    <TTGlyph name="kashidaautonosidebearingarabic" xMin="142" yMin="226" xMax="842" yMax="1588">
      <contour>
        <pt x="142" y="226" on="1"/>
        <pt x="142" y="1588" on="1"/>
        <pt x="842" y="1588" on="1"/>
        <pt x="842" y="226" on="1"/>
      </contour>
      <contour>
        <pt x="284" y="368" on="1"/>
        <pt x="700" y="368" on="1"/>
        <pt x="700" y="1447" on="1"/>
        <pt x="284" y="1447" on="1"/>
      </contour>
    </TTGlyph>
    <TTGlyph name="kehehfinalarabic" xMin="142" yMin="226" xMax="842" yMax="1588">
      <contour>
        <pt x="142" y="226" on="1"/>
        <pt x="142" y="1588" on="1"/>
        <pt x="842" y="1588" on="1"/>
        <pt x="842" y="226" on="1"/>
      </contour>
      <contour>
        <pt x="284" y="368" on="1"/>
        <pt x="700" y="368" on="1"/>
        <pt x="700" y="1447" on="1"/>
        <pt x="284" y="1447" on="1"/>
      </contour>
    </TTGlyph>
    <TTGlyph name="kehehinitialarabic" xMin="142" yMin="226" xMax="842" yMax="1588">
      <contour>
        <pt x="142" y="226" on="1"/>
        <pt x="142" y="1588" on="1"/>
        <pt x="842" y="1588" on="1"/>
        <pt x="842" y="226" on="1"/>
      </contour>
      <contour>
        <pt x="284" y="368" on="1"/>
        <pt x="700" y="368" on="1"/>
        <pt x="700" y="1447" on="1"/>
        <pt x="284" y="1447" on="1"/>
      </contour>
    </TTGlyph>
    <TTGlyph name="kehehmedialarabic" xMin="142" yMin="226" xMax="842" yMax="1588">
      <contour>
        <pt x="142" y="226" on="1"/>
        <pt x="142" y="1588" on="1"/>
        <pt x="842" y="1588" on="1"/>
        <pt x="842" y="226" on="1"/>
      </contour>
      <contour>
        <pt x="284" y="368" on="1"/>
        <pt x="700" y="368" on="1"/>
        <pt x="700" y="1447" on="1"/>
        <pt x="284" y="1447" on="1"/>
      </contour>
    </TTGlyph>
    <TTGlyph name="kirghizyifinal" xMin="142" yMin="226" xMax="842" yMax="1588">
      <contour>
        <pt x="142" y="226" on="1"/>
        <pt x="142" y="1588" on="1"/>
        <pt x="842" y="1588" on="1"/>
        <pt x="842" y="226" on="1"/>
      </contour>
      <contour>
        <pt x="284" y="368" on="1"/>
        <pt x="700" y="368" on="1"/>
        <pt x="700" y="1447" on="1"/>
        <pt x="284" y="1447" on="1"/>
      </contour>
    </TTGlyph>
    <TTGlyph name="lammeemjeeminitialarabic" xMin="142" yMin="226" xMax="842" yMax="1588">
      <contour>
        <pt x="142" y="226" on="1"/>
        <pt x="142" y="1588" on="1"/>
        <pt x="842" y="1588" on="1"/>
        <pt x="842" y="226" on="1"/>
      </contour>
      <contour>
        <pt x="284" y="368" on="1"/>
        <pt x="700" y="368" on="1"/>
        <pt x="700" y="1447" on="1"/>
        <pt x="284" y="1447" on="1"/>
      </contour>
    </TTGlyph>
    <TTGlyph name="lammeemkhahinitialarabic" xMin="142" yMin="226" xMax="842" yMax="1588">
      <contour>
        <pt x="142" y="226" on="1"/>
        <pt x="142" y="1588" on="1"/>
        <pt x="842" y="1588" on="1"/>
        <pt x="842" y="226" on="1"/>
      </contour>
      <contour>
        <pt x="284" y="368" on="1"/>
        <pt x="700" y="368" on="1"/>
        <pt x="700" y="1447" on="1"/>
        <pt x="284" y="1447" on="1"/>
      </contour>
    </TTGlyph>
    <TTGlyph name="lamthreedotsabovefinal" xMin="142" yMin="226" xMax="842" yMax="1588">
      <contour>
        <pt x="142" y="226" on="1"/>
        <pt x="142" y="1588" on="1"/>
        <pt x="842" y="1588" on="1"/>
        <pt x="842" y="226" on="1"/>
      </contour>
      <contour>
        <pt x="284" y="368" on="1"/>
        <pt x="700" y="368" on="1"/>
        <pt x="700" y="1447" on="1"/>
        <pt x="284" y="1447" on="1"/>
      </contour>
    </TTGlyph>
    <TTGlyph name="lamthreedotsaboveinitial" xMin="142" yMin="226" xMax="842" yMax="1588">
      <contour>
        <pt x="142" y="226" on="1"/>
        <pt x="142" y="1588" on="1"/>
        <pt x="842" y="1588" on="1"/>
        <pt x="842" y="226" on="1"/>
      </contour>
      <contour>
        <pt x="284" y="368" on="1"/>
        <pt x="700" y="368" on="1"/>
        <pt x="700" y="1447" on="1"/>
        <pt x="284" y="1447" on="1"/>
      </contour>
    </TTGlyph>
    <TTGlyph name="lamthreedotsabovemedial" xMin="142" yMin="226" xMax="842" yMax="1588">
      <contour>
        <pt x="142" y="226" on="1"/>
        <pt x="142" y="1588" on="1"/>
        <pt x="842" y="1588" on="1"/>
        <pt x="842" y="226" on="1"/>
      </contour>
      <contour>
        <pt x="284" y="368" on="1"/>
        <pt x="700" y="368" on="1"/>
        <pt x="700" y="1447" on="1"/>
        <pt x="284" y="1447" on="1"/>
      </contour>
    </TTGlyph>
    <TTGlyph name="less" xMin="142" yMin="226" xMax="842" yMax="1588">
      <contour>
        <pt x="142" y="226" on="1"/>
        <pt x="142" y="1588" on="1"/>
        <pt x="842" y="1588" on="1"/>
        <pt x="842" y="226" on="1"/>
      </contour>
      <contour>
        <pt x="284" y="368" on="1"/>
        <pt x="700" y="368" on="1"/>
        <pt x="700" y="1447" on="1"/>
        <pt x="284" y="1447" on="1"/>
      </contour>
    </TTGlyph>
    <TTGlyph name="meemmeemisolatedarabic" xMin="142" yMin="226" xMax="842" yMax="1588">
      <contour>
        <pt x="142" y="226" on="1"/>
        <pt x="142" y="1588" on="1"/>
        <pt x="842" y="1588" on="1"/>
        <pt x="842" y="226" on="1"/>
      </contour>
      <contour>
        <pt x="284" y="368" on="1"/>
        <pt x="700" y="368" on="1"/>
        <pt x="700" y="1447" on="1"/>
        <pt x="284" y="1447" on="1"/>
      </contour>
    </TTGlyph>
    <TTGlyph name="multiply" xMin="142" yMin="226" xMax="842" yMax="1588">
      <contour>
        <pt x="142" y="226" on="1"/>
        <pt x="142" y="1588" on="1"/>
        <pt x="842" y="1588" on="1"/>
        <pt x="842" y="226" on="1"/>
      </contour>
      <contour>
        <pt x="284" y="368" on="1"/>
        <pt x="700" y="368" on="1"/>
        <pt x="700" y="1447" on="1"/>
        <pt x="284" y="1447" on="1"/>
      </contour>
    </TTGlyph>
    <TTGlyph name="noonghunnafinalarabic" xMin="142" yMin="226" xMax="842" yMax="1588">
      <contour>
        <pt x="142" y="226" on="1"/>
        <pt x="142" y="1588" on="1"/>
        <pt x="842" y="1588" on="1"/>
        <pt x="842" y="226" on="1"/>
      </contour>
      <contour>
        <pt x="284" y="368" on="1"/>
        <pt x="700" y="368" on="1"/>
        <pt x="700" y="1447" on="1"/>
        <pt x="284" y="1447" on="1"/>
      </contour>
    </TTGlyph>
    <TTGlyph name="noonjeemisolatedarabic" xMin="142" yMin="226" xMax="842" yMax="1588">
      <contour>
        <pt x="142" y="226" on="1"/>
        <pt x="142" y="1588" on="1"/>
        <pt x="842" y="1588" on="1"/>
        <pt x="842" y="226" on="1"/>
      </contour>
      <contour>
        <pt x="284" y="368" on="1"/>
        <pt x="700" y="368" on="1"/>
        <pt x="700" y="1447" on="1"/>
        <pt x="284" y="1447" on="1"/>
      </contour>
    </TTGlyph>
    <TTGlyph name="noonmeemisolatedarabic" xMin="142" yMin="226" xMax="842" yMax="1588">
      <contour>
        <pt x="142" y="226" on="1"/>
        <pt x="142" y="1588" on="1"/>
        <pt x="842" y="1588" on="1"/>
        <pt x="842" y="226" on="1"/>
      </contour>
      <contour>
        <pt x="284" y="368" on="1"/>
        <pt x="700" y="368" on="1"/>
        <pt x="700" y="1447" on="1"/>
        <pt x="284" y="1447" on="1"/>
      </contour>
    </TTGlyph>
    <TTGlyph name="noonringfinal" xMin="142" yMin="226" xMax="842" yMax="1588">
      <contour>
        <pt x="142" y="226" on="1"/>
        <pt x="142" y="1588" on="1"/>
        <pt x="842" y="1588" on="1"/>
        <pt x="842" y="226" on="1"/>
      </contour>
      <contour>
        <pt x="284" y="368" on="1"/>
        <pt x="700" y="368" on="1"/>
        <pt x="700" y="1447" on="1"/>
        <pt x="284" y="1447" on="1"/>
      </contour>
    </TTGlyph>
    <TTGlyph name="noonringinitial" xMin="142" yMin="226" xMax="842" yMax="1588">
      <contour>
        <pt x="142" y="226" on="1"/>
        <pt x="142" y="1588" on="1"/>
        <pt x="842" y="1588" on="1"/>
        <pt x="842" y="226" on="1"/>
      </contour>
      <contour>
        <pt x="284" y="368" on="1"/>
        <pt x="700" y="368" on="1"/>
        <pt x="700" y="1447" on="1"/>
        <pt x="284" y="1447" on="1"/>
      </contour>
    </TTGlyph>
    <TTGlyph name="noonringmedial" xMin="142" yMin="226" xMax="842" yMax="1588">
      <contour>
        <pt x="142" y="226" on="1"/>
        <pt x="142" y="1588" on="1"/>
        <pt x="842" y="1588" on="1"/>
        <pt x="842" y="226" on="1"/>
      </contour>
      <contour>
        <pt x="284" y="368" on="1"/>
        <pt x="700" y="368" on="1"/>
        <pt x="700" y="1447" on="1"/>
        <pt x="284" y="1447" on="1"/>
      </contour>
    </TTGlyph>
    <TTGlyph name="numbersign" xMin="142" yMin="226" xMax="842" yMax="1588">
      <contour>
        <pt x="142" y="226" on="1"/>
        <pt x="142" y="1588" on="1"/>
        <pt x="842" y="1588" on="1"/>
        <pt x="842" y="226" on="1"/>
      </contour>
      <contour>
        <pt x="284" y="368" on="1"/>
        <pt x="700" y="368" on="1"/>
        <pt x="700" y="1447" on="1"/>
        <pt x="284" y="1447" on="1"/>
      </contour>
    </TTGlyph>
    <TTGlyph name="parenleft" xMin="142" yMin="226" xMax="842" yMax="1588">
      <contour>
        <pt x="142" y="226" on="1"/>
        <pt x="142" y="1588" on="1"/>
        <pt x="842" y="1588" on="1"/>
        <pt x="842" y="226" on="1"/>
      </contour>
      <contour>
        <pt x="284" y="368" on="1"/>
        <pt x="700" y="368" on="1"/>
        <pt x="700" y="1447" on="1"/>
        <pt x="284" y="1447" on="1"/>
      </contour>
    </TTGlyph>
    <TTGlyph name="parenright" xMin="142" yMin="226" xMax="842" yMax="1588">
      <contour>
        <pt x="142" y="226" on="1"/>
        <pt x="142" y="1588" on="1"/>
        <pt x="842" y="1588" on="1"/>
        <pt x="842" y="226" on="1"/>
      </contour>
      <contour>
        <pt x="284" y="368" on="1"/>
        <pt x="700" y="368" on="1"/>
        <pt x="700" y="1447" on="1"/>
        <pt x="284" y="1447" on="1"/>
      </contour>
    </TTGlyph>
    <TTGlyph name="pashtoefinal" xMin="142" yMin="226" xMax="842" yMax="1588">
      <contour>
        <pt x="142" y="226" on="1"/>
        <pt x="142" y="1588" on="1"/>
        <pt x="842" y="1588" on="1"/>
        <pt x="842" y="226" on="1"/>
      </contour>
      <contour>
        <pt x="284" y="368" on="1"/>
        <pt x="700" y="368" on="1"/>
        <pt x="700" y="1447" on="1"/>
        <pt x="284" y="1447" on="1"/>
      </contour>
    </TTGlyph>
    <TTGlyph name="pashtoeinitial" xMin="142" yMin="226" xMax="842" yMax="1588">
      <contour>
        <pt x="142" y="226" on="1"/>
        <pt x="142" y="1588" on="1"/>
        <pt x="842" y="1588" on="1"/>
        <pt x="842" y="226" on="1"/>
      </contour>
      <contour>
        <pt x="284" y="368" on="1"/>
        <pt x="700" y="368" on="1"/>
        <pt x="700" y="1447" on="1"/>
        <pt x="284" y="1447" on="1"/>
      </contour>
    </TTGlyph>
    <TTGlyph name="pashtoemedial" xMin="142" yMin="226" xMax="842" yMax="1588">
      <contour>
        <pt x="142" y="226" on="1"/>
        <pt x="142" y="1588" on="1"/>
        <pt x="842" y="1588" on="1"/>
        <pt x="842" y="226" on="1"/>
      </contour>
      <contour>
        <pt x="284" y="368" on="1"/>
        <pt x="700" y="368" on="1"/>
        <pt x="700" y="1447" on="1"/>
        <pt x="284" y="1447" on="1"/>
      </contour>
    </TTGlyph>
    <TTGlyph name="pehfinalarabic" xMin="142" yMin="226" xMax="842" yMax="1588">
      <contour>
        <pt x="142" y="226" on="1"/>
        <pt x="142" y="1588" on="1"/>
        <pt x="842" y="1588" on="1"/>
        <pt x="842" y="226" on="1"/>
      </contour>
      <contour>
        <pt x="284" y="368" on="1"/>
        <pt x="700" y="368" on="1"/>
        <pt x="700" y="1447" on="1"/>
        <pt x="284" y="1447" on="1"/>
      </contour>
    </TTGlyph>
    <TTGlyph name="pehinitialarabic" xMin="142" yMin="226" xMax="842" yMax="1588">
      <contour>
        <pt x="142" y="226" on="1"/>
        <pt x="142" y="1588" on="1"/>
        <pt x="842" y="1588" on="1"/>
        <pt x="842" y="226" on="1"/>
      </contour>
      <contour>
        <pt x="284" y="368" on="1"/>
        <pt x="700" y="368" on="1"/>
        <pt x="700" y="1447" on="1"/>
        <pt x="284" y="1447" on="1"/>
      </contour>
    </TTGlyph>
    <TTGlyph name="pehmedialarabic" xMin="142" yMin="226" xMax="842" yMax="1588">
      <contour>
        <pt x="142" y="226" on="1"/>
        <pt x="142" y="1588" on="1"/>
        <pt x="842" y="1588" on="1"/>
        <pt x="842" y="226" on="1"/>
      </contour>
      <contour>
        <pt x="284" y="368" on="1"/>
        <pt x="700" y="368" on="1"/>
        <pt x="700" y="1447" on="1"/>
        <pt x="284" y="1447" on="1"/>
      </contour>
    </TTGlyph>
    <TTGlyph name="percent" xMin="142" yMin="226" xMax="842" yMax="1588">
      <contour>
        <pt x="142" y="226" on="1"/>
        <pt x="142" y="1588" on="1"/>
        <pt x="842" y="1588" on="1"/>
        <pt x="842" y="226" on="1"/>
      </contour>
      <contour>
        <pt x="284" y="368" on="1"/>
        <pt x="700" y="368" on="1"/>
        <pt x="700" y="1447" on="1"/>
        <pt x="284" y="1447" on="1"/>
      </contour>
    </TTGlyph>
    <TTGlyph name="period" xMin="142" yMin="226" xMax="842" yMax="1588">
      <contour>
        <pt x="142" y="226" on="1"/>
        <pt x="142" y="1588" on="1"/>
        <pt x="842" y="1588" on="1"/>
        <pt x="842" y="226" on="1"/>
      </contour>
      <contour>
        <pt x="284" y="368" on="1"/>
        <pt x="700" y="368" on="1"/>
        <pt x="700" y="1447" on="1"/>
        <pt x="284" y="1447" on="1"/>
      </contour>
    </TTGlyph>
    <TTGlyph name="plus" xMin="142" yMin="226" xMax="842" yMax="1588">
      <contour>
        <pt x="142" y="226" on="1"/>
        <pt x="142" y="1588" on="1"/>
        <pt x="842" y="1588" on="1"/>
        <pt x="842" y="226" on="1"/>
      </contour>
      <contour>
        <pt x="284" y="368" on="1"/>
        <pt x="700" y="368" on="1"/>
        <pt x="700" y="1447" on="1"/>
        <pt x="284" y="1447" on="1"/>
      </contour>
    </TTGlyph>
    <TTGlyph name="quotedbl" xMin="142" yMin="226" xMax="842" yMax="1588">
      <contour>
        <pt x="142" y="226" on="1"/>
        <pt x="142" y="1588" on="1"/>
        <pt x="842" y="1588" on="1"/>
        <pt x="842" y="226" on="1"/>
      </contour>
      <contour>
        <pt x="284" y="368" on="1"/>
        <pt x="700" y="368" on="1"/>
        <pt x="700" y="1447" on="1"/>
        <pt x="284" y="1447" on="1"/>
      </contour>
    </TTGlyph>
    <TTGlyph name="quotesingle" xMin="142" yMin="226" xMax="842" yMax="1588">
      <contour>
        <pt x="142" y="226" on="1"/>
        <pt x="142" y="1588" on="1"/>
        <pt x="842" y="1588" on="1"/>
        <pt x="842" y="226" on="1"/>
      </contour>
      <contour>
        <pt x="284" y="368" on="1"/>
        <pt x="700" y="368" on="1"/>
        <pt x="700" y="1447" on="1"/>
        <pt x="284" y="1447" on="1"/>
      </contour>
    </TTGlyph>
    <TTGlyph name="rehdotbelowdotabovefinal" xMin="142" yMin="226" xMax="842" yMax="1588">
      <contour>
        <pt x="142" y="226" on="1"/>
        <pt x="142" y="1588" on="1"/>
        <pt x="842" y="1588" on="1"/>
        <pt x="842" y="226" on="1"/>
      </contour>
      <contour>
        <pt x="284" y="368" on="1"/>
        <pt x="700" y="368" on="1"/>
        <pt x="700" y="1447" on="1"/>
        <pt x="284" y="1447" on="1"/>
      </contour>
    </TTGlyph>
    <TTGlyph name="rehringfinal" xMin="142" yMin="226" xMax="842" yMax="1588">
      <contour>
        <pt x="142" y="226" on="1"/>
        <pt x="142" y="1588" on="1"/>
        <pt x="842" y="1588" on="1"/>
        <pt x="842" y="226" on="1"/>
      </contour>
      <contour>
        <pt x="284" y="368" on="1"/>
        <pt x="700" y="368" on="1"/>
        <pt x="700" y="1447" on="1"/>
        <pt x="284" y="1447" on="1"/>
      </contour>
    </TTGlyph>
    <TTGlyph name="rrehfinalarabic" xMin="142" yMin="226" xMax="842" yMax="1588">
      <contour>
        <pt x="142" y="226" on="1"/>
        <pt x="142" y="1588" on="1"/>
        <pt x="842" y="1588" on="1"/>
        <pt x="842" y="226" on="1"/>
      </contour>
      <contour>
        <pt x="284" y="368" on="1"/>
        <pt x="700" y="368" on="1"/>
        <pt x="700" y="1447" on="1"/>
        <pt x="284" y="1447" on="1"/>
      </contour>
    </TTGlyph>
    <TTGlyph name="seendotbelowdotabovefinal" xMin="142" yMin="226" xMax="842" yMax="1588">
      <contour>
        <pt x="142" y="226" on="1"/>
        <pt x="142" y="1588" on="1"/>
        <pt x="842" y="1588" on="1"/>
        <pt x="842" y="226" on="1"/>
      </contour>
      <contour>
        <pt x="284" y="368" on="1"/>
        <pt x="700" y="368" on="1"/>
        <pt x="700" y="1447" on="1"/>
        <pt x="284" y="1447" on="1"/>
      </contour>
    </TTGlyph>
    <TTGlyph name="seendotbelowdotaboveinitial" xMin="142" yMin="226" xMax="842" yMax="1588">
      <contour>
        <pt x="142" y="226" on="1"/>
        <pt x="142" y="1588" on="1"/>
        <pt x="842" y="1588" on="1"/>
        <pt x="842" y="226" on="1"/>
      </contour>
      <contour>
        <pt x="284" y="368" on="1"/>
        <pt x="700" y="368" on="1"/>
        <pt x="700" y="1447" on="1"/>
        <pt x="284" y="1447" on="1"/>
      </contour>
    </TTGlyph>
    <TTGlyph name="seendotbelowdotabovemedial" xMin="142" yMin="226" xMax="842" yMax="1588">
      <contour>
        <pt x="142" y="226" on="1"/>
        <pt x="142" y="1588" on="1"/>
        <pt x="842" y="1588" on="1"/>
        <pt x="842" y="226" on="1"/>
      </contour>
      <contour>
        <pt x="284" y="368" on="1"/>
        <pt x="700" y="368" on="1"/>
        <pt x="700" y="1447" on="1"/>
        <pt x="284" y="1447" on="1"/>
      </contour>
    </TTGlyph>
    <TTGlyph name="shaddadammaarabic" xMin="142" yMin="226" xMax="842" yMax="1588">
      <contour>
        <pt x="142" y="226" on="1"/>
        <pt x="142" y="1588" on="1"/>
        <pt x="842" y="1588" on="1"/>
        <pt x="842" y="226" on="1"/>
      </contour>
      <contour>
        <pt x="284" y="368" on="1"/>
        <pt x="700" y="368" on="1"/>
        <pt x="700" y="1447" on="1"/>
        <pt x="284" y="1447" on="1"/>
      </contour>
    </TTGlyph>
    <TTGlyph name="shaddadammatanarabic" xMin="142" yMin="226" xMax="842" yMax="1588">
      <contour>
        <pt x="142" y="226" on="1"/>
        <pt x="142" y="1588" on="1"/>
        <pt x="842" y="1588" on="1"/>
        <pt x="842" y="226" on="1"/>
      </contour>
      <contour>
        <pt x="284" y="368" on="1"/>
        <pt x="700" y="368" on="1"/>
        <pt x="700" y="1447" on="1"/>
        <pt x="284" y="1447" on="1"/>
      </contour>
    </TTGlyph>
    <TTGlyph name="shaddafathaarabic" xMin="142" yMin="226" xMax="842" yMax="1588">
      <contour>
        <pt x="142" y="226" on="1"/>
        <pt x="142" y="1588" on="1"/>
        <pt x="842" y="1588" on="1"/>
        <pt x="842" y="226" on="1"/>
      </contour>
      <contour>
        <pt x="284" y="368" on="1"/>
        <pt x="700" y="368" on="1"/>
        <pt x="700" y="1447" on="1"/>
        <pt x="284" y="1447" on="1"/>
      </contour>
    </TTGlyph>
    <TTGlyph name="shaddakasraarabic" xMin="142" yMin="226" xMax="842" yMax="1588">
      <contour>
        <pt x="142" y="226" on="1"/>
        <pt x="142" y="1588" on="1"/>
        <pt x="842" y="1588" on="1"/>
        <pt x="842" y="226" on="1"/>
      </contour>
      <contour>
        <pt x="284" y="368" on="1"/>
        <pt x="700" y="368" on="1"/>
        <pt x="700" y="1447" on="1"/>
        <pt x="284" y="1447" on="1"/>
      </contour>
    </TTGlyph>
    <TTGlyph name="shaddakasratanarabic" xMin="142" yMin="226" xMax="842" yMax="1588">
      <contour>
        <pt x="142" y="226" on="1"/>
        <pt x="142" y="1588" on="1"/>
        <pt x="842" y="1588" on="1"/>
        <pt x="842" y="226" on="1"/>
      </contour>
      <contour>
        <pt x="284" y="368" on="1"/>
        <pt x="700" y="368" on="1"/>
        <pt x="700" y="1447" on="1"/>
        <pt x="284" y="1447" on="1"/>
      </contour>
    </TTGlyph>
    <TTGlyph name="slash" xMin="142" yMin="226" xMax="842" yMax="1588">
      <contour>
        <pt x="142" y="226" on="1"/>
        <pt x="142" y="1588" on="1"/>
        <pt x="842" y="1588" on="1"/>
        <pt x="842" y="226" on="1"/>
      </contour>
      <contour>
        <pt x="284" y="368" on="1"/>
        <pt x="700" y="368" on="1"/>
        <pt x="700" y="1447" on="1"/>
        <pt x="284" y="1447" on="1"/>
      </contour>
    </TTGlyph>
    <TTGlyph name="space" xMin="142" yMin="226" xMax="842" yMax="1588">
      <contour>
        <pt x="142" y="226" on="1"/>
        <pt x="142" y="1588" on="1"/>
        <pt x="842" y="1588" on="1"/>
        <pt x="842" y="226" on="1"/>
      </contour>
      <contour>
        <pt x="284" y="368" on="1"/>
        <pt x="700" y="368" on="1"/>
        <pt x="700" y="1447" on="1"/>
        <pt x="284" y="1447" on="1"/>
      </contour>
    </TTGlyph>
    <TTGlyph name="tchehfinalarabic" xMin="142" yMin="226" xMax="842" yMax="1588">
      <contour>
        <pt x="142" y="226" on="1"/>
        <pt x="142" y="1588" on="1"/>
        <pt x="842" y="1588" on="1"/>
        <pt x="842" y="226" on="1"/>
      </contour>
      <contour>
        <pt x="284" y="368" on="1"/>
        <pt x="700" y="368" on="1"/>
        <pt x="700" y="1447" on="1"/>
        <pt x="284" y="1447" on="1"/>
      </contour>
    </TTGlyph>
    <TTGlyph name="tchehinitialarabic" xMin="142" yMin="226" xMax="842" yMax="1588">
      <contour>
        <pt x="142" y="226" on="1"/>
        <pt x="142" y="1588" on="1"/>
        <pt x="842" y="1588" on="1"/>
        <pt x="842" y="226" on="1"/>
      </contour>
      <contour>
        <pt x="284" y="368" on="1"/>
        <pt x="700" y="368" on="1"/>
        <pt x="700" y="1447" on="1"/>
        <pt x="284" y="1447" on="1"/>
      </contour>
    </TTGlyph>
    <TTGlyph name="tchehmedialarabic" xMin="142" yMin="226" xMax="842" yMax="1588">
      <contour>
        <pt x="142" y="226" on="1"/>
        <pt x="142" y="1588" on="1"/>
        <pt x="842" y="1588" on="1"/>
        <pt x="842" y="226" on="1"/>
      </contour>
      <contour>
        <pt x="284" y="368" on="1"/>
        <pt x="700" y="368" on="1"/>
        <pt x="700" y="1447" on="1"/>
        <pt x="284" y="1447" on="1"/>
      </contour>
    </TTGlyph>
    <TTGlyph name="tehhahisolatedarabic" xMin="142" yMin="226" xMax="842" yMax="1588">
      <contour>
        <pt x="142" y="226" on="1"/>
        <pt x="142" y="1588" on="1"/>
        <pt x="842" y="1588" on="1"/>
        <pt x="842" y="226" on="1"/>
      </contour>
      <contour>
        <pt x="284" y="368" on="1"/>
        <pt x="700" y="368" on="1"/>
        <pt x="700" y="1447" on="1"/>
        <pt x="284" y="1447" on="1"/>
      </contour>
    </TTGlyph>
    <TTGlyph name="tehjeemisolatedarabic" xMin="142" yMin="226" xMax="842" yMax="1588">
      <contour>
        <pt x="142" y="226" on="1"/>
        <pt x="142" y="1588" on="1"/>
        <pt x="842" y="1588" on="1"/>
        <pt x="842" y="226" on="1"/>
      </contour>
      <contour>
        <pt x="284" y="368" on="1"/>
        <pt x="700" y="368" on="1"/>
        <pt x="700" y="1447" on="1"/>
        <pt x="284" y="1447" on="1"/>
      </contour>
    </TTGlyph>
    <TTGlyph name="tehmeemisolatedarabic" xMin="142" yMin="226" xMax="842" yMax="1588">
      <contour>
        <pt x="142" y="226" on="1"/>
        <pt x="142" y="1588" on="1"/>
        <pt x="842" y="1588" on="1"/>
        <pt x="842" y="226" on="1"/>
      </contour>
      <contour>
        <pt x="284" y="368" on="1"/>
        <pt x="700" y="368" on="1"/>
        <pt x="700" y="1447" on="1"/>
        <pt x="284" y="1447" on="1"/>
      </contour>
    </TTGlyph>
    <TTGlyph name="tehnoonfinalarabic" xMin="142" yMin="226" xMax="842" yMax="1588">
      <contour>
        <pt x="142" y="226" on="1"/>
        <pt x="142" y="1588" on="1"/>
        <pt x="842" y="1588" on="1"/>
        <pt x="842" y="226" on="1"/>
      </contour>
      <contour>
        <pt x="284" y="368" on="1"/>
        <pt x="700" y="368" on="1"/>
        <pt x="700" y="1447" on="1"/>
        <pt x="284" y="1447" on="1"/>
      </contour>
    </TTGlyph>
    <TTGlyph name="tehringfinal" xMin="142" yMin="226" xMax="842" yMax="1588">
      <contour>
        <pt x="142" y="226" on="1"/>
        <pt x="142" y="1588" on="1"/>
        <pt x="842" y="1588" on="1"/>
        <pt x="842" y="226" on="1"/>
      </contour>
      <contour>
        <pt x="284" y="368" on="1"/>
        <pt x="700" y="368" on="1"/>
        <pt x="700" y="1447" on="1"/>
        <pt x="284" y="1447" on="1"/>
      </contour>
    </TTGlyph>
    <TTGlyph name="tehringinitial" xMin="142" yMin="226" xMax="842" yMax="1588">
      <contour>
        <pt x="142" y="226" on="1"/>
        <pt x="142" y="1588" on="1"/>
        <pt x="842" y="1588" on="1"/>
        <pt x="842" y="226" on="1"/>
      </contour>
      <contour>
        <pt x="284" y="368" on="1"/>
        <pt x="700" y="368" on="1"/>
        <pt x="700" y="1447" on="1"/>
        <pt x="284" y="1447" on="1"/>
      </contour>
    </TTGlyph>
    <TTGlyph name="tehringmedial" xMin="142" yMin="226" xMax="842" yMax="1588">
      <contour>
        <pt x="142" y="226" on="1"/>
        <pt x="142" y="1588" on="1"/>
        <pt x="842" y="1588" on="1"/>
        <pt x="842" y="226" on="1"/>
      </contour>
      <contour>
        <pt x="284" y="368" on="1"/>
        <pt x="700" y="368" on="1"/>
        <pt x="700" y="1447" on="1"/>
        <pt x="284" y="1447" on="1"/>
      </contour>
    </TTGlyph>
    <TTGlyph name="ttehfinalarabic" xMin="142" yMin="226" xMax="842" yMax="1588">
      <contour>
        <pt x="142" y="226" on="1"/>
        <pt x="142" y="1588" on="1"/>
        <pt x="842" y="1588" on="1"/>
        <pt x="842" y="226" on="1"/>
      </contour>
      <contour>
        <pt x="284" y="368" on="1"/>
        <pt x="700" y="368" on="1"/>
        <pt x="700" y="1447" on="1"/>
        <pt x="284" y="1447" on="1"/>
      </contour>
    </TTGlyph>
    <TTGlyph name="ttehinitialarabic" xMin="142" yMin="226" xMax="842" yMax="1588">
      <contour>
        <pt x="142" y="226" on="1"/>
        <pt x="142" y="1588" on="1"/>
        <pt x="842" y="1588" on="1"/>
        <pt x="842" y="226" on="1"/>
      </contour>
      <contour>
        <pt x="284" y="368" on="1"/>
        <pt x="700" y="368" on="1"/>
        <pt x="700" y="1447" on="1"/>
        <pt x="284" y="1447" on="1"/>
      </contour>
    </TTGlyph>
    <TTGlyph name="ttehmedialarabic" xMin="142" yMin="226" xMax="842" yMax="1588">
      <contour>
        <pt x="142" y="226" on="1"/>
        <pt x="142" y="1588" on="1"/>
        <pt x="842" y="1588" on="1"/>
        <pt x="842" y="226" on="1"/>
      </contour>
      <contour>
        <pt x="284" y="368" on="1"/>
        <pt x="700" y="368" on="1"/>
        <pt x="700" y="1447" on="1"/>
        <pt x="284" y="1447" on="1"/>
      </contour>
    </TTGlyph>
    <TTGlyph name="uni000D" xMin="142" yMin="226" xMax="842" yMax="1588">
      <contour>
        <pt x="142" y="226" on="1"/>
        <pt x="142" y="1588" on="1"/>
        <pt x="842" y="1588" on="1"/>
        <pt x="842" y="226" on="1"/>
      </contour>
      <contour>
        <pt x="284" y="368" on="1"/>
        <pt x="700" y="368" on="1"/>
        <pt x="700" y="1447" on="1"/>
        <pt x="284" y="1447" on="1"/>
      </contour>
    </TTGlyph>
    <TTGlyph name="uni00A0" xMin="142" yMin="226" xMax="842" yMax="1588">
      <contour>
        <pt x="142" y="226" on="1"/>
        <pt x="142" y="1588" on="1"/>
        <pt x="842" y="1588" on="1"/>
        <pt x="842" y="226" on="1"/>
      </contour>
      <contour>
        <pt x="284" y="368" on="1"/>
        <pt x="700" y="368" on="1"/>
        <pt x="700" y="1447" on="1"/>
        <pt x="284" y="1447" on="1"/>
      </contour>
    </TTGlyph>
    <TTGlyph name="uni00AD" xMin="142" yMin="226" xMax="842" yMax="1588">
      <contour>
        <pt x="142" y="226" on="1"/>
        <pt x="142" y="1588" on="1"/>
        <pt x="842" y="1588" on="1"/>
        <pt x="842" y="226" on="1"/>
      </contour>
      <contour>
        <pt x="284" y="368" on="1"/>
        <pt x="700" y="368" on="1"/>
        <pt x="700" y="1447" on="1"/>
        <pt x="284" y="1447" on="1"/>
      </contour>
    </TTGlyph>
    <TTGlyph name="uni0653" xMin="142" yMin="226" xMax="842" yMax="1588">
      <contour>
        <pt x="142" y="226" on="1"/>
        <pt x="142" y="1588" on="1"/>
        <pt x="842" y="1588" on="1"/>
        <pt x="842" y="226" on="1"/>
      </contour>
      <contour>
        <pt x="284" y="368" on="1"/>
        <pt x="700" y="368" on="1"/>
        <pt x="700" y="1447" on="1"/>
        <pt x="284" y="1447" on="1"/>
      </contour>
    </TTGlyph>
    <TTGlyph name="uni0654" xMin="142" yMin="226" xMax="842" yMax="1588">
      <contour>
        <pt x="142" y="226" on="1"/>
        <pt x="142" y="1588" on="1"/>
        <pt x="842" y="1588" on="1"/>
        <pt x="842" y="226" on="1"/>
      </contour>
      <contour>
        <pt x="284" y="368" on="1"/>
        <pt x="700" y="368" on="1"/>
        <pt x="700" y="1447" on="1"/>
        <pt x="284" y="1447" on="1"/>
      </contour>
    </TTGlyph>
    <TTGlyph name="uni0655" xMin="142" yMin="226" xMax="842" yMax="1588">
      <contour>
        <pt x="142" y="226" on="1"/>
        <pt x="142" y="1588" on="1"/>
        <pt x="842" y="1588" on="1"/>
        <pt x="842" y="226" on="1"/>
      </contour>
      <contour>
        <pt x="284" y="368" on="1"/>
        <pt x="700" y="368" on="1"/>
        <pt x="700" y="1447" on="1"/>
        <pt x="284" y="1447" on="1"/>
      </contour>
    </TTGlyph>
    <TTGlyph name="uni066B" xMin="142" yMin="226" xMax="842" yMax="1588">
      <contour>
        <pt x="142" y="226" on="1"/>
        <pt x="142" y="1588" on="1"/>
        <pt x="842" y="1588" on="1"/>
        <pt x="842" y="226" on="1"/>
      </contour>
      <contour>
        <pt x="284" y="368" on="1"/>
        <pt x="700" y="368" on="1"/>
        <pt x="700" y="1447" on="1"/>
        <pt x="284" y="1447" on="1"/>
      </contour>
    </TTGlyph>
    <TTGlyph name="uni066C" xMin="142" yMin="226" xMax="842" yMax="1588">
      <contour>
        <pt x="142" y="226" on="1"/>
        <pt x="142" y="1588" on="1"/>
        <pt x="842" y="1588" on="1"/>
        <pt x="842" y="226" on="1"/>
      </contour>
      <contour>
        <pt x="284" y="368" on="1"/>
        <pt x="700" y="368" on="1"/>
        <pt x="700" y="1447" on="1"/>
        <pt x="284" y="1447" on="1"/>
      </contour>
    </TTGlyph>
    <TTGlyph name="uni0671" xMin="142" yMin="226" xMax="842" yMax="1588">
      <contour>
        <pt x="142" y="226" on="1"/>
        <pt x="142" y="1588" on="1"/>
        <pt x="842" y="1588" on="1"/>
        <pt x="842" y="226" on="1"/>
      </contour>
      <contour>
        <pt x="284" y="368" on="1"/>
        <pt x="700" y="368" on="1"/>
        <pt x="700" y="1447" on="1"/>
        <pt x="284" y="1447" on="1"/>
      </contour>
    </TTGlyph>
    <TTGlyph name="uni067C" xMin="142" yMin="226" xMax="842" yMax="1588">
      <contour>
        <pt x="142" y="226" on="1"/>
        <pt x="142" y="1588" on="1"/>
        <pt x="842" y="1588" on="1"/>
        <pt x="842" y="226" on="1"/>
      </contour>
      <contour>
        <pt x="284" y="368" on="1"/>
        <pt x="700" y="368" on="1"/>
        <pt x="700" y="1447" on="1"/>
        <pt x="284" y="1447" on="1"/>
      </contour>
    </TTGlyph>
    <TTGlyph name="uni0681" xMin="142" yMin="226" xMax="842" yMax="1588">
      <contour>
        <pt x="142" y="226" on="1"/>
        <pt x="142" y="1588" on="1"/>
        <pt x="842" y="1588" on="1"/>
        <pt x="842" y="226" on="1"/>
      </contour>
      <contour>
        <pt x="284" y="368" on="1"/>
        <pt x="700" y="368" on="1"/>
        <pt x="700" y="1447" on="1"/>
        <pt x="284" y="1447" on="1"/>
      </contour>
    </TTGlyph>
    <TTGlyph name="uni0685" xMin="142" yMin="226" xMax="842" yMax="1588">
      <contour>
        <pt x="142" y="226" on="1"/>
        <pt x="142" y="1588" on="1"/>
        <pt x="842" y="1588" on="1"/>
        <pt x="842" y="226" on="1"/>
      </contour>
      <contour>
        <pt x="284" y="368" on="1"/>
        <pt x="700" y="368" on="1"/>
        <pt x="700" y="1447" on="1"/>
        <pt x="284" y="1447" on="1"/>
      </contour>
    </TTGlyph>
    <TTGlyph name="uni0689" xMin="142" yMin="226" xMax="842" yMax="1588">
      <contour>
        <pt x="142" y="226" on="1"/>
        <pt x="142" y="1588" on="1"/>
        <pt x="842" y="1588" on="1"/>
        <pt x="842" y="226" on="1"/>
      </contour>
      <contour>
        <pt x="284" y="368" on="1"/>
        <pt x="700" y="368" on="1"/>
        <pt x="700" y="1447" on="1"/>
        <pt x="284" y="1447" on="1"/>
      </contour>
    </TTGlyph>
    <TTGlyph name="uni0693" xMin="142" yMin="226" xMax="842" yMax="1588">
      <contour>
        <pt x="142" y="226" on="1"/>
        <pt x="142" y="1588" on="1"/>
        <pt x="842" y="1588" on="1"/>
        <pt x="842" y="226" on="1"/>
      </contour>
      <contour>
        <pt x="284" y="368" on="1"/>
        <pt x="700" y="368" on="1"/>
        <pt x="700" y="1447" on="1"/>
        <pt x="284" y="1447" on="1"/>
      </contour>
    </TTGlyph>
    <TTGlyph name="uni0696" xMin="142" yMin="226" xMax="842" yMax="1588">
      <contour>
        <pt x="142" y="226" on="1"/>
        <pt x="142" y="1588" on="1"/>
        <pt x="842" y="1588" on="1"/>
        <pt x="842" y="226" on="1"/>
      </contour>
      <contour>
        <pt x="284" y="368" on="1"/>
        <pt x="700" y="368" on="1"/>
        <pt x="700" y="1447" on="1"/>
        <pt x="284" y="1447" on="1"/>
      </contour>
    </TTGlyph>
    <TTGlyph name="uni069A" xMin="142" yMin="226" xMax="842" yMax="1588">
      <contour>
        <pt x="142" y="226" on="1"/>
        <pt x="142" y="1588" on="1"/>
        <pt x="842" y="1588" on="1"/>
        <pt x="842" y="226" on="1"/>
      </contour>
      <contour>
        <pt x="284" y="368" on="1"/>
        <pt x="700" y="368" on="1"/>
        <pt x="700" y="1447" on="1"/>
        <pt x="284" y="1447" on="1"/>
      </contour>
    </TTGlyph>
    <TTGlyph name="uni06A9" xMin="142" yMin="226" xMax="842" yMax="1588">
      <contour>
        <pt x="142" y="226" on="1"/>
        <pt x="142" y="1588" on="1"/>
        <pt x="842" y="1588" on="1"/>
        <pt x="842" y="226" on="1"/>
      </contour>
      <contour>
        <pt x="284" y="368" on="1"/>
        <pt x="700" y="368" on="1"/>
        <pt x="700" y="1447" on="1"/>
        <pt x="284" y="1447" on="1"/>
      </contour>
    </TTGlyph>
    <TTGlyph name="uni06AB" xMin="142" yMin="226" xMax="842" yMax="1588">
      <contour>
        <pt x="142" y="226" on="1"/>
        <pt x="142" y="1588" on="1"/>
        <pt x="842" y="1588" on="1"/>
        <pt x="842" y="226" on="1"/>
      </contour>
      <contour>
        <pt x="284" y="368" on="1"/>
        <pt x="700" y="368" on="1"/>
        <pt x="700" y="1447" on="1"/>
        <pt x="284" y="1447" on="1"/>
      </contour>
    </TTGlyph>
    <TTGlyph name="uni06B7" xMin="142" yMin="226" xMax="842" yMax="1588">
      <contour>
        <pt x="142" y="226" on="1"/>
        <pt x="142" y="1588" on="1"/>
        <pt x="842" y="1588" on="1"/>
        <pt x="842" y="226" on="1"/>
      </contour>
      <contour>
        <pt x="284" y="368" on="1"/>
        <pt x="700" y="368" on="1"/>
        <pt x="700" y="1447" on="1"/>
        <pt x="284" y="1447" on="1"/>
      </contour>
    </TTGlyph>
    <TTGlyph name="uni06BC" xMin="142" yMin="226" xMax="842" yMax="1588">
      <contour>
        <pt x="142" y="226" on="1"/>
        <pt x="142" y="1588" on="1"/>
        <pt x="842" y="1588" on="1"/>
        <pt x="842" y="226" on="1"/>
      </contour>
      <contour>
        <pt x="284" y="368" on="1"/>
        <pt x="700" y="368" on="1"/>
        <pt x="700" y="1447" on="1"/>
        <pt x="284" y="1447" on="1"/>
      </contour>
    </TTGlyph>
    <TTGlyph name="uni06BE" xMin="142" yMin="226" xMax="842" yMax="1588">
      <contour>
        <pt x="142" y="226" on="1"/>
        <pt x="142" y="1588" on="1"/>
        <pt x="842" y="1588" on="1"/>
        <pt x="842" y="226" on="1"/>
      </contour>
      <contour>
        <pt x="284" y="368" on="1"/>
        <pt x="700" y="368" on="1"/>
        <pt x="700" y="1447" on="1"/>
        <pt x="284" y="1447" on="1"/>
      </contour>
    </TTGlyph>
    <TTGlyph name="uni06C2" xMin="142" yMin="226" xMax="842" yMax="1588">
      <contour>
        <pt x="142" y="226" on="1"/>
        <pt x="142" y="1588" on="1"/>
        <pt x="842" y="1588" on="1"/>
        <pt x="842" y="226" on="1"/>
      </contour>
      <contour>
        <pt x="284" y="368" on="1"/>
        <pt x="700" y="368" on="1"/>
        <pt x="700" y="1447" on="1"/>
        <pt x="284" y="1447" on="1"/>
      </contour>
    </TTGlyph>
    <TTGlyph name="uni06C7" xMin="142" yMin="226" xMax="842" yMax="1588">
      <contour>
        <pt x="142" y="226" on="1"/>
        <pt x="142" y="1588" on="1"/>
        <pt x="842" y="1588" on="1"/>
        <pt x="842" y="226" on="1"/>
      </contour>
      <contour>
        <pt x="284" y="368" on="1"/>
        <pt x="700" y="368" on="1"/>
        <pt x="700" y="1447" on="1"/>
        <pt x="284" y="1447" on="1"/>
      </contour>
    </TTGlyph>
    <TTGlyph name="uni06C9" xMin="142" yMin="226" xMax="842" yMax="1588">
      <contour>
        <pt x="142" y="226" on="1"/>
        <pt x="142" y="1588" on="1"/>
        <pt x="842" y="1588" on="1"/>
        <pt x="842" y="226" on="1"/>
      </contour>
      <contour>
        <pt x="284" y="368" on="1"/>
        <pt x="700" y="368" on="1"/>
        <pt x="700" y="1447" on="1"/>
        <pt x="284" y="1447" on="1"/>
      </contour>
    </TTGlyph>
    <TTGlyph name="uni06CC" xMin="142" yMin="226" xMax="842" yMax="1588">
      <contour>
        <pt x="142" y="226" on="1"/>
        <pt x="142" y="1588" on="1"/>
        <pt x="842" y="1588" on="1"/>
        <pt x="842" y="226" on="1"/>
      </contour>
      <contour>
        <pt x="284" y="368" on="1"/>
        <pt x="700" y="368" on="1"/>
        <pt x="700" y="1447" on="1"/>
        <pt x="284" y="1447" on="1"/>
      </contour>
    </TTGlyph>
    <TTGlyph name="uni06CD" xMin="142" yMin="226" xMax="842" yMax="1588">
      <contour>
        <pt x="142" y="226" on="1"/>
        <pt x="142" y="1588" on="1"/>
        <pt x="842" y="1588" on="1"/>
        <pt x="842" y="226" on="1"/>
      </contour>
      <contour>
        <pt x="284" y="368" on="1"/>
        <pt x="700" y="368" on="1"/>
        <pt x="700" y="1447" on="1"/>
        <pt x="284" y="1447" on="1"/>
      </contour>
    </TTGlyph>
    <TTGlyph name="uni06D0" xMin="142" yMin="226" xMax="842" yMax="1588">
      <contour>
        <pt x="142" y="226" on="1"/>
        <pt x="142" y="1588" on="1"/>
        <pt x="842" y="1588" on="1"/>
        <pt x="842" y="226" on="1"/>
      </contour>
      <contour>
        <pt x="284" y="368" on="1"/>
        <pt x="700" y="368" on="1"/>
        <pt x="700" y="1447" on="1"/>
        <pt x="284" y="1447" on="1"/>
      </contour>
    </TTGlyph>
    <TTGlyph name="uni06D1" xMin="142" yMin="226" xMax="842" yMax="1588">
      <contour>
        <pt x="142" y="226" on="1"/>
        <pt x="142" y="1588" on="1"/>
        <pt x="842" y="1588" on="1"/>
        <pt x="842" y="226" on="1"/>
      </contour>
      <contour>
        <pt x="284" y="368" on="1"/>
        <pt x="700" y="368" on="1"/>
        <pt x="700" y="1447" on="1"/>
        <pt x="284" y="1447" on="1"/>
      </contour>
    </TTGlyph>
    <TTGlyph name="uni06D3" xMin="142" yMin="226" xMax="842" yMax="1588">
      <contour>
        <pt x="142" y="226" on="1"/>
        <pt x="142" y="1588" on="1"/>
        <pt x="842" y="1588" on="1"/>
        <pt x="842" y="226" on="1"/>
      </contour>
      <contour>
        <pt x="284" y="368" on="1"/>
        <pt x="700" y="368" on="1"/>
        <pt x="700" y="1447" on="1"/>
        <pt x="284" y="1447" on="1"/>
      </contour>
    </TTGlyph>
    <TTGlyph name="uni06D4" xMin="142" yMin="226" xMax="842" yMax="1588">
      <contour>
        <pt x="142" y="226" on="1"/>
        <pt x="142" y="1588" on="1"/>
        <pt x="842" y="1588" on="1"/>
        <pt x="842" y="226" on="1"/>
      </contour>
      <contour>
        <pt x="284" y="368" on="1"/>
        <pt x="700" y="368" on="1"/>
        <pt x="700" y="1447" on="1"/>
        <pt x="284" y="1447" on="1"/>
      </contour>
    </TTGlyph>
    <TTGlyph name="uni06F0" xMin="142" yMin="226" xMax="842" yMax="1588">
      <contour>
        <pt x="142" y="226" on="1"/>
        <pt x="142" y="1588" on="1"/>
        <pt x="842" y="1588" on="1"/>
        <pt x="842" y="226" on="1"/>
      </contour>
      <contour>
        <pt x="284" y="368" on="1"/>
        <pt x="700" y="368" on="1"/>
        <pt x="700" y="1447" on="1"/>
        <pt x="284" y="1447" on="1"/>
      </contour>
    </TTGlyph>
    <TTGlyph name="uni06F1" xMin="142" yMin="226" xMax="842" yMax="1588">
      <contour>
        <pt x="142" y="226" on="1"/>
        <pt x="142" y="1588" on="1"/>
        <pt x="842" y="1588" on="1"/>
        <pt x="842" y="226" on="1"/>
      </contour>
      <contour>
        <pt x="284" y="368" on="1"/>
        <pt x="700" y="368" on="1"/>
        <pt x="700" y="1447" on="1"/>
        <pt x="284" y="1447" on="1"/>
      </contour>
    </TTGlyph>
    <TTGlyph name="uni06F2" xMin="142" yMin="226" xMax="842" yMax="1588">
      <contour>
        <pt x="142" y="226" on="1"/>
        <pt x="142" y="1588" on="1"/>
        <pt x="842" y="1588" on="1"/>
        <pt x="842" y="226" on="1"/>
      </contour>
      <contour>
        <pt x="284" y="368" on="1"/>
        <pt x="700" y="368" on="1"/>
        <pt x="700" y="1447" on="1"/>
        <pt x="284" y="1447" on="1"/>
      </contour>
    </TTGlyph>
    <TTGlyph name="uni06F3" xMin="142" yMin="226" xMax="842" yMax="1588">
      <contour>
        <pt x="142" y="226" on="1"/>
        <pt x="142" y="1588" on="1"/>
        <pt x="842" y="1588" on="1"/>
        <pt x="842" y="226" on="1"/>
      </contour>
      <contour>
        <pt x="284" y="368" on="1"/>
        <pt x="700" y="368" on="1"/>
        <pt x="700" y="1447" on="1"/>
        <pt x="284" y="1447" on="1"/>
      </contour>
    </TTGlyph>
    <TTGlyph name="uni06F4" xMin="142" yMin="226" xMax="842" yMax="1588">
      <contour>
        <pt x="142" y="226" on="1"/>
        <pt x="142" y="1588" on="1"/>
        <pt x="842" y="1588" on="1"/>
        <pt x="842" y="226" on="1"/>
      </contour>
      <contour>
        <pt x="284" y="368" on="1"/>
        <pt x="700" y="368" on="1"/>
        <pt x="700" y="1447" on="1"/>
        <pt x="284" y="1447" on="1"/>
      </contour>
    </TTGlyph>
    <TTGlyph name="uni06F5" xMin="142" yMin="226" xMax="842" yMax="1588">
      <contour>
        <pt x="142" y="226" on="1"/>
        <pt x="142" y="1588" on="1"/>
        <pt x="842" y="1588" on="1"/>
        <pt x="842" y="226" on="1"/>
      </contour>
      <contour>
        <pt x="284" y="368" on="1"/>
        <pt x="700" y="368" on="1"/>
        <pt x="700" y="1447" on="1"/>
        <pt x="284" y="1447" on="1"/>
      </contour>
    </TTGlyph>
    <TTGlyph name="uni06F6" xMin="142" yMin="226" xMax="842" yMax="1588">
      <contour>
        <pt x="142" y="226" on="1"/>
        <pt x="142" y="1588" on="1"/>
        <pt x="842" y="1588" on="1"/>
        <pt x="842" y="226" on="1"/>
      </contour>
      <contour>
        <pt x="284" y="368" on="1"/>
        <pt x="700" y="368" on="1"/>
        <pt x="700" y="1447" on="1"/>
        <pt x="284" y="1447" on="1"/>
      </contour>
    </TTGlyph>
    <TTGlyph name="uni06F7" xMin="142" yMin="226" xMax="842" yMax="1588">
      <contour>
        <pt x="142" y="226" on="1"/>
        <pt x="142" y="1588" on="1"/>
        <pt x="842" y="1588" on="1"/>
        <pt x="842" y="226" on="1"/>
      </contour>
      <contour>
        <pt x="284" y="368" on="1"/>
        <pt x="700" y="368" on="1"/>
        <pt x="700" y="1447" on="1"/>
        <pt x="284" y="1447" on="1"/>
      </contour>
    </TTGlyph>
    <TTGlyph name="uni06F8" xMin="142" yMin="226" xMax="842" yMax="1588">
      <contour>
        <pt x="142" y="226" on="1"/>
        <pt x="142" y="1588" on="1"/>
        <pt x="842" y="1588" on="1"/>
        <pt x="842" y="226" on="1"/>
      </contour>
      <contour>
        <pt x="284" y="368" on="1"/>
        <pt x="700" y="368" on="1"/>
        <pt x="700" y="1447" on="1"/>
        <pt x="284" y="1447" on="1"/>
      </contour>
    </TTGlyph>
    <TTGlyph name="uni06F9" xMin="142" yMin="226" xMax="842" yMax="1588">
      <contour>
        <pt x="142" y="226" on="1"/>
        <pt x="142" y="1588" on="1"/>
        <pt x="842" y="1588" on="1"/>
        <pt x="842" y="226" on="1"/>
      </contour>
      <contour>
        <pt x="284" y="368" on="1"/>
        <pt x="700" y="368" on="1"/>
        <pt x="700" y="1447" on="1"/>
        <pt x="284" y="1447" on="1"/>
      </contour>
    </TTGlyph>
    <TTGlyph name="uni2010" xMin="298" yMin="-1056" xMax="2960" yMax="1759">
      <contour>
        <pt x="2253" y="-258" on="1"/>
        <pt x="2253" y="-311" on="0"/>
        <pt x="2210" y="-336" on="1"/>
        <pt x="2099" y="-402" on="0"/>
        <pt x="1765" y="-565" on="0"/>
        <pt x="1746" y="-564" on="1"/>
        <pt x="1681" y="-564" on="1"/>
        <pt x="1681" y="-510" on="1"/>
        <pt x="1681" y="-474" on="0"/>
        <pt x="1850" y="-392" on="1"/>
        <pt x="1956" y="-342" on="0"/>
        <pt x="2062" y="-293" on="1"/>
        <pt x="2175" y="-227" on="0"/>
        <pt x="2199" y="-227" on="1"/>
        <pt x="2241" y="-227" on="1"/>
        <pt x="2253" y="-240" on="0"/>
      </contour>
      <contour>
        <pt x="1506" y="-335" on="1"/>
        <pt x="1506" y="-365" on="0"/>
        <pt x="1453" y="-406" on="1"/>
        <pt x="1406" y="-442" on="0"/>
        <pt x="1388" y="-442" on="1"/>
        <pt x="1371" y="-442" on="0"/>
        <pt x="1319" y="-401" on="0"/>
        <pt x="1306" y="-401" on="1"/>
        <pt x="1294" y="-401" on="0"/>
        <pt x="1217" y="-462" on="0"/>
        <pt x="1204" y="-462" on="1"/>
        <pt x="1164" y="-462" on="0"/>
        <pt x="1129" y="-430" on="1"/>
        <pt x="1097" y="-400" on="0"/>
        <pt x="1097" y="-376" on="1"/>
        <pt x="1097" y="-335" on="0"/>
        <pt x="1129" y="-300" on="1"/>
        <pt x="1159" y="-268" on="0"/>
        <pt x="1189" y="-268" on="1"/>
        <pt x="1200" y="-268" on="0"/>
        <pt x="1258" y="-299" on="0"/>
        <pt x="1271" y="-299" on="1"/>
        <pt x="1283" y="-299" on="0"/>
        <pt x="1365" y="-227" on="0"/>
        <pt x="1379" y="-227" on="1"/>
        <pt x="1398" y="-227" on="0"/>
        <pt x="1506" y="-316" on="0"/>
      </contour>
      <contour>
        <pt x="2960" y="1385" on="1"/>
        <pt x="2960" y="1367" on="0"/>
        <pt x="2923" y="1329" on="0"/>
        <pt x="2904" y="1329" on="1"/>
        <pt x="2892" y="1329" on="0"/>
        <pt x="2815" y="1370" on="0"/>
        <pt x="2801" y="1370" on="1"/>
        <pt x="2811" y="1370" on="0"/>
        <pt x="2437" y="1103" on="0"/>
        <pt x="2371" y="1103" on="1"/>
        <pt x="2339" y="1103" on="0"/>
        <pt x="2326" y="1117" on="1"/>
        <pt x="2326" y="1125" on="0"/>
        <pt x="2329" y="1142" on="1"/>
        <pt x="2450" y="1228" on="0"/>
        <pt x="2694" y="1416" on="1"/>
        <pt x="2688" y="1425" on="0"/>
        <pt x="2637" y="1480" on="1"/>
        <pt x="2602" y="1518" on="0"/>
        <pt x="2602" y="1538" on="1"/>
        <pt x="2602" y="1577" on="0"/>
        <pt x="2662" y="1661" on="1"/>
        <pt x="2731" y="1759" on="0"/>
        <pt x="2792" y="1759" on="1"/>
        <pt x="2874" y="1759" on="0"/>
        <pt x="2874" y="1625" on="1"/>
        <pt x="2874" y="1556" on="0"/>
        <pt x="2860" y="1511" on="1"/>
        <pt x="2892" y="1479" on="0"/>
        <pt x="2924" y="1448" on="1"/>
        <pt x="2960" y="1413" on="0"/>
      </contour>
      <contour>
        <pt x="2929" y="1083" on="1"/>
        <pt x="2929" y="996" on="0"/>
        <pt x="2836" y="913" on="1"/>
        <pt x="2823" y="902" on="0"/>
        <pt x="2782" y="891" on="1"/>
        <pt x="2730" y="878" on="0"/>
        <pt x="2722" y="875" on="1"/>
        <pt x="2634" y="837" on="0"/>
        <pt x="2628" y="837" on="1"/>
        <pt x="2596" y="837" on="0"/>
        <pt x="2551" y="886" on="0"/>
        <pt x="2551" y="919" on="1"/>
        <pt x="2551" y="938" on="0"/>
        <pt x="2604" y="1072" on="1"/>
        <pt x="2609" y="1072" on="0"/>
        <pt x="2635" y="1082" on="0"/>
        <pt x="2640" y="1082" on="1"/>
        <pt x="2660" y="1049" on="0"/>
        <pt x="2643" y="997" on="1"/>
        <pt x="2659" y="981" on="0"/>
        <pt x="2674" y="981" on="1"/>
        <pt x="2700" y="981" on="0"/>
        <pt x="2720" y="1036" on="1"/>
        <pt x="2729" y="1067" on="0"/>
        <pt x="2739" y="1098" on="1"/>
        <pt x="2744" y="1101" on="0"/>
        <pt x="2759" y="1113" on="1"/>
        <pt x="2789" y="1113" on="0"/>
        <pt x="2799" y="1082" on="1"/>
        <pt x="2806" y="1057" on="0"/>
        <pt x="2814" y="1031" on="1"/>
        <pt x="2842" y="1037" on="0"/>
        <pt x="2854" y="1081" on="1"/>
        <pt x="2869" y="1139" on="0"/>
        <pt x="2883" y="1154" on="1"/>
        <pt x="2929" y="1128" on="0"/>
      </contour>
      <contour>
        <pt x="2090" y="914" on="1"/>
        <pt x="2090" y="878" on="0"/>
        <pt x="2046" y="840" on="1"/>
        <pt x="2008" y="807" on="0"/>
        <pt x="1988" y="807" on="1"/>
        <pt x="1978" y="807" on="0"/>
        <pt x="1924" y="837" on="0"/>
        <pt x="1911" y="837" on="1"/>
        <pt x="1898" y="837" on="0"/>
        <pt x="1816" y="776" on="0"/>
        <pt x="1804" y="776" on="1"/>
        <pt x="1776" y="776" on="0"/>
        <pt x="1691" y="838" on="0"/>
        <pt x="1691" y="863" on="1"/>
        <pt x="1691" y="889" on="0"/>
        <pt x="1735" y="931" on="1"/>
        <pt x="1777" y="971" on="0"/>
        <pt x="1793" y="971" on="1"/>
        <pt x="1806" y="971" on="0"/>
        <pt x="1868" y="930" on="0"/>
        <pt x="1880" y="930" on="1"/>
        <pt x="1893" y="930" on="0"/>
        <pt x="1970" y="1001" on="0"/>
        <pt x="1982" y="1001" on="1"/>
        <pt x="2007" y="1001" on="0"/>
        <pt x="2046" y="974" on="1"/>
        <pt x="2090" y="945" on="0"/>
      </contour>
      <contour>
        <pt x="1117" y="1037" on="1"/>
        <pt x="1117" y="995" on="0"/>
        <pt x="1083" y="960" on="1"/>
        <pt x="1073" y="963" on="0"/>
        <pt x="1031" y="985" on="1"/>
        <pt x="999" y="1001" on="0"/>
        <pt x="984" y="1001" on="1"/>
        <pt x="989" y="1001" on="0"/>
        <pt x="844" y="888" on="1"/>
        <pt x="691" y="768" on="0"/>
        <pt x="578" y="745" on="1"/>
        <pt x="554" y="769" on="0"/>
        <pt x="554" y="781" on="1"/>
        <pt x="554" y="795" on="0"/>
        <pt x="675" y="891" on="1"/>
        <pt x="824" y="1011" on="0"/>
        <pt x="871" y="1058" on="1"/>
        <pt x="859" y="1094" on="0"/>
        <pt x="830" y="1108" on="1"/>
        <pt x="810" y="1118" on="0"/>
        <pt x="810" y="1170" on="1"/>
        <pt x="810" y="1220" on="0"/>
        <pt x="860" y="1294" on="1"/>
        <pt x="918" y="1380" on="0"/>
        <pt x="984" y="1380" on="1"/>
        <pt x="1059" y="1380" on="0"/>
        <pt x="1059" y="1253" on="1"/>
        <pt x="1059" y="1218" on="0"/>
        <pt x="1053" y="1173" on="1"/>
        <pt x="1048" y="1131" on="0"/>
        <pt x="1048" y="1131" on="1"/>
        <pt x="1117" y="1055" on="0"/>
      </contour>
      <contour>
        <pt x="800" y="1067" on="1"/>
        <pt x="800" y="1036" on="0"/>
        <pt x="755" y="991" on="1"/>
        <pt x="694" y="1022" on="0"/>
        <pt x="677" y="1022" on="1"/>
        <pt x="687" y="1022" on="0"/>
        <pt x="404" y="786" on="0"/>
        <pt x="345" y="786" on="1"/>
        <pt x="313" y="786" on="0"/>
        <pt x="298" y="800" on="1"/>
        <pt x="319" y="845" on="0"/>
        <pt x="417" y="921" on="1"/>
        <pt x="537" y="1016" on="0"/>
        <pt x="575" y="1058" on="1"/>
        <pt x="503" y="1142" on="0"/>
        <pt x="503" y="1185" on="1"/>
        <pt x="503" y="1237" on="0"/>
        <pt x="547" y="1306" on="1"/>
        <pt x="600" y="1390" on="0"/>
        <pt x="672" y="1390" on="1"/>
        <pt x="755" y="1390" on="0"/>
        <pt x="755" y="1262" on="1"/>
        <pt x="755" y="1259" on="0"/>
        <pt x="731" y="1161" on="1"/>
        <pt x="800" y="1085" on="0"/>
      </contour>
      <contour>
        <pt x="2929" y="182" on="1"/>
        <pt x="2929" y="145" on="0"/>
        <pt x="2867" y="59" on="0"/>
        <pt x="2842" y="59" on="1"/>
        <pt x="2771" y="59" on="1"/>
        <pt x="2708" y="59" on="0"/>
        <pt x="2547" y="152" on="1"/>
        <pt x="2430" y="-32" on="0"/>
        <pt x="2269" y="-32" on="1"/>
        <pt x="2187" y="-32" on="1"/>
        <pt x="2085" y="-32" on="0"/>
        <pt x="1961" y="1" on="1"/>
        <pt x="1948" y="4" on="0"/>
        <pt x="1893" y="29" on="1"/>
        <pt x="1848" y="49" on="0"/>
        <pt x="1829" y="49" on="1"/>
        <pt x="1816" y="49" on="0"/>
        <pt x="1535" y="-12" on="0"/>
        <pt x="1522" y="-12" on="1"/>
        <pt x="1415" y="-12" on="0"/>
        <pt x="1348" y="41" on="1"/>
        <pt x="1312" y="69" on="0"/>
        <pt x="1265" y="139" on="1"/>
        <pt x="1230" y="193" on="0"/>
        <pt x="1204" y="193" on="1"/>
        <pt x="1136" y="193" on="0"/>
        <pt x="889" y="97" on="1"/>
        <pt x="862" y="87" on="0"/>
        <pt x="841" y="65" on="1"/>
        <pt x="906" y="18" on="0"/>
        <pt x="1055" y="-63" on="1"/>
        <pt x="1059" y="-72" on="0"/>
        <pt x="1059" y="-86" on="1"/>
        <pt x="1059" y="-131" on="0"/>
        <pt x="1032" y="-176" on="1"/>
        <pt x="1003" y="-227" on="0"/>
        <pt x="964" y="-227" on="1"/>
        <pt x="951" y="-227" on="0"/>
        <pt x="849" y="-217" on="0"/>
        <pt x="836" y="-217" on="1"/>
        <pt x="811" y="-217" on="0"/>
        <pt x="744" y="-231" on="1"/>
        <pt x="657" y="-249" on="0"/>
        <pt x="566" y="-297" on="1"/>
        <pt x="564" y="-303" on="0"/>
        <pt x="564" y="-349" on="1"/>
        <pt x="646" y="-949" on="1"/>
        <pt x="635" y="-987" on="0"/>
        <pt x="602" y="-1056" on="1"/>
        <pt x="555" y="-1037" on="0"/>
        <pt x="547" y="-991" on="1"/>
        <pt x="522" y="-860" on="0"/>
        <pt x="491" y="-635" on="1"/>
        <pt x="462" y="-430" on="0"/>
        <pt x="462" y="-406" on="1"/>
        <pt x="462" y="-290" on="0"/>
        <pt x="513" y="-216" on="1"/>
        <pt x="554" y="-157" on="0"/>
        <pt x="667" y="-78" on="1"/>
        <pt x="659" y="-72" on="0"/>
        <pt x="634" y="-82" on="1"/>
        <pt x="590" y="-99" on="0"/>
        <pt x="577" y="-103" on="1"/>
        <pt x="577" y="-99" on="0"/>
        <pt x="564" y="-83" on="0"/>
        <pt x="564" y="-68" on="1"/>
        <pt x="564" y="31" on="0"/>
        <pt x="833" y="218" on="1"/>
        <pt x="898" y="263" on="0"/>
        <pt x="1184" y="356" on="0"/>
        <pt x="1261" y="356" on="1"/>
        <pt x="1313" y="356" on="0"/>
        <pt x="1347" y="331" on="1"/>
        <pt x="1359" y="304" on="0"/>
        <pt x="1385" y="251" on="1"/>
        <pt x="1436" y="161" on="0"/>
        <pt x="1552" y="161" on="1"/>
        <pt x="1596" y="161" on="0"/>
        <pt x="1655" y="172" on="1"/>
        <pt x="1721" y="184" on="0"/>
        <pt x="1728" y="198" on="1"/>
        <pt x="1723" y="318" on="0"/>
        <pt x="1793" y="451" on="1"/>
        <pt x="1873" y="602" on="0"/>
        <pt x="1982" y="602" on="1"/>
        <pt x="2066" y="602" on="0"/>
        <pt x="2108" y="505" on="1"/>
        <pt x="2141" y="432" on="0"/>
        <pt x="2141" y="336" on="1"/>
        <pt x="2141" y="297" on="0"/>
        <pt x="2123" y="268" on="1"/>
        <pt x="2096" y="227" on="0"/>
        <pt x="2069" y="186" on="1"/>
        <pt x="2078" y="141" on="0"/>
        <pt x="2239" y="141" on="1"/>
        <pt x="2353" y="141" on="0"/>
        <pt x="2478" y="217" on="0"/>
        <pt x="2534" y="323" on="1"/>
        <pt x="2555" y="363" on="0"/>
        <pt x="2616" y="437" on="1"/>
        <pt x="2693" y="530" on="0"/>
        <pt x="2730" y="530" on="1"/>
        <pt x="2751" y="530" on="0"/>
        <pt x="2811" y="488" on="1"/>
        <pt x="2824" y="479" on="0"/>
        <pt x="2876" y="349" on="1"/>
        <pt x="2929" y="215" on="0"/>
      </contour>
      <contour>
        <pt x="2786" y="1591" on="1"/>
        <pt x="2776" y="1602" on="0"/>
        <pt x="2774" y="1615" on="1"/>
        <pt x="2738" y="1615" on="1"/>
        <pt x="2715" y="1593" on="0"/>
        <pt x="2715" y="1577" on="1"/>
        <pt x="2738" y="1565" on="0"/>
        <pt x="2772" y="1544" on="1"/>
      </contour>
      <contour>
        <pt x="2744" y="271" on="1"/>
        <pt x="2725" y="338" on="0"/>
        <pt x="2688" y="356" on="1"/>
        <pt x="2653" y="321" on="0"/>
        <pt x="2653" y="310" on="1"/>
        <pt x="2653" y="271" on="0"/>
      </contour>
      <contour>
        <pt x="2018" y="306" on="1"/>
        <pt x="2018" y="344" on="0"/>
        <pt x="2002" y="381" on="1"/>
        <pt x="1983" y="428" on="0"/>
        <pt x="1952" y="428" on="1"/>
        <pt x="1910" y="428" on="0"/>
        <pt x="1870" y="374" on="1"/>
        <pt x="1834" y="325" on="0"/>
        <pt x="1834" y="289" on="1"/>
        <pt x="1834" y="271" on="0"/>
        <pt x="1875" y="243" on="0"/>
        <pt x="1895" y="243" on="1"/>
        <pt x="1908" y="243" on="0"/>
        <pt x="1951" y="269" on="1"/>
        <pt x="2006" y="301" on="0"/>
      </contour>
      <contour>
        <pt x="984" y="1198" on="1"/>
        <pt x="966" y="1235" on="0"/>
        <pt x="935" y="1235" on="1"/>
        <pt x="935" y="1186" on="1"/>
      </contour>
      <contour>
        <pt x="665" y="1197" on="1"/>
        <pt x="665" y="1215" on="0"/>
        <pt x="655" y="1253" on="0"/>
        <pt x="655" y="1256" on="1"/>
        <pt x="644" y="1256" on="0"/>
        <pt x="611" y="1245" on="0"/>
        <pt x="607" y="1245" on="1"/>
        <pt x="607" y="1240" on="0"/>
        <pt x="617" y="1203" on="0"/>
        <pt x="617" y="1197" on="1"/>
      </contour>
    </TTGlyph>
    <TTGlyph name="uni2011" xMin="298" yMin="-1056" xMax="2960" yMax="1759">
      <contour>
        <pt x="2253" y="-258" on="1"/>
        <pt x="2253" y="-311" on="0"/>
        <pt x="2210" y="-336" on="1"/>
        <pt x="2099" y="-402" on="0"/>
        <pt x="1765" y="-565" on="0"/>
        <pt x="1746" y="-564" on="1"/>
        <pt x="1681" y="-564" on="1"/>
        <pt x="1681" y="-510" on="1"/>
        <pt x="1681" y="-474" on="0"/>
        <pt x="1850" y="-392" on="1"/>
        <pt x="1956" y="-342" on="0"/>
        <pt x="2062" y="-293" on="1"/>
        <pt x="2175" y="-227" on="0"/>
        <pt x="2199" y="-227" on="1"/>
        <pt x="2241" y="-227" on="1"/>
        <pt x="2253" y="-240" on="0"/>
      </contour>
      <contour>
        <pt x="1506" y="-335" on="1"/>
        <pt x="1506" y="-365" on="0"/>
        <pt x="1453" y="-406" on="1"/>
        <pt x="1406" y="-442" on="0"/>
        <pt x="1388" y="-442" on="1"/>
        <pt x="1371" y="-442" on="0"/>
        <pt x="1319" y="-401" on="0"/>
        <pt x="1306" y="-401" on="1"/>
        <pt x="1294" y="-401" on="0"/>
        <pt x="1217" y="-462" on="0"/>
        <pt x="1204" y="-462" on="1"/>
        <pt x="1164" y="-462" on="0"/>
        <pt x="1129" y="-430" on="1"/>
        <pt x="1097" y="-400" on="0"/>
        <pt x="1097" y="-376" on="1"/>
        <pt x="1097" y="-335" on="0"/>
        <pt x="1129" y="-300" on="1"/>
        <pt x="1159" y="-268" on="0"/>
        <pt x="1189" y="-268" on="1"/>
        <pt x="1200" y="-268" on="0"/>
        <pt x="1258" y="-299" on="0"/>
        <pt x="1271" y="-299" on="1"/>
        <pt x="1283" y="-299" on="0"/>
        <pt x="1365" y="-227" on="0"/>
        <pt x="1379" y="-227" on="1"/>
        <pt x="1398" y="-227" on="0"/>
        <pt x="1506" y="-316" on="0"/>
      </contour>
      <contour>
        <pt x="2960" y="1385" on="1"/>
        <pt x="2960" y="1367" on="0"/>
        <pt x="2923" y="1329" on="0"/>
        <pt x="2904" y="1329" on="1"/>
        <pt x="2892" y="1329" on="0"/>
        <pt x="2815" y="1370" on="0"/>
        <pt x="2801" y="1370" on="1"/>
        <pt x="2811" y="1370" on="0"/>
        <pt x="2437" y="1103" on="0"/>
        <pt x="2371" y="1103" on="1"/>
        <pt x="2339" y="1103" on="0"/>
        <pt x="2326" y="1117" on="1"/>
        <pt x="2326" y="1125" on="0"/>
        <pt x="2329" y="1142" on="1"/>
        <pt x="2450" y="1228" on="0"/>
        <pt x="2694" y="1416" on="1"/>
        <pt x="2688" y="1425" on="0"/>
        <pt x="2637" y="1480" on="1"/>
        <pt x="2602" y="1518" on="0"/>
        <pt x="2602" y="1538" on="1"/>
        <pt x="2602" y="1577" on="0"/>
        <pt x="2662" y="1661" on="1"/>
        <pt x="2731" y="1759" on="0"/>
        <pt x="2792" y="1759" on="1"/>
        <pt x="2874" y="1759" on="0"/>
        <pt x="2874" y="1625" on="1"/>
        <pt x="2874" y="1556" on="0"/>
        <pt x="2860" y="1511" on="1"/>
        <pt x="2892" y="1479" on="0"/>
        <pt x="2924" y="1448" on="1"/>
        <pt x="2960" y="1413" on="0"/>
      </contour>
      <contour>
        <pt x="2929" y="1083" on="1"/>
        <pt x="2929" y="996" on="0"/>
        <pt x="2836" y="913" on="1"/>
        <pt x="2823" y="902" on="0"/>
        <pt x="2782" y="891" on="1"/>
        <pt x="2730" y="878" on="0"/>
        <pt x="2722" y="875" on="1"/>
        <pt x="2634" y="837" on="0"/>
        <pt x="2628" y="837" on="1"/>
        <pt x="2596" y="837" on="0"/>
        <pt x="2551" y="886" on="0"/>
        <pt x="2551" y="919" on="1"/>
        <pt x="2551" y="938" on="0"/>
        <pt x="2604" y="1072" on="1"/>
        <pt x="2609" y="1072" on="0"/>
        <pt x="2635" y="1082" on="0"/>
        <pt x="2640" y="1082" on="1"/>
        <pt x="2660" y="1049" on="0"/>
        <pt x="2643" y="997" on="1"/>
        <pt x="2659" y="981" on="0"/>
        <pt x="2674" y="981" on="1"/>
        <pt x="2700" y="981" on="0"/>
        <pt x="2720" y="1036" on="1"/>
        <pt x="2729" y="1067" on="0"/>
        <pt x="2739" y="1098" on="1"/>
        <pt x="2744" y="1101" on="0"/>
        <pt x="2759" y="1113" on="1"/>
        <pt x="2789" y="1113" on="0"/>
        <pt x="2799" y="1082" on="1"/>
        <pt x="2806" y="1057" on="0"/>
        <pt x="2814" y="1031" on="1"/>
        <pt x="2842" y="1037" on="0"/>
        <pt x="2854" y="1081" on="1"/>
        <pt x="2869" y="1139" on="0"/>
        <pt x="2883" y="1154" on="1"/>
        <pt x="2929" y="1128" on="0"/>
      </contour>
      <contour>
        <pt x="2090" y="914" on="1"/>
        <pt x="2090" y="878" on="0"/>
        <pt x="2046" y="840" on="1"/>
        <pt x="2008" y="807" on="0"/>
        <pt x="1988" y="807" on="1"/>
        <pt x="1978" y="807" on="0"/>
        <pt x="1924" y="837" on="0"/>
        <pt x="1911" y="837" on="1"/>
        <pt x="1898" y="837" on="0"/>
        <pt x="1816" y="776" on="0"/>
        <pt x="1804" y="776" on="1"/>
        <pt x="1776" y="776" on="0"/>
        <pt x="1691" y="838" on="0"/>
        <pt x="1691" y="863" on="1"/>
        <pt x="1691" y="889" on="0"/>
        <pt x="1735" y="931" on="1"/>
        <pt x="1777" y="971" on="0"/>
        <pt x="1793" y="971" on="1"/>
        <pt x="1806" y="971" on="0"/>
        <pt x="1868" y="930" on="0"/>
        <pt x="1880" y="930" on="1"/>
        <pt x="1893" y="930" on="0"/>
        <pt x="1970" y="1001" on="0"/>
        <pt x="1982" y="1001" on="1"/>
        <pt x="2007" y="1001" on="0"/>
        <pt x="2046" y="974" on="1"/>
        <pt x="2090" y="945" on="0"/>
      </contour>
      <contour>
        <pt x="1117" y="1037" on="1"/>
        <pt x="1117" y="995" on="0"/>
        <pt x="1083" y="960" on="1"/>
        <pt x="1073" y="963" on="0"/>
        <pt x="1031" y="985" on="1"/>
        <pt x="999" y="1001" on="0"/>
        <pt x="984" y="1001" on="1"/>
        <pt x="989" y="1001" on="0"/>
        <pt x="844" y="888" on="1"/>
        <pt x="691" y="768" on="0"/>
        <pt x="578" y="745" on="1"/>
        <pt x="554" y="769" on="0"/>
        <pt x="554" y="781" on="1"/>
        <pt x="554" y="795" on="0"/>
        <pt x="675" y="891" on="1"/>
        <pt x="824" y="1011" on="0"/>
        <pt x="871" y="1058" on="1"/>
        <pt x="859" y="1094" on="0"/>
        <pt x="830" y="1108" on="1"/>
        <pt x="810" y="1118" on="0"/>
        <pt x="810" y="1170" on="1"/>
        <pt x="810" y="1220" on="0"/>
        <pt x="860" y="1294" on="1"/>
        <pt x="918" y="1380" on="0"/>
        <pt x="984" y="1380" on="1"/>
        <pt x="1059" y="1380" on="0"/>
        <pt x="1059" y="1253" on="1"/>
        <pt x="1059" y="1218" on="0"/>
        <pt x="1053" y="1173" on="1"/>
        <pt x="1048" y="1131" on="0"/>
        <pt x="1048" y="1131" on="1"/>
        <pt x="1117" y="1055" on="0"/>
      </contour>
      <contour>
        <pt x="800" y="1067" on="1"/>
        <pt x="800" y="1036" on="0"/>
        <pt x="755" y="991" on="1"/>
        <pt x="694" y="1022" on="0"/>
        <pt x="677" y="1022" on="1"/>
        <pt x="687" y="1022" on="0"/>
        <pt x="404" y="786" on="0"/>
        <pt x="345" y="786" on="1"/>
        <pt x="313" y="786" on="0"/>
        <pt x="298" y="800" on="1"/>
        <pt x="319" y="845" on="0"/>
        <pt x="417" y="921" on="1"/>
        <pt x="537" y="1016" on="0"/>
        <pt x="575" y="1058" on="1"/>
        <pt x="503" y="1142" on="0"/>
        <pt x="503" y="1185" on="1"/>
        <pt x="503" y="1237" on="0"/>
        <pt x="547" y="1306" on="1"/>
        <pt x="600" y="1390" on="0"/>
        <pt x="672" y="1390" on="1"/>
        <pt x="755" y="1390" on="0"/>
        <pt x="755" y="1262" on="1"/>
        <pt x="755" y="1259" on="0"/>
        <pt x="731" y="1161" on="1"/>
        <pt x="800" y="1085" on="0"/>
      </contour>
      <contour>
        <pt x="2929" y="182" on="1"/>
        <pt x="2929" y="145" on="0"/>
        <pt x="2867" y="59" on="0"/>
        <pt x="2842" y="59" on="1"/>
        <pt x="2771" y="59" on="1"/>
        <pt x="2708" y="59" on="0"/>
        <pt x="2547" y="152" on="1"/>
        <pt x="2430" y="-32" on="0"/>
        <pt x="2269" y="-32" on="1"/>
        <pt x="2187" y="-32" on="1"/>
        <pt x="2085" y="-32" on="0"/>
        <pt x="1961" y="1" on="1"/>
        <pt x="1948" y="4" on="0"/>
        <pt x="1893" y="29" on="1"/>
        <pt x="1848" y="49" on="0"/>
        <pt x="1829" y="49" on="1"/>
        <pt x="1816" y="49" on="0"/>
        <pt x="1535" y="-12" on="0"/>
        <pt x="1522" y="-12" on="1"/>
        <pt x="1415" y="-12" on="0"/>
        <pt x="1348" y="41" on="1"/>
        <pt x="1312" y="69" on="0"/>
        <pt x="1265" y="139" on="1"/>
        <pt x="1230" y="193" on="0"/>
        <pt x="1204" y="193" on="1"/>
        <pt x="1136" y="193" on="0"/>
        <pt x="889" y="97" on="1"/>
        <pt x="862" y="87" on="0"/>
        <pt x="841" y="65" on="1"/>
        <pt x="906" y="18" on="0"/>
        <pt x="1055" y="-63" on="1"/>
        <pt x="1059" y="-72" on="0"/>
        <pt x="1059" y="-86" on="1"/>
        <pt x="1059" y="-131" on="0"/>
        <pt x="1032" y="-176" on="1"/>
        <pt x="1003" y="-227" on="0"/>
        <pt x="964" y="-227" on="1"/>
        <pt x="951" y="-227" on="0"/>
        <pt x="849" y="-217" on="0"/>
        <pt x="836" y="-217" on="1"/>
        <pt x="811" y="-217" on="0"/>
        <pt x="744" y="-231" on="1"/>
        <pt x="657" y="-249" on="0"/>
        <pt x="566" y="-297" on="1"/>
        <pt x="564" y="-303" on="0"/>
        <pt x="564" y="-349" on="1"/>
        <pt x="646" y="-949" on="1"/>
        <pt x="635" y="-987" on="0"/>
        <pt x="602" y="-1056" on="1"/>
        <pt x="555" y="-1037" on="0"/>
        <pt x="547" y="-991" on="1"/>
        <pt x="522" y="-860" on="0"/>
        <pt x="491" y="-635" on="1"/>
        <pt x="462" y="-430" on="0"/>
        <pt x="462" y="-406" on="1"/>
        <pt x="462" y="-290" on="0"/>
        <pt x="513" y="-216" on="1"/>
        <pt x="554" y="-157" on="0"/>
        <pt x="667" y="-78" on="1"/>
        <pt x="659" y="-72" on="0"/>
        <pt x="634" y="-82" on="1"/>
        <pt x="590" y="-99" on="0"/>
        <pt x="577" y="-103" on="1"/>
        <pt x="577" y="-99" on="0"/>
        <pt x="564" y="-83" on="0"/>
        <pt x="564" y="-68" on="1"/>
        <pt x="564" y="31" on="0"/>
        <pt x="833" y="218" on="1"/>
        <pt x="898" y="263" on="0"/>
        <pt x="1184" y="356" on="0"/>
        <pt x="1261" y="356" on="1"/>
        <pt x="1313" y="356" on="0"/>
        <pt x="1347" y="331" on="1"/>
        <pt x="1359" y="304" on="0"/>
        <pt x="1385" y="251" on="1"/>
        <pt x="1436" y="161" on="0"/>
        <pt x="1552" y="161" on="1"/>
        <pt x="1596" y="161" on="0"/>
        <pt x="1655" y="172" on="1"/>
        <pt x="1721" y="184" on="0"/>
        <pt x="1728" y="198" on="1"/>
        <pt x="1723" y="318" on="0"/>
        <pt x="1793" y="451" on="1"/>
        <pt x="1873" y="602" on="0"/>
        <pt x="1982" y="602" on="1"/>
        <pt x="2066" y="602" on="0"/>
        <pt x="2108" y="505" on="1"/>
        <pt x="2141" y="432" on="0"/>
        <pt x="2141" y="336" on="1"/>
        <pt x="2141" y="297" on="0"/>
        <pt x="2123" y="268" on="1"/>
        <pt x="2096" y="227" on="0"/>
        <pt x="2069" y="186" on="1"/>
        <pt x="2078" y="141" on="0"/>
        <pt x="2239" y="141" on="1"/>
        <pt x="2353" y="141" on="0"/>
        <pt x="2478" y="217" on="0"/>
        <pt x="2534" y="323" on="1"/>
        <pt x="2555" y="363" on="0"/>
        <pt x="2616" y="437" on="1"/>
        <pt x="2693" y="530" on="0"/>
        <pt x="2730" y="530" on="1"/>
        <pt x="2751" y="530" on="0"/>
        <pt x="2811" y="488" on="1"/>
        <pt x="2824" y="479" on="0"/>
        <pt x="2876" y="349" on="1"/>
        <pt x="2929" y="215" on="0"/>
      </contour>
      <contour>
        <pt x="2786" y="1591" on="1"/>
        <pt x="2776" y="1602" on="0"/>
        <pt x="2774" y="1615" on="1"/>
        <pt x="2738" y="1615" on="1"/>
        <pt x="2715" y="1593" on="0"/>
        <pt x="2715" y="1577" on="1"/>
        <pt x="2738" y="1565" on="0"/>
        <pt x="2772" y="1544" on="1"/>
      </contour>
      <contour>
        <pt x="2744" y="271" on="1"/>
        <pt x="2725" y="338" on="0"/>
        <pt x="2688" y="356" on="1"/>
        <pt x="2653" y="321" on="0"/>
        <pt x="2653" y="310" on="1"/>
        <pt x="2653" y="271" on="0"/>
      </contour>
      <contour>
        <pt x="2018" y="306" on="1"/>
        <pt x="2018" y="344" on="0"/>
        <pt x="2002" y="381" on="1"/>
        <pt x="1983" y="428" on="0"/>
        <pt x="1952" y="428" on="1"/>
        <pt x="1910" y="428" on="0"/>
        <pt x="1870" y="374" on="1"/>
        <pt x="1834" y="325" on="0"/>
        <pt x="1834" y="289" on="1"/>
        <pt x="1834" y="271" on="0"/>
        <pt x="1875" y="243" on="0"/>
        <pt x="1895" y="243" on="1"/>
        <pt x="1908" y="243" on="0"/>
        <pt x="1951" y="269" on="1"/>
        <pt x="2006" y="301" on="0"/>
      </contour>
      <contour>
        <pt x="984" y="1198" on="1"/>
        <pt x="966" y="1235" on="0"/>
        <pt x="935" y="1235" on="1"/>
        <pt x="935" y="1186" on="1"/>
      </contour>
      <contour>
        <pt x="665" y="1197" on="1"/>
        <pt x="665" y="1215" on="0"/>
        <pt x="655" y="1253" on="0"/>
        <pt x="655" y="1256" on="1"/>
        <pt x="644" y="1256" on="0"/>
        <pt x="611" y="1245" on="0"/>
        <pt x="607" y="1245" on="1"/>
        <pt x="607" y="1240" on="0"/>
        <pt x="617" y="1203" on="0"/>
        <pt x="617" y="1197" on="1"/>
      </contour>
    </TTGlyph>
    <TTGlyph name="uniE000" xMin="0" yMin="0" xMax="2340" yMax="2340">
      <contour>
        <pt x="0" y="2340" on="1"/>
        <pt x="2340" y="2340" on="1"/>
        <pt x="2340" y="0" on="1"/>
        <pt x="0" y="0" on="1"/>
      </contour>
    </TTGlyph>
    <TTGlyph name="uniFB51" xMin="420" yMin="-743" xMax="5897" yMax="1498">
      <contour>
        <pt x="5692" y="936" on="1"/>
        <pt x="5692" y="899" on="0"/>
        <pt x="5647" y="854" on="1"/>
        <pt x="5635" y="858" on="0"/>
        <pt x="5602" y="883" on="1"/>
        <pt x="5573" y="905" on="0"/>
        <pt x="5559" y="905" on="1"/>
        <pt x="5547" y="905" on="0"/>
        <pt x="5511" y="872" on="1"/>
        <pt x="5464" y="832" on="0"/>
        <pt x="5454" y="827" on="1"/>
        <pt x="5421" y="806" on="0"/>
        <pt x="5194" y="721" on="1"/>
        <pt x="5171" y="745" on="1"/>
        <pt x="5189" y="791" on="0"/>
        <pt x="5303" y="853" on="1"/>
        <pt x="5435" y="924" on="0"/>
        <pt x="5477" y="972" on="1"/>
        <pt x="5470" y="987" on="0"/>
        <pt x="5429" y="1038" on="1"/>
        <pt x="5395" y="1081" on="0"/>
        <pt x="5395" y="1094" on="1"/>
        <pt x="5395" y="1135" on="0"/>
        <pt x="5452" y="1217" on="1"/>
        <pt x="5519" y="1315" on="0"/>
        <pt x="5585" y="1315" on="1"/>
        <pt x="5619" y="1315" on="0"/>
        <pt x="5646" y="1281" on="1"/>
        <pt x="5672" y="1251" on="0"/>
        <pt x="5672" y="1222" on="1"/>
        <pt x="5672" y="1209" on="0"/>
        <pt x="5631" y="1066" on="0"/>
        <pt x="5631" y="1053" on="1"/>
        <pt x="5631" y="1045" on="0"/>
        <pt x="5692" y="964" on="0"/>
      </contour>
      <contour>
        <pt x="5743" y="234" on="1"/>
        <pt x="5743" y="100" on="0"/>
        <pt x="5707" y="66" on="1"/>
        <pt x="5677" y="39" on="0"/>
        <pt x="5604" y="17" on="1"/>
        <pt x="5526" y="-5" on="0"/>
        <pt x="5498" y="-26" on="1"/>
        <pt x="5488" y="-33" on="0"/>
        <pt x="5482" y="-67" on="1"/>
        <pt x="5475" y="-109" on="0"/>
        <pt x="5473" y="-115" on="1"/>
        <pt x="5343" y="-436" on="0"/>
        <pt x="5068" y="-436" on="1"/>
        <pt x="4855" y="-436" on="0"/>
        <pt x="4791" y="-349" on="1"/>
        <pt x="4804" y="-324" on="1"/>
        <pt x="4831" y="-318" on="0"/>
        <pt x="4897" y="-325" on="1"/>
        <pt x="4977" y="-334" on="0"/>
        <pt x="4976" y="-334" on="1"/>
        <pt x="5100" y="-334" on="0"/>
        <pt x="5238" y="-223" on="1"/>
        <pt x="5370" y="-117" on="0"/>
        <pt x="5385" y="-22" on="1"/>
        <pt x="5352" y="4" on="0"/>
        <pt x="5320" y="29" on="1"/>
        <pt x="5293" y="56" on="0"/>
        <pt x="5293" y="96" on="1"/>
        <pt x="5293" y="131" on="0"/>
        <pt x="5327" y="188" on="1"/>
        <pt x="5418" y="157" on="0"/>
        <pt x="5472" y="157" on="1"/>
        <pt x="5525" y="157" on="0"/>
        <pt x="5621" y="197" on="1"/>
        <pt x="5621" y="223" on="1"/>
        <pt x="5596" y="258" on="0"/>
        <pt x="5551" y="335" on="1"/>
        <pt x="5549" y="347" on="0"/>
        <pt x="5549" y="378" on="1"/>
        <pt x="5549" y="419" on="0"/>
        <pt x="5593" y="485" on="1"/>
        <pt x="5628" y="478" on="0"/>
        <pt x="5684" y="390" on="1"/>
        <pt x="5743" y="297" on="0"/>
      </contour>
      <contour>
        <pt x="5897" y="-451" on="1"/>
        <pt x="5897" y="-485" on="0"/>
        <pt x="5853" y="-524" on="1"/>
        <pt x="5814" y="-559" on="0"/>
        <pt x="5795" y="-559" on="1"/>
        <pt x="5774" y="-559" on="0"/>
        <pt x="5697" y="-507" on="1"/>
        <pt x="5602" y="-579" on="0"/>
        <pt x="5579" y="-579" on="1"/>
        <pt x="5549" y="-579" on="0"/>
        <pt x="5511" y="-545" on="1"/>
        <pt x="5477" y="-514" on="0"/>
        <pt x="5477" y="-498" on="1"/>
        <pt x="5477" y="-462" on="0"/>
        <pt x="5520" y="-421" on="1"/>
        <pt x="5558" y="-385" on="0"/>
        <pt x="5579" y="-385" on="1"/>
        <pt x="5597" y="-385" on="0"/>
        <pt x="5656" y="-425" on="0"/>
        <pt x="5667" y="-425" on="1"/>
        <pt x="5679" y="-425" on="0"/>
        <pt x="5766" y="-354" on="0"/>
        <pt x="5779" y="-354" on="1"/>
        <pt x="5810" y="-354" on="0"/>
        <pt x="5855" y="-398" on="1"/>
        <pt x="5897" y="-437" on="0"/>
      </contour>
      <contour>
        <pt x="4331" y="1125" on="1"/>
        <pt x="4331" y="1112" on="0"/>
        <pt x="4319" y="1090" on="0"/>
        <pt x="4319" y="1081" on="1"/>
        <pt x="4315" y="1081" on="0"/>
        <pt x="4294" y="1069" on="0"/>
        <pt x="4279" y="1069" on="1"/>
        <pt x="4270" y="1069" on="0"/>
        <pt x="4213" y="1110" on="0"/>
        <pt x="4197" y="1110" on="1"/>
        <pt x="4183" y="1110" on="0"/>
        <pt x="4144" y="1072" on="1"/>
        <pt x="4114" y="1041" on="0"/>
        <pt x="4083" y="1011" on="1"/>
        <pt x="4032" y="965" on="0"/>
        <pt x="3927" y="911" on="1"/>
        <pt x="3840" y="868" on="0"/>
        <pt x="3753" y="823" on="1"/>
        <pt x="3686" y="836" on="1"/>
        <pt x="3731" y="899" on="0"/>
        <pt x="3866" y="981" on="1"/>
        <pt x="4017" y="1073" on="0"/>
        <pt x="4095" y="1156" on="1"/>
        <pt x="4088" y="1167" on="0"/>
        <pt x="4040" y="1217" on="1"/>
        <pt x="4003" y="1256" on="0"/>
        <pt x="4003" y="1274" on="1"/>
        <pt x="4003" y="1321" on="0"/>
        <pt x="4049" y="1403" on="1"/>
        <pt x="4103" y="1498" on="0"/>
        <pt x="4161" y="1498" on="1"/>
        <pt x="4247" y="1498" on="0"/>
        <pt x="4247" y="1362" on="1"/>
        <pt x="4247" y="1337" on="0"/>
        <pt x="4244" y="1302" on="1"/>
        <pt x="4241" y="1263" on="0"/>
        <pt x="4241" y="1260" on="1"/>
        <pt x="4331" y="1181" on="0"/>
      </contour>
      <contour>
        <pt x="4853" y="214" on="1"/>
        <pt x="4853" y="105" on="0"/>
        <pt x="4808" y="17" on="1"/>
        <pt x="4790" y="-17" on="0"/>
        <pt x="4726" y="-34" on="1"/>
        <pt x="4677" y="-47" on="0"/>
        <pt x="4591" y="-47" on="1"/>
        <pt x="4525" y="-47" on="0"/>
        <pt x="4372" y="67" on="0"/>
        <pt x="4345" y="137" on="1"/>
        <pt x="4189" y="-27" on="0"/>
        <pt x="3936" y="-27" on="1"/>
        <pt x="3870" y="-27" on="0"/>
        <pt x="3816" y="0" on="1"/>
        <pt x="3747" y="33" on="0"/>
        <pt x="3747" y="96" on="1"/>
        <pt x="3747" y="148" on="0"/>
        <pt x="3803" y="209" on="1"/>
        <pt x="3829" y="184" on="0"/>
        <pt x="3857" y="170" on="1"/>
        <pt x="3904" y="147" on="0"/>
        <pt x="3972" y="147" on="1"/>
        <pt x="4043" y="147" on="0"/>
        <pt x="4156" y="175" on="1"/>
        <pt x="4310" y="213" on="0"/>
        <pt x="4310" y="270" on="1"/>
        <pt x="4310" y="278" on="0"/>
        <pt x="4277" y="378" on="1"/>
        <pt x="4241" y="489" on="0"/>
        <pt x="4231" y="551" on="1"/>
        <pt x="4228" y="567" on="0"/>
        <pt x="4228" y="628" on="1"/>
        <pt x="4228" y="745" on="0"/>
        <pt x="4273" y="772" on="1"/>
        <pt x="4278" y="772" on="0"/>
        <pt x="4305" y="755" on="1"/>
        <pt x="4308" y="747" on="0"/>
        <pt x="4366" y="504" on="1"/>
        <pt x="4405" y="347" on="0"/>
        <pt x="4446" y="247" on="1"/>
        <pt x="4457" y="218" on="0"/>
        <pt x="4505" y="176" on="1"/>
        <pt x="4559" y="130" on="0"/>
        <pt x="4591" y="129" on="1"/>
        <pt x="4592" y="129" on="0"/>
        <pt x="4612" y="128" on="1"/>
        <pt x="4629" y="127" on="0"/>
        <pt x="4643" y="127" on="1"/>
        <pt x="4700" y="127" on="0"/>
        <pt x="4740" y="154" on="1"/>
        <pt x="4731" y="178" on="0"/>
        <pt x="4686" y="245" on="1"/>
        <pt x="4648" y="303" on="0"/>
        <pt x="4648" y="316" on="1"/>
        <pt x="4648" y="370" on="0"/>
        <pt x="4703" y="444" on="1"/>
        <pt x="4745" y="431" on="0"/>
        <pt x="4800" y="338" on="1"/>
        <pt x="4853" y="251" on="0"/>
      </contour>
      <contour>
        <pt x="5324" y="-533" on="1"/>
        <pt x="5324" y="-593" on="0"/>
        <pt x="5270" y="-617" on="1"/>
        <pt x="5188" y="-655" on="0"/>
        <pt x="5049" y="-700" on="1"/>
        <pt x="4919" y="-743" on="0"/>
        <pt x="4898" y="-743" on="1"/>
        <pt x="4843" y="-743" on="1"/>
        <pt x="4843" y="-688" on="1"/>
        <pt x="4842" y="-627" on="0"/>
        <pt x="5310" y="-498" on="1"/>
        <pt x="5324" y="-512" on="0"/>
      </contour>
      <contour>
        <pt x="4668" y="-436" on="1"/>
        <pt x="4668" y="-470" on="0"/>
        <pt x="4606" y="-539" on="0"/>
        <pt x="4582" y="-539" on="1"/>
        <pt x="4568" y="-539" on="0"/>
        <pt x="4497" y="-498" on="0"/>
        <pt x="4484" y="-498" on="1"/>
        <pt x="4472" y="-498" on="0"/>
        <pt x="4405" y="-559" on="0"/>
        <pt x="4377" y="-559" on="1"/>
        <pt x="4370" y="-559" on="0"/>
        <pt x="4269" y="-496" on="1"/>
        <pt x="4272" y="-470" on="0"/>
        <pt x="4297" y="-418" on="1"/>
        <pt x="4329" y="-354" on="0"/>
        <pt x="4361" y="-354" on="1"/>
        <pt x="4373" y="-354" on="0"/>
        <pt x="4455" y="-405" on="0"/>
        <pt x="4468" y="-405" on="1"/>
        <pt x="4477" y="-405" on="0"/>
        <pt x="4544" y="-344" on="0"/>
        <pt x="4561" y="-344" on="1"/>
        <pt x="4602" y="-344" on="0"/>
        <pt x="4668" y="-404" on="0"/>
      </contour>
      <contour>
        <pt x="3655" y="255" on="1"/>
        <pt x="3655" y="149" on="0"/>
        <pt x="3581" y="13" on="1"/>
        <pt x="3503" y="-129" on="0"/>
        <pt x="3396" y="-197" on="1"/>
        <pt x="3327" y="-241" on="0"/>
        <pt x="3281" y="-241" on="1"/>
        <pt x="3268" y="-241" on="0"/>
        <pt x="3171" y="-252" on="0"/>
        <pt x="3159" y="-252" on="1"/>
        <pt x="3128" y="-252" on="0"/>
        <pt x="3041" y="-241" on="1"/>
        <pt x="2926" y="-226" on="0"/>
        <pt x="2898" y="-208" on="1"/>
        <pt x="2898" y="-183" on="0"/>
        <pt x="2910" y="-170" on="1"/>
        <pt x="2994" y="-165" on="0"/>
        <pt x="3158" y="-147" on="1"/>
        <pt x="3245" y="-131" on="0"/>
        <pt x="3373" y="-27" on="1"/>
        <pt x="3513" y="85" on="0"/>
        <pt x="3553" y="194" on="1"/>
        <pt x="3553" y="232" on="1"/>
        <pt x="3561" y="239" on="0"/>
        <pt x="3537" y="239" on="1"/>
        <pt x="3540" y="239" on="0"/>
        <pt x="3454" y="178" on="0"/>
        <pt x="3399" y="178" on="1"/>
        <pt x="3332" y="178" on="0"/>
        <pt x="3295" y="233" on="1"/>
        <pt x="3266" y="278" on="0"/>
        <pt x="3266" y="332" on="1"/>
        <pt x="3266" y="395" on="0"/>
        <pt x="3305" y="483" on="1"/>
        <pt x="3358" y="598" on="0"/>
        <pt x="3435" y="598" on="1"/>
        <pt x="3537" y="598" on="0"/>
        <pt x="3603" y="452" on="1"/>
        <pt x="3655" y="341" on="0"/>
      </contour>
      <contour>
        <pt x="2559" y="1325" on="1"/>
        <pt x="2559" y="1230" on="0"/>
        <pt x="2362" y="1167" on="1"/>
        <pt x="2289" y="1140" on="0"/>
        <pt x="2147" y="1085" on="1"/>
        <pt x="2001" y="1034" on="0"/>
        <pt x="1717" y="922" on="1"/>
        <pt x="1342" y="763" on="0"/>
        <pt x="854" y="537" on="1"/>
        <pt x="840" y="548" on="0"/>
        <pt x="830" y="548" on="1"/>
        <pt x="830" y="581" on="1"/>
        <pt x="830" y="655" on="0"/>
        <pt x="1047" y="763" on="1"/>
        <pt x="1054" y="768" on="0"/>
        <pt x="1283" y="866" on="1"/>
        <pt x="1792" y="1086" on="0"/>
        <pt x="2112" y="1208" on="1"/>
        <pt x="2240" y="1256" on="0"/>
        <pt x="2502" y="1355" on="1"/>
        <pt x="2546" y="1355" on="1"/>
        <pt x="2559" y="1342" on="0"/>
      </contour>
      <contour>
        <pt x="1863" y="419" on="1"/>
        <pt x="1863" y="391" on="0"/>
        <pt x="1818" y="355" on="1"/>
        <pt x="1777" y="321" on="0"/>
        <pt x="1755" y="321" on="1"/>
        <pt x="1725" y="321" on="0"/>
        <pt x="1638" y="396" on="0"/>
        <pt x="1638" y="424" on="1"/>
        <pt x="1638" y="449" on="0"/>
        <pt x="1711" y="537" on="0"/>
        <pt x="1730" y="537" on="1"/>
        <pt x="1767" y="537" on="0"/>
        <pt x="1818" y="483" on="1"/>
        <pt x="1863" y="435" on="0"/>
      </contour>
      <contour>
        <pt x="2969" y="373" on="1"/>
        <pt x="2969" y="21" on="0"/>
        <pt x="2310" y="-140" on="1"/>
        <pt x="1897" y="-241" on="0"/>
        <pt x="1447" y="-241" on="1"/>
        <pt x="1358" y="-241" on="1"/>
        <pt x="1211" y="-241" on="0"/>
        <pt x="950" y="-171" on="1"/>
        <pt x="638" y="-86" on="0"/>
        <pt x="567" y="19" on="1"/>
        <pt x="513" y="95" on="0"/>
        <pt x="420" y="243" on="1"/>
        <pt x="420" y="278" on="1"/>
        <pt x="446" y="301" on="1"/>
        <pt x="551" y="158" on="0"/>
        <pt x="853" y="42" on="1"/>
        <pt x="1136" y="-67" on="0"/>
        <pt x="1346" y="-67" on="1"/>
        <pt x="1776" y="-67" on="1"/>
        <pt x="1788" y="-67" on="0"/>
        <pt x="1854" y="-52" on="0"/>
        <pt x="1868" y="-50" on="1"/>
        <pt x="2398" y="-13" on="0"/>
        <pt x="2736" y="184" on="1"/>
        <pt x="2866" y="261" on="0"/>
        <pt x="2866" y="301" on="1"/>
        <pt x="2866" y="314" on="0"/>
        <pt x="2743" y="508" on="0"/>
        <pt x="2743" y="521" on="1"/>
        <pt x="2743" y="551" on="0"/>
        <pt x="2787" y="638" on="1"/>
        <pt x="2845" y="632" on="0"/>
        <pt x="2908" y="532" on="1"/>
        <pt x="2969" y="437" on="0"/>
      </contour>
      <contour>
        <pt x="5569" y="1111" on="1"/>
        <pt x="5569" y="1148" on="1"/>
        <pt x="5547" y="1170" on="0"/>
        <pt x="5531" y="1170" on="1"/>
        <pt x="5519" y="1134" on="1"/>
        <pt x="5542" y="1111" on="0"/>
      </contour>
      <contour>
        <pt x="4155" y="1294" on="1"/>
        <pt x="4155" y="1342" on="1"/>
        <pt x="4134" y="1366" on="0"/>
        <pt x="4119" y="1366" on="1"/>
        <pt x="4095" y="1340" on="1"/>
        <pt x="4106" y="1317" on="0"/>
      </contour>
      <contour>
        <pt x="3470" y="390" on="1"/>
        <pt x="3437" y="423" on="0"/>
        <pt x="3412" y="423" on="1"/>
        <pt x="3389" y="378" on="0"/>
        <pt x="3401" y="353" on="1"/>
        <pt x="3447" y="353" on="1"/>
        <pt x="3470" y="375" on="0"/>
      </contour>
    </TTGlyph>
    <TTGlyph name="uniFB52" xMin="337" yMin="-266" xMax="1565" yMax="1771">
      <contour>
        <pt x="1565" y="1730" on="1"/>
        <pt x="1565" y="1685" on="0"/>
        <pt x="1368" y="1590" on="1"/>
        <pt x="1099" y="1459" on="0"/>
        <pt x="1060" y="1434" on="1"/>
        <pt x="1015" y="1434" on="1"/>
        <pt x="1002" y="1447" on="0"/>
        <pt x="1002" y="1464" on="1"/>
        <pt x="1002" y="1522" on="0"/>
        <pt x="1056" y="1552" on="1"/>
        <pt x="1168" y="1614" on="0"/>
        <pt x="1500" y="1771" on="0"/>
        <pt x="1519" y="1771" on="1"/>
        <pt x="1565" y="1771" on="0"/>
      </contour>
      <contour>
        <pt x="1565" y="1183" on="1"/>
        <pt x="1546" y="1126" on="0"/>
        <pt x="1463" y="1103" on="1"/>
        <pt x="1390" y="1083" on="0"/>
        <pt x="1390" y="1046" on="1"/>
        <pt x="1390" y="1039" on="0"/>
        <pt x="1391" y="1030" on="1"/>
        <pt x="1514" y="143" on="1"/>
        <pt x="1490" y="39" on="0"/>
        <pt x="1460" y="0" on="1"/>
        <pt x="1425" y="0" on="1"/>
        <pt x="1418" y="12" on="0"/>
        <pt x="1404" y="34" on="1"/>
        <pt x="1396" y="183" on="0"/>
        <pt x="1282" y="905" on="1"/>
        <pt x="1273" y="962" on="0"/>
        <pt x="1309" y="1037" on="1"/>
        <pt x="1290" y="1042" on="0"/>
        <pt x="1193" y="1031" on="0"/>
        <pt x="1167" y="1035" on="1"/>
        <pt x="1167" y="1042" on="0"/>
        <pt x="1172" y="1066" on="1"/>
        <pt x="1175" y="1086" on="0"/>
        <pt x="1173" y="1098" on="1"/>
        <pt x="1105" y="1140" on="0"/>
        <pt x="1105" y="1172" on="1"/>
        <pt x="1105" y="1221" on="0"/>
        <pt x="1202" y="1294" on="1"/>
        <pt x="1293" y="1362" on="0"/>
        <pt x="1330" y="1362" on="1"/>
        <pt x="1354" y="1362" on="0"/>
        <pt x="1422" y="1296" on="0"/>
        <pt x="1422" y="1275" on="1"/>
        <pt x="1422" y="1253" on="0"/>
        <pt x="1360" y="1194" on="1"/>
        <pt x="1410" y="1186" on="0"/>
        <pt x="1541" y="1208" on="1"/>
      </contour>
      <contour>
        <pt x="777" y="609" on="1"/>
        <pt x="777" y="576" on="0"/>
        <pt x="711" y="512" on="0"/>
        <pt x="679" y="512" on="1"/>
        <pt x="651" y="512" on="0"/>
        <pt x="606" y="536" on="1"/>
        <pt x="552" y="565" on="0"/>
        <pt x="552" y="599" on="1"/>
        <pt x="552" y="616" on="0"/>
        <pt x="584" y="664" on="1"/>
        <pt x="619" y="717" on="0"/>
        <pt x="643" y="717" on="1"/>
        <pt x="670" y="717" on="0"/>
        <pt x="724" y="669" on="1"/>
        <pt x="777" y="623" on="0"/>
      </contour>
      <contour>
        <pt x="1135" y="118" on="1"/>
        <pt x="1135" y="-73" on="0"/>
        <pt x="980" y="-178" on="1"/>
        <pt x="851" y="-266" on="0"/>
        <pt x="675" y="-266" on="1"/>
        <pt x="550" y="-266" on="0"/>
        <pt x="453" y="-201" on="1"/>
        <pt x="337" y="-125" on="0"/>
        <pt x="337" y="5" on="1"/>
        <pt x="337" y="51" on="0"/>
        <pt x="430" y="240" on="0"/>
        <pt x="473" y="275" on="1"/>
        <pt x="510" y="275" on="1"/>
        <pt x="510" y="208" on="1"/>
        <pt x="511" y="199" on="0"/>
        <pt x="493" y="174" on="1"/>
        <pt x="475" y="147" on="0"/>
        <pt x="472" y="137" on="1"/>
        <pt x="460" y="79" on="0"/>
        <pt x="460" y="61" on="1"/>
        <pt x="460" y="-9" on="0"/>
        <pt x="554" y="-61" on="1"/>
        <pt x="629" y="-102" on="0"/>
        <pt x="679" y="-102" on="1"/>
        <pt x="747" y="-102" on="0"/>
        <pt x="874" y="-63" on="1"/>
        <pt x="1043" y="-12" on="0"/>
        <pt x="1043" y="61" on="1"/>
        <pt x="1043" y="75" on="0"/>
        <pt x="1019" y="157" on="1"/>
        <pt x="1008" y="196" on="0"/>
        <pt x="956" y="280" on="1"/>
        <pt x="910" y="357" on="0"/>
        <pt x="910" y="369" on="1"/>
        <pt x="910" y="403" on="0"/>
        <pt x="976" y="492" on="1"/>
        <pt x="1135" y="343" on="0"/>
      </contour>
      <contour>
        <pt x="1319" y="1203" on="1"/>
        <pt x="1298" y="1203" on="0"/>
        <pt x="1298" y="1237" on="1"/>
        <pt x="1259" y="1237" on="1"/>
        <pt x="1272" y="1207" on="0"/>
        <pt x="1303" y="1204" on="0"/>
      </contour>
    </TTGlyph>
</ttFont>
